<mxfile host="app.diagrams.net" modified="2021-06-15T02:59:57.185Z" agent="5.0 (Windows)" etag="WzF5f1UIA4JghoM8VKv5" version="14.7.8" type="github" pages="6">
  <diagram id="E9tC9KCINubY_6QTTnbP" name="PO Online Holding">
    <mxGraphModel dx="1888" dy="564" grid="1" gridSize="10" guides="1" tooltips="1" connect="1" arrows="1" fold="1" page="1" pageScale="1" pageWidth="850" pageHeight="1100" math="0" shadow="0">
      <root>
        <mxCell id="0" />
        <mxCell id="1" parent="0" />
        <mxCell id="sBrIIDY_YA1WwXijnpSs-36" value="PO ONLINE BCC" style="swimlane;" parent="1" vertex="1">
          <mxGeometry x="-150" y="390" width="1454" height="620" as="geometry" />
        </mxCell>
        <mxCell id="sBrIIDY_YA1WwXijnpSs-31" value="Finance Control" style="swimlane;html=1;startSize=20;" parent="sBrIIDY_YA1WwXijnpSs-36" vertex="1">
          <mxGeometry x="640" y="20" width="210" height="600" as="geometry" />
        </mxCell>
        <mxCell id="sBrIIDY_YA1WwXijnpSs-77" style="edgeStyle=orthogonalEdgeStyle;rounded=0;orthogonalLoop=1;jettySize=auto;html=1;exitX=0.5;exitY=1;exitDx=0;exitDy=0;entryX=0.5;entryY=0;entryDx=0;entryDy=0;" parent="sBrIIDY_YA1WwXijnpSs-31" source="sBrIIDY_YA1WwXijnpSs-49" target="sBrIIDY_YA1WwXijnpSs-50" edge="1">
          <mxGeometry relative="1" as="geometry" />
        </mxCell>
        <mxCell id="sBrIIDY_YA1WwXijnpSs-49" value="Menerima PR" style="rounded=0;whiteSpace=wrap;html=1;strokeWidth=1;" parent="sBrIIDY_YA1WwXijnpSs-31" vertex="1">
          <mxGeometry x="55" y="40" width="100" height="40" as="geometry" />
        </mxCell>
        <mxCell id="sBrIIDY_YA1WwXijnpSs-78" style="edgeStyle=orthogonalEdgeStyle;rounded=0;orthogonalLoop=1;jettySize=auto;html=1;exitX=0.5;exitY=1;exitDx=0;exitDy=0;entryX=0.5;entryY=0;entryDx=0;entryDy=0;" parent="sBrIIDY_YA1WwXijnpSs-31" source="sBrIIDY_YA1WwXijnpSs-50" target="sBrIIDY_YA1WwXijnpSs-51" edge="1">
          <mxGeometry relative="1" as="geometry" />
        </mxCell>
        <mxCell id="sBrIIDY_YA1WwXijnpSs-50" value="Melakukan Approve PR" style="rounded=0;whiteSpace=wrap;html=1;strokeWidth=1;" parent="sBrIIDY_YA1WwXijnpSs-31" vertex="1">
          <mxGeometry x="55" y="110" width="100" height="40" as="geometry" />
        </mxCell>
        <mxCell id="sBrIIDY_YA1WwXijnpSs-79" style="edgeStyle=orthogonalEdgeStyle;rounded=0;orthogonalLoop=1;jettySize=auto;html=1;exitX=0.5;exitY=1;exitDx=0;exitDy=0;entryX=0.5;entryY=0;entryDx=0;entryDy=0;" parent="sBrIIDY_YA1WwXijnpSs-31" source="sBrIIDY_YA1WwXijnpSs-51" target="sBrIIDY_YA1WwXijnpSs-58" edge="1">
          <mxGeometry relative="1" as="geometry" />
        </mxCell>
        <mxCell id="sBrIIDY_YA1WwXijnpSs-51" value="Setuju?" style="rhombus;whiteSpace=wrap;html=1;strokeWidth=1;" parent="sBrIIDY_YA1WwXijnpSs-31" vertex="1">
          <mxGeometry x="52.5" y="190" width="105" height="80" as="geometry" />
        </mxCell>
        <mxCell id="sBrIIDY_YA1WwXijnpSs-58" value="&lt;div&gt;Total PR &amp;gt; 5jt&lt;/div&gt;" style="rhombus;whiteSpace=wrap;html=1;strokeWidth=1;" parent="sBrIIDY_YA1WwXijnpSs-31" vertex="1">
          <mxGeometry x="52.5" y="320" width="105" height="80" as="geometry" />
        </mxCell>
        <mxCell id="sBrIIDY_YA1WwXijnpSs-90" value="Ya" style="text;html=1;strokeColor=none;fillColor=none;align=center;verticalAlign=middle;whiteSpace=wrap;rounded=0;" parent="sBrIIDY_YA1WwXijnpSs-31" vertex="1">
          <mxGeometry x="100" y="280" width="40" height="20" as="geometry" />
        </mxCell>
        <mxCell id="sBrIIDY_YA1WwXijnpSs-94" value="Ya" style="text;html=1;strokeColor=none;fillColor=none;align=center;verticalAlign=middle;whiteSpace=wrap;rounded=0;" parent="sBrIIDY_YA1WwXijnpSs-31" vertex="1">
          <mxGeometry x="157.5" y="340" width="40" height="20" as="geometry" />
        </mxCell>
        <mxCell id="sBrIIDY_YA1WwXijnpSs-96" value="Tidak" style="text;html=1;strokeColor=none;fillColor=none;align=center;verticalAlign=middle;whiteSpace=wrap;rounded=0;" parent="sBrIIDY_YA1WwXijnpSs-31" vertex="1">
          <mxGeometry x="20" y="242" width="40" height="20" as="geometry" />
        </mxCell>
        <mxCell id="sBrIIDY_YA1WwXijnpSs-97" value="Tidak" style="text;html=1;strokeColor=none;fillColor=none;align=center;verticalAlign=middle;whiteSpace=wrap;rounded=0;" parent="sBrIIDY_YA1WwXijnpSs-31" vertex="1">
          <mxGeometry x="60" y="429" width="40" height="20" as="geometry" />
        </mxCell>
        <mxCell id="sBrIIDY_YA1WwXijnpSs-34" value="Store Keeper" style="swimlane;html=1;startSize=20;" parent="sBrIIDY_YA1WwXijnpSs-36" vertex="1">
          <mxGeometry y="20" width="230" height="600" as="geometry" />
        </mxCell>
        <mxCell id="sBrIIDY_YA1WwXijnpSs-64" style="edgeStyle=orthogonalEdgeStyle;rounded=0;orthogonalLoop=1;jettySize=auto;html=1;exitX=0.5;exitY=1;exitDx=0;exitDy=0;exitPerimeter=0;" parent="sBrIIDY_YA1WwXijnpSs-34" source="sBrIIDY_YA1WwXijnpSs-37" target="sBrIIDY_YA1WwXijnpSs-39" edge="1">
          <mxGeometry relative="1" as="geometry" />
        </mxCell>
        <mxCell id="sBrIIDY_YA1WwXijnpSs-37" value="Start" style="strokeWidth=1;html=1;shape=mxgraph.flowchart.start_1;whiteSpace=wrap;" parent="sBrIIDY_YA1WwXijnpSs-34" vertex="1">
          <mxGeometry x="85" y="40" width="70" height="30" as="geometry" />
        </mxCell>
        <mxCell id="sBrIIDY_YA1WwXijnpSs-65" style="edgeStyle=orthogonalEdgeStyle;rounded=0;orthogonalLoop=1;jettySize=auto;html=1;exitX=0.5;exitY=1;exitDx=0;exitDy=0;" parent="sBrIIDY_YA1WwXijnpSs-34" source="sBrIIDY_YA1WwXijnpSs-39" target="sBrIIDY_YA1WwXijnpSs-41" edge="1">
          <mxGeometry relative="1" as="geometry" />
        </mxCell>
        <mxCell id="sBrIIDY_YA1WwXijnpSs-39" value="Login" style="rounded=0;whiteSpace=wrap;html=1;strokeWidth=1;" parent="sBrIIDY_YA1WwXijnpSs-34" vertex="1">
          <mxGeometry x="75" y="110" width="90" height="30" as="geometry" />
        </mxCell>
        <mxCell id="sBrIIDY_YA1WwXijnpSs-66" style="edgeStyle=orthogonalEdgeStyle;rounded=0;orthogonalLoop=1;jettySize=auto;html=1;exitX=0.5;exitY=1;exitDx=0;exitDy=0;" parent="sBrIIDY_YA1WwXijnpSs-34" source="sBrIIDY_YA1WwXijnpSs-41" target="sBrIIDY_YA1WwXijnpSs-42" edge="1">
          <mxGeometry relative="1" as="geometry" />
        </mxCell>
        <mxCell id="sBrIIDY_YA1WwXijnpSs-41" value="Create PR&lt;br&gt;(input item dan qty)" style="rounded=0;whiteSpace=wrap;html=1;strokeWidth=1;" parent="sBrIIDY_YA1WwXijnpSs-34" vertex="1">
          <mxGeometry x="64" y="190" width="112.5" height="80" as="geometry" />
        </mxCell>
        <mxCell id="sBrIIDY_YA1WwXijnpSs-42" value="Simpan dan Kirim PR" style="rounded=0;whiteSpace=wrap;html=1;strokeWidth=1;" parent="sBrIIDY_YA1WwXijnpSs-34" vertex="1">
          <mxGeometry x="70" y="290" width="100" height="40" as="geometry" />
        </mxCell>
        <mxCell id="sBrIIDY_YA1WwXijnpSs-98" value="PO dikirim ke Supploer" style="rounded=0;whiteSpace=wrap;html=1;strokeWidth=1;" parent="sBrIIDY_YA1WwXijnpSs-34" vertex="1">
          <mxGeometry x="70" y="470" width="100" height="80" as="geometry" />
        </mxCell>
        <mxCell id="sBrIIDY_YA1WwXijnpSs-33" value="Outlet Manager" style="swimlane;html=1;startSize=20;" parent="sBrIIDY_YA1WwXijnpSs-36" vertex="1">
          <mxGeometry x="220" y="20" width="210" height="600" as="geometry" />
        </mxCell>
        <mxCell id="sBrIIDY_YA1WwXijnpSs-68" style="edgeStyle=orthogonalEdgeStyle;rounded=0;orthogonalLoop=1;jettySize=auto;html=1;exitX=0.5;exitY=1;exitDx=0;exitDy=0;entryX=0.5;entryY=0;entryDx=0;entryDy=0;" parent="sBrIIDY_YA1WwXijnpSs-33" source="sBrIIDY_YA1WwXijnpSs-43" target="sBrIIDY_YA1WwXijnpSs-44" edge="1">
          <mxGeometry relative="1" as="geometry" />
        </mxCell>
        <mxCell id="sBrIIDY_YA1WwXijnpSs-43" value="Menerima PR" style="rounded=0;whiteSpace=wrap;html=1;strokeWidth=1;" parent="sBrIIDY_YA1WwXijnpSs-33" vertex="1">
          <mxGeometry x="55" y="40" width="100" height="40" as="geometry" />
        </mxCell>
        <mxCell id="sBrIIDY_YA1WwXijnpSs-69" style="edgeStyle=orthogonalEdgeStyle;rounded=0;orthogonalLoop=1;jettySize=auto;html=1;exitX=0.5;exitY=1;exitDx=0;exitDy=0;entryX=0.5;entryY=0;entryDx=0;entryDy=0;" parent="sBrIIDY_YA1WwXijnpSs-33" source="sBrIIDY_YA1WwXijnpSs-44" target="sBrIIDY_YA1WwXijnpSs-45" edge="1">
          <mxGeometry relative="1" as="geometry" />
        </mxCell>
        <mxCell id="sBrIIDY_YA1WwXijnpSs-44" value="Melakukan Approve PR" style="rounded=0;whiteSpace=wrap;html=1;strokeWidth=1;" parent="sBrIIDY_YA1WwXijnpSs-33" vertex="1">
          <mxGeometry x="55" y="110" width="100" height="40" as="geometry" />
        </mxCell>
        <mxCell id="sBrIIDY_YA1WwXijnpSs-45" value="Setuju?" style="rhombus;whiteSpace=wrap;html=1;strokeWidth=1;" parent="sBrIIDY_YA1WwXijnpSs-33" vertex="1">
          <mxGeometry x="52.5" y="190" width="105" height="80" as="geometry" />
        </mxCell>
        <mxCell id="sBrIIDY_YA1WwXijnpSs-91" value="Ya" style="text;html=1;strokeColor=none;fillColor=none;align=center;verticalAlign=middle;whiteSpace=wrap;rounded=0;" parent="sBrIIDY_YA1WwXijnpSs-33" vertex="1">
          <mxGeometry x="155" y="210" width="40" height="20" as="geometry" />
        </mxCell>
        <mxCell id="sBrIIDY_YA1WwXijnpSs-102" value="Tidak" style="text;html=1;strokeColor=none;fillColor=none;align=center;verticalAlign=middle;whiteSpace=wrap;rounded=0;" parent="sBrIIDY_YA1WwXijnpSs-33" vertex="1">
          <mxGeometry x="110" y="280" width="40" height="20" as="geometry" />
        </mxCell>
        <mxCell id="sBrIIDY_YA1WwXijnpSs-32" value="Cost Control" style="swimlane;html=1;startSize=20;" parent="sBrIIDY_YA1WwXijnpSs-36" vertex="1">
          <mxGeometry x="430" y="20" width="210" height="600" as="geometry" />
        </mxCell>
        <mxCell id="sBrIIDY_YA1WwXijnpSs-73" style="edgeStyle=orthogonalEdgeStyle;rounded=0;orthogonalLoop=1;jettySize=auto;html=1;exitX=0.5;exitY=1;exitDx=0;exitDy=0;" parent="sBrIIDY_YA1WwXijnpSs-32" source="sBrIIDY_YA1WwXijnpSs-46" target="sBrIIDY_YA1WwXijnpSs-47" edge="1">
          <mxGeometry relative="1" as="geometry" />
        </mxCell>
        <mxCell id="sBrIIDY_YA1WwXijnpSs-46" value="Menerima PR" style="rounded=0;whiteSpace=wrap;html=1;strokeWidth=1;" parent="sBrIIDY_YA1WwXijnpSs-32" vertex="1">
          <mxGeometry x="55" y="40" width="100" height="40" as="geometry" />
        </mxCell>
        <mxCell id="sBrIIDY_YA1WwXijnpSs-74" style="edgeStyle=orthogonalEdgeStyle;rounded=0;orthogonalLoop=1;jettySize=auto;html=1;exitX=0.5;exitY=1;exitDx=0;exitDy=0;entryX=0.5;entryY=0;entryDx=0;entryDy=0;" parent="sBrIIDY_YA1WwXijnpSs-32" source="sBrIIDY_YA1WwXijnpSs-47" target="sBrIIDY_YA1WwXijnpSs-48" edge="1">
          <mxGeometry relative="1" as="geometry" />
        </mxCell>
        <mxCell id="sBrIIDY_YA1WwXijnpSs-47" value="Melakukan Approve PR" style="rounded=0;whiteSpace=wrap;html=1;strokeWidth=1;" parent="sBrIIDY_YA1WwXijnpSs-32" vertex="1">
          <mxGeometry x="55" y="110" width="100" height="40" as="geometry" />
        </mxCell>
        <mxCell id="sBrIIDY_YA1WwXijnpSs-48" value="Setuju?" style="rhombus;whiteSpace=wrap;html=1;strokeWidth=1;" parent="sBrIIDY_YA1WwXijnpSs-32" vertex="1">
          <mxGeometry x="52.5" y="190" width="105" height="80" as="geometry" />
        </mxCell>
        <mxCell id="sBrIIDY_YA1WwXijnpSs-92" value="Ya" style="text;html=1;strokeColor=none;fillColor=none;align=center;verticalAlign=middle;whiteSpace=wrap;rounded=0;" parent="sBrIIDY_YA1WwXijnpSs-32" vertex="1">
          <mxGeometry x="155" y="210" width="40" height="20" as="geometry" />
        </mxCell>
        <mxCell id="sBrIIDY_YA1WwXijnpSs-101" value="Tidak" style="text;html=1;strokeColor=none;fillColor=none;align=center;verticalAlign=middle;whiteSpace=wrap;rounded=0;" parent="sBrIIDY_YA1WwXijnpSs-32" vertex="1">
          <mxGeometry x="110" y="280" width="40" height="20" as="geometry" />
        </mxCell>
        <mxCell id="sBrIIDY_YA1WwXijnpSs-35" value="General Manager" style="swimlane;html=1;startSize=20;" parent="sBrIIDY_YA1WwXijnpSs-36" vertex="1">
          <mxGeometry x="850" y="20" width="200" height="600" as="geometry" />
        </mxCell>
        <mxCell id="sBrIIDY_YA1WwXijnpSs-82" style="edgeStyle=orthogonalEdgeStyle;rounded=0;orthogonalLoop=1;jettySize=auto;html=1;exitX=0.5;exitY=1;exitDx=0;exitDy=0;entryX=0.5;entryY=0;entryDx=0;entryDy=0;" parent="sBrIIDY_YA1WwXijnpSs-35" source="sBrIIDY_YA1WwXijnpSs-55" target="sBrIIDY_YA1WwXijnpSs-56" edge="1">
          <mxGeometry relative="1" as="geometry" />
        </mxCell>
        <mxCell id="sBrIIDY_YA1WwXijnpSs-55" value="Menerima PR" style="rounded=0;whiteSpace=wrap;html=1;strokeWidth=1;" parent="sBrIIDY_YA1WwXijnpSs-35" vertex="1">
          <mxGeometry x="50" y="40" width="100" height="40" as="geometry" />
        </mxCell>
        <mxCell id="sBrIIDY_YA1WwXijnpSs-83" style="edgeStyle=orthogonalEdgeStyle;rounded=0;orthogonalLoop=1;jettySize=auto;html=1;exitX=0.5;exitY=1;exitDx=0;exitDy=0;entryX=0.5;entryY=0;entryDx=0;entryDy=0;" parent="sBrIIDY_YA1WwXijnpSs-35" source="sBrIIDY_YA1WwXijnpSs-56" target="sBrIIDY_YA1WwXijnpSs-57" edge="1">
          <mxGeometry relative="1" as="geometry" />
        </mxCell>
        <mxCell id="sBrIIDY_YA1WwXijnpSs-56" value="Melakukan Approve PR" style="rounded=0;whiteSpace=wrap;html=1;strokeWidth=1;" parent="sBrIIDY_YA1WwXijnpSs-35" vertex="1">
          <mxGeometry x="50" y="110" width="100" height="40" as="geometry" />
        </mxCell>
        <mxCell id="sBrIIDY_YA1WwXijnpSs-57" value="Setuju?" style="rhombus;whiteSpace=wrap;html=1;strokeWidth=1;" parent="sBrIIDY_YA1WwXijnpSs-35" vertex="1">
          <mxGeometry x="47.5" y="189" width="105" height="80" as="geometry" />
        </mxCell>
        <mxCell id="sBrIIDY_YA1WwXijnpSs-93" value="Ya" style="text;html=1;strokeColor=none;fillColor=none;align=center;verticalAlign=middle;whiteSpace=wrap;rounded=0;" parent="sBrIIDY_YA1WwXijnpSs-35" vertex="1">
          <mxGeometry x="100" y="279" width="40" height="20" as="geometry" />
        </mxCell>
        <mxCell id="sBrIIDY_YA1WwXijnpSs-95" value="Tidak" style="text;html=1;strokeColor=none;fillColor=none;align=center;verticalAlign=middle;whiteSpace=wrap;rounded=0;" parent="sBrIIDY_YA1WwXijnpSs-35" vertex="1">
          <mxGeometry x="20" y="240" width="40" height="20" as="geometry" />
        </mxCell>
        <mxCell id="sBrIIDY_YA1WwXijnpSs-59" value="President Directur" style="swimlane;html=1;startSize=20;" parent="sBrIIDY_YA1WwXijnpSs-36" vertex="1">
          <mxGeometry x="1050" y="20" width="200" height="600" as="geometry" />
        </mxCell>
        <mxCell id="sBrIIDY_YA1WwXijnpSs-87" style="edgeStyle=orthogonalEdgeStyle;rounded=0;orthogonalLoop=1;jettySize=auto;html=1;exitX=0.5;exitY=1;exitDx=0;exitDy=0;entryX=0.5;entryY=0;entryDx=0;entryDy=0;" parent="sBrIIDY_YA1WwXijnpSs-59" source="sBrIIDY_YA1WwXijnpSs-60" edge="1">
          <mxGeometry relative="1" as="geometry">
            <mxPoint x="100" y="110" as="targetPoint" />
          </mxGeometry>
        </mxCell>
        <mxCell id="sBrIIDY_YA1WwXijnpSs-60" value="Menerima PR" style="rounded=0;whiteSpace=wrap;html=1;strokeWidth=1;" parent="sBrIIDY_YA1WwXijnpSs-59" vertex="1">
          <mxGeometry x="50" y="40" width="100" height="40" as="geometry" />
        </mxCell>
        <mxCell id="sBrIIDY_YA1WwXijnpSs-67" style="edgeStyle=orthogonalEdgeStyle;rounded=0;orthogonalLoop=1;jettySize=auto;html=1;exitX=1;exitY=0.5;exitDx=0;exitDy=0;entryX=0;entryY=0.5;entryDx=0;entryDy=0;" parent="sBrIIDY_YA1WwXijnpSs-36" source="sBrIIDY_YA1WwXijnpSs-42" target="sBrIIDY_YA1WwXijnpSs-43" edge="1">
          <mxGeometry relative="1" as="geometry">
            <Array as="points">
              <mxPoint x="240" y="330" />
              <mxPoint x="240" y="80" />
            </Array>
          </mxGeometry>
        </mxCell>
        <mxCell id="sBrIIDY_YA1WwXijnpSs-70" style="edgeStyle=orthogonalEdgeStyle;rounded=0;orthogonalLoop=1;jettySize=auto;html=1;exitX=1;exitY=0.5;exitDx=0;exitDy=0;entryX=0;entryY=0.5;entryDx=0;entryDy=0;" parent="sBrIIDY_YA1WwXijnpSs-36" source="sBrIIDY_YA1WwXijnpSs-45" target="sBrIIDY_YA1WwXijnpSs-46" edge="1">
          <mxGeometry relative="1" as="geometry">
            <Array as="points">
              <mxPoint x="460" y="250" />
              <mxPoint x="460" y="80" />
            </Array>
          </mxGeometry>
        </mxCell>
        <mxCell id="sBrIIDY_YA1WwXijnpSs-71" style="edgeStyle=orthogonalEdgeStyle;rounded=0;orthogonalLoop=1;jettySize=auto;html=1;exitX=0.5;exitY=1;exitDx=0;exitDy=0;entryX=0.004;entryY=0.85;entryDx=0;entryDy=0;entryPerimeter=0;" parent="sBrIIDY_YA1WwXijnpSs-36" source="sBrIIDY_YA1WwXijnpSs-45" target="sBrIIDY_YA1WwXijnpSs-41" edge="1">
          <mxGeometry relative="1" as="geometry">
            <mxPoint x="55" y="250" as="targetPoint" />
            <Array as="points">
              <mxPoint x="325" y="400" />
              <mxPoint x="40" y="400" />
              <mxPoint x="40" y="278" />
            </Array>
          </mxGeometry>
        </mxCell>
        <mxCell id="sBrIIDY_YA1WwXijnpSs-75" style="edgeStyle=orthogonalEdgeStyle;rounded=0;orthogonalLoop=1;jettySize=auto;html=1;exitX=0.5;exitY=1;exitDx=0;exitDy=0;entryX=-0.004;entryY=0.675;entryDx=0;entryDy=0;entryPerimeter=0;" parent="sBrIIDY_YA1WwXijnpSs-36" source="sBrIIDY_YA1WwXijnpSs-48" target="sBrIIDY_YA1WwXijnpSs-41" edge="1">
          <mxGeometry relative="1" as="geometry">
            <Array as="points">
              <mxPoint x="535" y="410" />
              <mxPoint x="30" y="410" />
              <mxPoint x="30" y="264" />
            </Array>
          </mxGeometry>
        </mxCell>
        <mxCell id="sBrIIDY_YA1WwXijnpSs-76" style="edgeStyle=orthogonalEdgeStyle;rounded=0;orthogonalLoop=1;jettySize=auto;html=1;exitX=1;exitY=0.5;exitDx=0;exitDy=0;entryX=0;entryY=0.5;entryDx=0;entryDy=0;" parent="sBrIIDY_YA1WwXijnpSs-36" source="sBrIIDY_YA1WwXijnpSs-48" target="sBrIIDY_YA1WwXijnpSs-49" edge="1">
          <mxGeometry relative="1" as="geometry">
            <Array as="points">
              <mxPoint x="650" y="250" />
              <mxPoint x="650" y="80" />
            </Array>
          </mxGeometry>
        </mxCell>
        <mxCell id="sBrIIDY_YA1WwXijnpSs-80" style="edgeStyle=orthogonalEdgeStyle;rounded=0;orthogonalLoop=1;jettySize=auto;html=1;exitX=0;exitY=0.5;exitDx=0;exitDy=0;entryX=0;entryY=0.5;entryDx=0;entryDy=0;" parent="sBrIIDY_YA1WwXijnpSs-36" source="sBrIIDY_YA1WwXijnpSs-51" target="sBrIIDY_YA1WwXijnpSs-41" edge="1">
          <mxGeometry relative="1" as="geometry">
            <Array as="points">
              <mxPoint x="660" y="250" />
              <mxPoint x="660" y="420" />
              <mxPoint x="20" y="420" />
              <mxPoint x="20" y="250" />
            </Array>
          </mxGeometry>
        </mxCell>
        <mxCell id="sBrIIDY_YA1WwXijnpSs-81" style="edgeStyle=orthogonalEdgeStyle;rounded=0;orthogonalLoop=1;jettySize=auto;html=1;exitX=1;exitY=0.5;exitDx=0;exitDy=0;entryX=0;entryY=0.5;entryDx=0;entryDy=0;" parent="sBrIIDY_YA1WwXijnpSs-36" source="sBrIIDY_YA1WwXijnpSs-58" target="sBrIIDY_YA1WwXijnpSs-55" edge="1">
          <mxGeometry relative="1" as="geometry">
            <Array as="points">
              <mxPoint x="860" y="380" />
              <mxPoint x="860" y="80" />
            </Array>
          </mxGeometry>
        </mxCell>
        <mxCell id="sBrIIDY_YA1WwXijnpSs-89" style="edgeStyle=orthogonalEdgeStyle;rounded=0;orthogonalLoop=1;jettySize=auto;html=1;exitX=0;exitY=0.5;exitDx=0;exitDy=0;entryX=0;entryY=0.25;entryDx=0;entryDy=0;" parent="sBrIIDY_YA1WwXijnpSs-36" source="sBrIIDY_YA1WwXijnpSs-57" target="sBrIIDY_YA1WwXijnpSs-41" edge="1">
          <mxGeometry relative="1" as="geometry">
            <Array as="points">
              <mxPoint x="870" y="249" />
              <mxPoint x="870" y="580" />
              <mxPoint x="10" y="580" />
              <mxPoint x="10" y="230" />
            </Array>
            <mxPoint x="64" y="220" as="targetPoint" />
          </mxGeometry>
        </mxCell>
        <mxCell id="x0FzzxYTaIjgJyNIDoxO-14" value="" style="endArrow=classic;html=1;exitX=0.5;exitY=1;exitDx=0;exitDy=0;edgeStyle=orthogonalEdgeStyle;elbow=vertical;rounded=0;" edge="1" parent="sBrIIDY_YA1WwXijnpSs-36" source="sBrIIDY_YA1WwXijnpSs-58">
          <mxGeometry width="50" height="50" relative="1" as="geometry">
            <mxPoint x="420" y="340" as="sourcePoint" />
            <mxPoint x="170" y="510" as="targetPoint" />
            <Array as="points">
              <mxPoint x="745" y="510" />
            </Array>
          </mxGeometry>
        </mxCell>
        <mxCell id="x0FzzxYTaIjgJyNIDoxO-6" value="End" style="strokeWidth=1;html=1;shape=mxgraph.flowchart.start_1;whiteSpace=wrap;" vertex="1" parent="sBrIIDY_YA1WwXijnpSs-36">
          <mxGeometry x="1315" y="360" width="70" height="30" as="geometry" />
        </mxCell>
        <mxCell id="x0FzzxYTaIjgJyNIDoxO-5" value="Pengiriman Barang ke Outlet" style="rounded=0;whiteSpace=wrap;html=1;strokeWidth=1;" vertex="1" parent="sBrIIDY_YA1WwXijnpSs-36">
          <mxGeometry x="1300" y="200" width="100" height="40" as="geometry" />
        </mxCell>
        <mxCell id="x0FzzxYTaIjgJyNIDoxO-4" style="edgeStyle=orthogonalEdgeStyle;rounded=0;orthogonalLoop=1;jettySize=auto;html=1;exitX=0.5;exitY=1;exitDx=0;exitDy=0;entryX=0.5;entryY=0;entryDx=0;entryDy=0;entryPerimeter=0;" edge="1" parent="sBrIIDY_YA1WwXijnpSs-36" source="x0FzzxYTaIjgJyNIDoxO-5" target="x0FzzxYTaIjgJyNIDoxO-6">
          <mxGeometry relative="1" as="geometry" />
        </mxCell>
        <mxCell id="x0FzzxYTaIjgJyNIDoxO-1" value="Supplier" style="swimlane;html=1;startSize=20;" vertex="1" parent="1">
          <mxGeometry x="1100" y="410" width="204" height="600" as="geometry" />
        </mxCell>
        <mxCell id="x0FzzxYTaIjgJyNIDoxO-3" value="Menerima PO" style="rounded=0;whiteSpace=wrap;html=1;strokeWidth=1;" vertex="1" parent="x0FzzxYTaIjgJyNIDoxO-1">
          <mxGeometry x="50" y="40" width="100" height="40" as="geometry" />
        </mxCell>
        <mxCell id="x0FzzxYTaIjgJyNIDoxO-7" style="edgeStyle=orthogonalEdgeStyle;rounded=0;orthogonalLoop=1;jettySize=auto;html=1;exitX=0.5;exitY=1;exitDx=0;exitDy=0;entryX=0.5;entryY=0;entryDx=0;entryDy=0;" edge="1" parent="1" source="x0FzzxYTaIjgJyNIDoxO-8" target="x0FzzxYTaIjgJyNIDoxO-9">
          <mxGeometry relative="1" as="geometry" />
        </mxCell>
        <mxCell id="x0FzzxYTaIjgJyNIDoxO-8" value="Melakukan Approve PR" style="rounded=0;whiteSpace=wrap;html=1;strokeWidth=1;" vertex="1" parent="1">
          <mxGeometry x="949" y="520" width="101" height="40" as="geometry" />
        </mxCell>
        <mxCell id="x0FzzxYTaIjgJyNIDoxO-24" style="edgeStyle=orthogonalEdgeStyle;rounded=0;orthogonalLoop=1;jettySize=auto;html=1;exitX=0;exitY=0.5;exitDx=0;exitDy=0;" edge="1" parent="1" source="x0FzzxYTaIjgJyNIDoxO-9">
          <mxGeometry relative="1" as="geometry">
            <mxPoint x="-86" y="630" as="targetPoint" />
            <Array as="points">
              <mxPoint x="910" y="640" />
              <mxPoint x="910" y="870" />
              <mxPoint x="-130" y="870" />
              <mxPoint x="-130" y="630" />
            </Array>
          </mxGeometry>
        </mxCell>
        <mxCell id="x0FzzxYTaIjgJyNIDoxO-9" value="Setuju?" style="rhombus;whiteSpace=wrap;html=1;strokeWidth=1;" vertex="1" parent="1">
          <mxGeometry x="946.5" y="600" width="106" height="80" as="geometry" />
        </mxCell>
        <mxCell id="x0FzzxYTaIjgJyNIDoxO-15" value="&lt;div&gt;&lt;br&gt;&lt;/div&gt;&lt;div&gt;Total PR &amp;gt; 5jt &amp;amp; &lt;br&gt;&lt;/div&gt;&lt;div&gt;&amp;lt; 25 jt&lt;/div&gt;" style="rhombus;whiteSpace=wrap;html=1;strokeWidth=1;" vertex="1" parent="1">
          <mxGeometry x="742.5" y="715" width="114" height="90" as="geometry" />
        </mxCell>
        <mxCell id="sBrIIDY_YA1WwXijnpSs-85" style="edgeStyle=orthogonalEdgeStyle;rounded=0;orthogonalLoop=1;jettySize=auto;html=1;exitX=0.5;exitY=1;exitDx=0;exitDy=0;entryX=0.5;entryY=0;entryDx=0;entryDy=0;" parent="1" source="sBrIIDY_YA1WwXijnpSs-57" target="x0FzzxYTaIjgJyNIDoxO-15" edge="1">
          <mxGeometry relative="1" as="geometry">
            <mxPoint x="800" y="810" as="targetPoint" />
          </mxGeometry>
        </mxCell>
        <mxCell id="sBrIIDY_YA1WwXijnpSs-86" style="edgeStyle=orthogonalEdgeStyle;rounded=0;orthogonalLoop=1;jettySize=auto;html=1;entryX=0;entryY=0.5;entryDx=0;entryDy=0;exitX=1;exitY=0.5;exitDx=0;exitDy=0;" parent="1" source="x0FzzxYTaIjgJyNIDoxO-15" target="sBrIIDY_YA1WwXijnpSs-60" edge="1">
          <mxGeometry relative="1" as="geometry">
            <Array as="points">
              <mxPoint x="890" y="760" />
              <mxPoint x="890" y="470" />
            </Array>
            <mxPoint x="860" y="780" as="sourcePoint" />
          </mxGeometry>
        </mxCell>
        <mxCell id="x0FzzxYTaIjgJyNIDoxO-16" value="" style="endArrow=classic;html=1;exitX=0.5;exitY=1;exitDx=0;exitDy=0;edgeStyle=orthogonalEdgeStyle;elbow=vertical;rounded=0;" edge="1" parent="1" source="x0FzzxYTaIjgJyNIDoxO-15">
          <mxGeometry width="50" height="50" relative="1" as="geometry">
            <mxPoint x="660" y="820" as="sourcePoint" />
            <mxPoint x="20" y="910" as="targetPoint" />
            <Array as="points">
              <mxPoint x="800" y="910" />
              <mxPoint x="20" y="910" />
            </Array>
          </mxGeometry>
        </mxCell>
        <mxCell id="x0FzzxYTaIjgJyNIDoxO-17" value="Ya" style="text;html=1;strokeColor=none;fillColor=none;align=center;verticalAlign=middle;whiteSpace=wrap;rounded=0;" vertex="1" parent="1">
          <mxGeometry x="859" y="739" width="40" height="20" as="geometry" />
        </mxCell>
        <mxCell id="x0FzzxYTaIjgJyNIDoxO-18" value="Tidak" style="text;html=1;strokeColor=none;fillColor=none;align=center;verticalAlign=middle;whiteSpace=wrap;rounded=0;" vertex="1" parent="1">
          <mxGeometry x="743" y="838" width="52" height="20" as="geometry" />
        </mxCell>
        <mxCell id="x0FzzxYTaIjgJyNIDoxO-27" style="edgeStyle=orthogonalEdgeStyle;rounded=0;orthogonalLoop=1;jettySize=auto;html=1;entryX=1;entryY=0.5;entryDx=0;entryDy=0;exitX=0.5;exitY=1;exitDx=0;exitDy=0;" edge="1" parent="1" source="x0FzzxYTaIjgJyNIDoxO-9" target="sBrIIDY_YA1WwXijnpSs-98">
          <mxGeometry relative="1" as="geometry">
            <mxPoint x="999.5" y="810" as="sourcePoint" />
            <Array as="points">
              <mxPoint x="1000" y="920" />
            </Array>
          </mxGeometry>
        </mxCell>
        <mxCell id="sBrIIDY_YA1WwXijnpSs-100" style="edgeStyle=orthogonalEdgeStyle;rounded=0;orthogonalLoop=1;jettySize=auto;html=1;exitX=1;exitY=0.613;exitDx=0;exitDy=0;entryX=0;entryY=0.5;entryDx=0;entryDy=0;exitPerimeter=0;" parent="1" source="sBrIIDY_YA1WwXijnpSs-98" target="x0FzzxYTaIjgJyNIDoxO-3" edge="1">
          <mxGeometry relative="1" as="geometry">
            <Array as="points">
              <mxPoint x="1130" y="929" />
              <mxPoint x="1130" y="470" />
            </Array>
          </mxGeometry>
        </mxCell>
        <mxCell id="x0FzzxYTaIjgJyNIDoxO-25" value="Tidak" style="text;html=1;strokeColor=none;fillColor=none;align=center;verticalAlign=middle;whiteSpace=wrap;rounded=0;" vertex="1" parent="1">
          <mxGeometry x="912" y="650" width="40" height="18" as="geometry" />
        </mxCell>
        <mxCell id="x0FzzxYTaIjgJyNIDoxO-26" value="Ya" style="text;html=1;strokeColor=none;fillColor=none;align=center;verticalAlign=middle;whiteSpace=wrap;rounded=0;" vertex="1" parent="1">
          <mxGeometry x="1007" y="689" width="41" height="20" as="geometry" />
        </mxCell>
        <mxCell id="x0FzzxYTaIjgJyNIDoxO-2" style="edgeStyle=orthogonalEdgeStyle;rounded=0;orthogonalLoop=1;jettySize=auto;html=1;exitX=0.5;exitY=1;exitDx=0;exitDy=0;entryX=0.5;entryY=0;entryDx=0;entryDy=0;" edge="1" parent="1" source="x0FzzxYTaIjgJyNIDoxO-3" target="x0FzzxYTaIjgJyNIDoxO-5">
          <mxGeometry relative="1" as="geometry" />
        </mxCell>
      </root>
    </mxGraphModel>
  </diagram>
  <diagram id="QE0ZkjXkfitvA-fT-w3p" name="PO Online Market List">
    <mxGraphModel dx="1397" dy="491" grid="1" gridSize="10" guides="1" tooltips="1" connect="1" arrows="1" fold="1" page="1" pageScale="1" pageWidth="850" pageHeight="1100" math="0" shadow="0">
      <root>
        <mxCell id="RDKpm0cOcdZf6PXUh-yV-0" />
        <mxCell id="RDKpm0cOcdZf6PXUh-yV-1" parent="RDKpm0cOcdZf6PXUh-yV-0" />
        <mxCell id="RDKpm0cOcdZf6PXUh-yV-2" value="PO ONLINE MARKET LIST BCC" style="swimlane;" parent="RDKpm0cOcdZf6PXUh-yV-1" vertex="1">
          <mxGeometry x="-140" y="390" width="1050" height="470" as="geometry" />
        </mxCell>
        <mxCell id="RDKpm0cOcdZf6PXUh-yV-3" value="Finance Control" style="swimlane;html=1;startSize=20;" parent="RDKpm0cOcdZf6PXUh-yV-2" vertex="1">
          <mxGeometry x="640" y="20" width="210" height="450" as="geometry" />
        </mxCell>
        <mxCell id="RDKpm0cOcdZf6PXUh-yV-4" style="edgeStyle=orthogonalEdgeStyle;rounded=0;orthogonalLoop=1;jettySize=auto;html=1;exitX=0.5;exitY=1;exitDx=0;exitDy=0;entryX=0.5;entryY=0;entryDx=0;entryDy=0;" parent="RDKpm0cOcdZf6PXUh-yV-3" source="RDKpm0cOcdZf6PXUh-yV-5" target="RDKpm0cOcdZf6PXUh-yV-7" edge="1">
          <mxGeometry relative="1" as="geometry" />
        </mxCell>
        <mxCell id="RDKpm0cOcdZf6PXUh-yV-5" value="Menerima PR" style="rounded=0;whiteSpace=wrap;html=1;strokeWidth=1;" parent="RDKpm0cOcdZf6PXUh-yV-3" vertex="1">
          <mxGeometry x="55" y="40" width="100" height="40" as="geometry" />
        </mxCell>
        <mxCell id="RDKpm0cOcdZf6PXUh-yV-6" style="edgeStyle=orthogonalEdgeStyle;rounded=0;orthogonalLoop=1;jettySize=auto;html=1;exitX=0.5;exitY=1;exitDx=0;exitDy=0;entryX=0.5;entryY=0;entryDx=0;entryDy=0;" parent="RDKpm0cOcdZf6PXUh-yV-3" source="RDKpm0cOcdZf6PXUh-yV-7" target="RDKpm0cOcdZf6PXUh-yV-9" edge="1">
          <mxGeometry relative="1" as="geometry" />
        </mxCell>
        <mxCell id="RDKpm0cOcdZf6PXUh-yV-7" value="Melakukan Approve PR" style="rounded=0;whiteSpace=wrap;html=1;strokeWidth=1;" parent="RDKpm0cOcdZf6PXUh-yV-3" vertex="1">
          <mxGeometry x="55" y="110" width="100" height="40" as="geometry" />
        </mxCell>
        <mxCell id="RDKpm0cOcdZf6PXUh-yV-8" style="edgeStyle=orthogonalEdgeStyle;rounded=0;orthogonalLoop=1;jettySize=auto;html=1;exitX=0.5;exitY=1;exitDx=0;exitDy=0;entryX=0.5;entryY=0;entryDx=0;entryDy=0;" parent="RDKpm0cOcdZf6PXUh-yV-3" source="RDKpm0cOcdZf6PXUh-yV-9" edge="1">
          <mxGeometry relative="1" as="geometry">
            <mxPoint x="105" y="320.0000000000002" as="targetPoint" />
          </mxGeometry>
        </mxCell>
        <mxCell id="RDKpm0cOcdZf6PXUh-yV-9" value="Setuju?" style="rhombus;whiteSpace=wrap;html=1;strokeWidth=1;" parent="RDKpm0cOcdZf6PXUh-yV-3" vertex="1">
          <mxGeometry x="52.5" y="210" width="105" height="80" as="geometry" />
        </mxCell>
        <mxCell id="RDKpm0cOcdZf6PXUh-yV-12" value="Ya" style="text;html=1;strokeColor=none;fillColor=none;align=center;verticalAlign=middle;whiteSpace=wrap;rounded=0;" parent="RDKpm0cOcdZf6PXUh-yV-3" vertex="1">
          <mxGeometry x="100" y="290" width="40" height="20" as="geometry" />
        </mxCell>
        <mxCell id="RDKpm0cOcdZf6PXUh-yV-14" value="Tidak" style="text;html=1;strokeColor=none;fillColor=none;align=center;verticalAlign=middle;whiteSpace=wrap;rounded=0;" parent="RDKpm0cOcdZf6PXUh-yV-3" vertex="1">
          <mxGeometry x="20" y="250" width="40" height="20" as="geometry" />
        </mxCell>
        <mxCell id="RDKpm0cOcdZf6PXUh-yV-15" value="PO dikirim ke Supploer" style="rounded=0;whiteSpace=wrap;html=1;strokeWidth=1;" parent="RDKpm0cOcdZf6PXUh-yV-3" vertex="1">
          <mxGeometry x="55" y="320" width="100" height="40" as="geometry" />
        </mxCell>
        <mxCell id="RDKpm0cOcdZf6PXUh-yV-17" value="Store Keeper" style="swimlane;html=1;startSize=20;" parent="RDKpm0cOcdZf6PXUh-yV-2" vertex="1">
          <mxGeometry y="20" width="220" height="450" as="geometry" />
        </mxCell>
        <mxCell id="RDKpm0cOcdZf6PXUh-yV-18" style="edgeStyle=orthogonalEdgeStyle;rounded=0;orthogonalLoop=1;jettySize=auto;html=1;exitX=0.5;exitY=1;exitDx=0;exitDy=0;exitPerimeter=0;" parent="RDKpm0cOcdZf6PXUh-yV-17" source="RDKpm0cOcdZf6PXUh-yV-19" target="RDKpm0cOcdZf6PXUh-yV-21" edge="1">
          <mxGeometry relative="1" as="geometry" />
        </mxCell>
        <mxCell id="RDKpm0cOcdZf6PXUh-yV-19" value="Start" style="strokeWidth=1;html=1;shape=mxgraph.flowchart.start_1;whiteSpace=wrap;" parent="RDKpm0cOcdZf6PXUh-yV-17" vertex="1">
          <mxGeometry x="85" y="40" width="70" height="30" as="geometry" />
        </mxCell>
        <mxCell id="RDKpm0cOcdZf6PXUh-yV-20" style="edgeStyle=orthogonalEdgeStyle;rounded=0;orthogonalLoop=1;jettySize=auto;html=1;exitX=0.5;exitY=1;exitDx=0;exitDy=0;" parent="RDKpm0cOcdZf6PXUh-yV-17" source="RDKpm0cOcdZf6PXUh-yV-21" target="RDKpm0cOcdZf6PXUh-yV-23" edge="1">
          <mxGeometry relative="1" as="geometry" />
        </mxCell>
        <mxCell id="RDKpm0cOcdZf6PXUh-yV-21" value="Login" style="rounded=0;whiteSpace=wrap;html=1;strokeWidth=1;" parent="RDKpm0cOcdZf6PXUh-yV-17" vertex="1">
          <mxGeometry x="75" y="110" width="90" height="30" as="geometry" />
        </mxCell>
        <mxCell id="RDKpm0cOcdZf6PXUh-yV-22" style="edgeStyle=orthogonalEdgeStyle;rounded=0;orthogonalLoop=1;jettySize=auto;html=1;exitX=0.5;exitY=1;exitDx=0;exitDy=0;" parent="RDKpm0cOcdZf6PXUh-yV-17" source="RDKpm0cOcdZf6PXUh-yV-23" target="RDKpm0cOcdZf6PXUh-yV-24" edge="1">
          <mxGeometry relative="1" as="geometry" />
        </mxCell>
        <mxCell id="RDKpm0cOcdZf6PXUh-yV-23" value="Create PR&lt;br&gt;(input item dan qty)" style="rounded=0;whiteSpace=wrap;html=1;strokeWidth=1;" parent="RDKpm0cOcdZf6PXUh-yV-17" vertex="1">
          <mxGeometry x="57.5" y="190" width="125" height="80" as="geometry" />
        </mxCell>
        <mxCell id="RDKpm0cOcdZf6PXUh-yV-24" value="Simpan dan Kirim PR" style="rounded=0;whiteSpace=wrap;html=1;strokeWidth=1;" parent="RDKpm0cOcdZf6PXUh-yV-17" vertex="1">
          <mxGeometry x="70" y="290" width="100" height="40" as="geometry" />
        </mxCell>
        <mxCell id="RDKpm0cOcdZf6PXUh-yV-25" value="Outlet Manager" style="swimlane;html=1;startSize=20;" parent="RDKpm0cOcdZf6PXUh-yV-2" vertex="1">
          <mxGeometry x="220" y="20" width="210" height="450" as="geometry" />
        </mxCell>
        <mxCell id="RDKpm0cOcdZf6PXUh-yV-26" style="edgeStyle=orthogonalEdgeStyle;rounded=0;orthogonalLoop=1;jettySize=auto;html=1;exitX=0.5;exitY=1;exitDx=0;exitDy=0;entryX=0.5;entryY=0;entryDx=0;entryDy=0;" parent="RDKpm0cOcdZf6PXUh-yV-25" source="RDKpm0cOcdZf6PXUh-yV-27" target="RDKpm0cOcdZf6PXUh-yV-29" edge="1">
          <mxGeometry relative="1" as="geometry" />
        </mxCell>
        <mxCell id="RDKpm0cOcdZf6PXUh-yV-27" value="Menerima PR" style="rounded=0;whiteSpace=wrap;html=1;strokeWidth=1;" parent="RDKpm0cOcdZf6PXUh-yV-25" vertex="1">
          <mxGeometry x="55" y="40" width="100" height="40" as="geometry" />
        </mxCell>
        <mxCell id="RDKpm0cOcdZf6PXUh-yV-28" style="edgeStyle=orthogonalEdgeStyle;rounded=0;orthogonalLoop=1;jettySize=auto;html=1;exitX=0.5;exitY=1;exitDx=0;exitDy=0;entryX=0.5;entryY=0;entryDx=0;entryDy=0;" parent="RDKpm0cOcdZf6PXUh-yV-25" source="RDKpm0cOcdZf6PXUh-yV-29" target="RDKpm0cOcdZf6PXUh-yV-30" edge="1">
          <mxGeometry relative="1" as="geometry" />
        </mxCell>
        <mxCell id="RDKpm0cOcdZf6PXUh-yV-29" value="Melakukan Approve PR" style="rounded=0;whiteSpace=wrap;html=1;strokeWidth=1;" parent="RDKpm0cOcdZf6PXUh-yV-25" vertex="1">
          <mxGeometry x="55" y="110" width="100" height="40" as="geometry" />
        </mxCell>
        <mxCell id="RDKpm0cOcdZf6PXUh-yV-30" value="Setuju?" style="rhombus;whiteSpace=wrap;html=1;strokeWidth=1;" parent="RDKpm0cOcdZf6PXUh-yV-25" vertex="1">
          <mxGeometry x="52.5" y="190" width="105" height="80" as="geometry" />
        </mxCell>
        <mxCell id="RDKpm0cOcdZf6PXUh-yV-31" value="Ya" style="text;html=1;strokeColor=none;fillColor=none;align=center;verticalAlign=middle;whiteSpace=wrap;rounded=0;" parent="RDKpm0cOcdZf6PXUh-yV-25" vertex="1">
          <mxGeometry x="155" y="210" width="40" height="20" as="geometry" />
        </mxCell>
        <mxCell id="RDKpm0cOcdZf6PXUh-yV-32" value="Tidak" style="text;html=1;strokeColor=none;fillColor=none;align=center;verticalAlign=middle;whiteSpace=wrap;rounded=0;" parent="RDKpm0cOcdZf6PXUh-yV-25" vertex="1">
          <mxGeometry x="110" y="280" width="40" height="20" as="geometry" />
        </mxCell>
        <mxCell id="RDKpm0cOcdZf6PXUh-yV-33" value="Cost Control" style="swimlane;html=1;startSize=20;" parent="RDKpm0cOcdZf6PXUh-yV-2" vertex="1">
          <mxGeometry x="430" y="20" width="210" height="450" as="geometry" />
        </mxCell>
        <mxCell id="RDKpm0cOcdZf6PXUh-yV-34" style="edgeStyle=orthogonalEdgeStyle;rounded=0;orthogonalLoop=1;jettySize=auto;html=1;exitX=0.5;exitY=1;exitDx=0;exitDy=0;" parent="RDKpm0cOcdZf6PXUh-yV-33" source="RDKpm0cOcdZf6PXUh-yV-35" target="RDKpm0cOcdZf6PXUh-yV-37" edge="1">
          <mxGeometry relative="1" as="geometry" />
        </mxCell>
        <mxCell id="RDKpm0cOcdZf6PXUh-yV-35" value="Menerima PR" style="rounded=0;whiteSpace=wrap;html=1;strokeWidth=1;" parent="RDKpm0cOcdZf6PXUh-yV-33" vertex="1">
          <mxGeometry x="55" y="40" width="100" height="40" as="geometry" />
        </mxCell>
        <mxCell id="RDKpm0cOcdZf6PXUh-yV-36" style="edgeStyle=orthogonalEdgeStyle;rounded=0;orthogonalLoop=1;jettySize=auto;html=1;exitX=0.5;exitY=1;exitDx=0;exitDy=0;entryX=0.5;entryY=0;entryDx=0;entryDy=0;" parent="RDKpm0cOcdZf6PXUh-yV-33" source="RDKpm0cOcdZf6PXUh-yV-37" target="RDKpm0cOcdZf6PXUh-yV-38" edge="1">
          <mxGeometry relative="1" as="geometry" />
        </mxCell>
        <mxCell id="RDKpm0cOcdZf6PXUh-yV-37" value="Melakukan Approve PR" style="rounded=0;whiteSpace=wrap;html=1;strokeWidth=1;" parent="RDKpm0cOcdZf6PXUh-yV-33" vertex="1">
          <mxGeometry x="55" y="110" width="100" height="40" as="geometry" />
        </mxCell>
        <mxCell id="RDKpm0cOcdZf6PXUh-yV-38" value="Setuju?" style="rhombus;whiteSpace=wrap;html=1;strokeWidth=1;" parent="RDKpm0cOcdZf6PXUh-yV-33" vertex="1">
          <mxGeometry x="52.5" y="190" width="105" height="80" as="geometry" />
        </mxCell>
        <mxCell id="RDKpm0cOcdZf6PXUh-yV-39" value="Ya" style="text;html=1;strokeColor=none;fillColor=none;align=center;verticalAlign=middle;whiteSpace=wrap;rounded=0;" parent="RDKpm0cOcdZf6PXUh-yV-33" vertex="1">
          <mxGeometry x="155" y="210" width="40" height="20" as="geometry" />
        </mxCell>
        <mxCell id="RDKpm0cOcdZf6PXUh-yV-40" value="Tidak" style="text;html=1;strokeColor=none;fillColor=none;align=center;verticalAlign=middle;whiteSpace=wrap;rounded=0;" parent="RDKpm0cOcdZf6PXUh-yV-33" vertex="1">
          <mxGeometry x="110" y="280" width="40" height="20" as="geometry" />
        </mxCell>
        <mxCell id="RDKpm0cOcdZf6PXUh-yV-51" value="Supplier" style="swimlane;html=1;startSize=20;" parent="RDKpm0cOcdZf6PXUh-yV-2" vertex="1">
          <mxGeometry x="850" y="20" width="200" height="450" as="geometry" />
        </mxCell>
        <mxCell id="RDKpm0cOcdZf6PXUh-yV-52" style="edgeStyle=orthogonalEdgeStyle;rounded=0;orthogonalLoop=1;jettySize=auto;html=1;exitX=0.5;exitY=1;exitDx=0;exitDy=0;entryX=0.5;entryY=0;entryDx=0;entryDy=0;" parent="RDKpm0cOcdZf6PXUh-yV-51" source="RDKpm0cOcdZf6PXUh-yV-53" target="RDKpm0cOcdZf6PXUh-yV-55" edge="1">
          <mxGeometry relative="1" as="geometry" />
        </mxCell>
        <mxCell id="RDKpm0cOcdZf6PXUh-yV-53" value="Menerima PO" style="rounded=0;whiteSpace=wrap;html=1;strokeWidth=1;" parent="RDKpm0cOcdZf6PXUh-yV-51" vertex="1">
          <mxGeometry x="50" y="40" width="100" height="40" as="geometry" />
        </mxCell>
        <mxCell id="RDKpm0cOcdZf6PXUh-yV-54" style="edgeStyle=orthogonalEdgeStyle;rounded=0;orthogonalLoop=1;jettySize=auto;html=1;exitX=0.5;exitY=1;exitDx=0;exitDy=0;entryX=0.5;entryY=0;entryDx=0;entryDy=0;entryPerimeter=0;" parent="RDKpm0cOcdZf6PXUh-yV-51" source="RDKpm0cOcdZf6PXUh-yV-55" target="RDKpm0cOcdZf6PXUh-yV-56" edge="1">
          <mxGeometry relative="1" as="geometry" />
        </mxCell>
        <mxCell id="RDKpm0cOcdZf6PXUh-yV-55" value="Pengiriman Barang ke Outlet" style="rounded=0;whiteSpace=wrap;html=1;strokeWidth=1;" parent="RDKpm0cOcdZf6PXUh-yV-51" vertex="1">
          <mxGeometry x="50" y="110" width="100" height="40" as="geometry" />
        </mxCell>
        <mxCell id="RDKpm0cOcdZf6PXUh-yV-56" value="End" style="strokeWidth=1;html=1;shape=mxgraph.flowchart.start_1;whiteSpace=wrap;" parent="RDKpm0cOcdZf6PXUh-yV-51" vertex="1">
          <mxGeometry x="65" y="200" width="70" height="30" as="geometry" />
        </mxCell>
        <mxCell id="RDKpm0cOcdZf6PXUh-yV-57" style="edgeStyle=orthogonalEdgeStyle;rounded=0;orthogonalLoop=1;jettySize=auto;html=1;exitX=1;exitY=0.5;exitDx=0;exitDy=0;entryX=0;entryY=0.5;entryDx=0;entryDy=0;" parent="RDKpm0cOcdZf6PXUh-yV-2" source="RDKpm0cOcdZf6PXUh-yV-24" target="RDKpm0cOcdZf6PXUh-yV-27" edge="1">
          <mxGeometry relative="1" as="geometry">
            <Array as="points">
              <mxPoint x="240" y="330" />
              <mxPoint x="240" y="80" />
            </Array>
          </mxGeometry>
        </mxCell>
        <mxCell id="RDKpm0cOcdZf6PXUh-yV-58" style="edgeStyle=orthogonalEdgeStyle;rounded=0;orthogonalLoop=1;jettySize=auto;html=1;exitX=1;exitY=0.5;exitDx=0;exitDy=0;entryX=0;entryY=0.5;entryDx=0;entryDy=0;" parent="RDKpm0cOcdZf6PXUh-yV-2" source="RDKpm0cOcdZf6PXUh-yV-30" target="RDKpm0cOcdZf6PXUh-yV-35" edge="1">
          <mxGeometry relative="1" as="geometry">
            <Array as="points">
              <mxPoint x="460" y="250" />
              <mxPoint x="460" y="80" />
            </Array>
          </mxGeometry>
        </mxCell>
        <mxCell id="RDKpm0cOcdZf6PXUh-yV-59" style="edgeStyle=orthogonalEdgeStyle;rounded=0;orthogonalLoop=1;jettySize=auto;html=1;exitX=0.5;exitY=1;exitDx=0;exitDy=0;entryX=0.004;entryY=0.85;entryDx=0;entryDy=0;entryPerimeter=0;" parent="RDKpm0cOcdZf6PXUh-yV-2" source="RDKpm0cOcdZf6PXUh-yV-30" target="RDKpm0cOcdZf6PXUh-yV-23" edge="1">
          <mxGeometry relative="1" as="geometry">
            <mxPoint x="55" y="250" as="targetPoint" />
            <Array as="points">
              <mxPoint x="325" y="390" />
              <mxPoint x="40" y="390" />
              <mxPoint x="40" y="278" />
            </Array>
          </mxGeometry>
        </mxCell>
        <mxCell id="RDKpm0cOcdZf6PXUh-yV-60" style="edgeStyle=orthogonalEdgeStyle;rounded=0;orthogonalLoop=1;jettySize=auto;html=1;exitX=0.5;exitY=1;exitDx=0;exitDy=0;entryX=-0.004;entryY=0.675;entryDx=0;entryDy=0;entryPerimeter=0;" parent="RDKpm0cOcdZf6PXUh-yV-2" source="RDKpm0cOcdZf6PXUh-yV-38" target="RDKpm0cOcdZf6PXUh-yV-23" edge="1">
          <mxGeometry relative="1" as="geometry">
            <Array as="points">
              <mxPoint x="535" y="410" />
              <mxPoint x="30" y="410" />
              <mxPoint x="30" y="264" />
            </Array>
          </mxGeometry>
        </mxCell>
        <mxCell id="RDKpm0cOcdZf6PXUh-yV-61" style="edgeStyle=orthogonalEdgeStyle;rounded=0;orthogonalLoop=1;jettySize=auto;html=1;exitX=1;exitY=0.5;exitDx=0;exitDy=0;entryX=0;entryY=0.5;entryDx=0;entryDy=0;" parent="RDKpm0cOcdZf6PXUh-yV-2" source="RDKpm0cOcdZf6PXUh-yV-38" target="RDKpm0cOcdZf6PXUh-yV-5" edge="1">
          <mxGeometry relative="1" as="geometry">
            <Array as="points">
              <mxPoint x="670" y="250" />
              <mxPoint x="670" y="80" />
            </Array>
          </mxGeometry>
        </mxCell>
        <mxCell id="RDKpm0cOcdZf6PXUh-yV-62" style="edgeStyle=orthogonalEdgeStyle;rounded=0;orthogonalLoop=1;jettySize=auto;html=1;exitX=0;exitY=0.5;exitDx=0;exitDy=0;entryX=0;entryY=0.5;entryDx=0;entryDy=0;" parent="RDKpm0cOcdZf6PXUh-yV-2" source="RDKpm0cOcdZf6PXUh-yV-9" target="RDKpm0cOcdZf6PXUh-yV-23" edge="1">
          <mxGeometry relative="1" as="geometry">
            <Array as="points">
              <mxPoint x="660" y="270" />
              <mxPoint x="660" y="430" />
              <mxPoint x="20" y="430" />
              <mxPoint x="20" y="250" />
            </Array>
          </mxGeometry>
        </mxCell>
        <mxCell id="RDKpm0cOcdZf6PXUh-yV-66" style="edgeStyle=orthogonalEdgeStyle;rounded=0;orthogonalLoop=1;jettySize=auto;html=1;exitX=1;exitY=0.5;exitDx=0;exitDy=0;entryX=0;entryY=0.5;entryDx=0;entryDy=0;" parent="RDKpm0cOcdZf6PXUh-yV-2" source="RDKpm0cOcdZf6PXUh-yV-15" target="RDKpm0cOcdZf6PXUh-yV-53" edge="1">
          <mxGeometry relative="1" as="geometry">
            <Array as="points">
              <mxPoint x="870" y="360" />
              <mxPoint x="870" y="80" />
            </Array>
          </mxGeometry>
        </mxCell>
      </root>
    </mxGraphModel>
  </diagram>
  <diagram id="A85Ofg5YiaplEyDUyZ6x" name="Request New Menu">
    <mxGraphModel dx="1038" dy="564" grid="0" gridSize="10" guides="1" tooltips="1" connect="1" arrows="1" fold="1" page="1" pageScale="1" pageWidth="1100" pageHeight="850" background="#ffffff" math="0" shadow="0">
      <root>
        <mxCell id="9gCHpsl3mr4HMfl6XtUA-0" />
        <mxCell id="9gCHpsl3mr4HMfl6XtUA-1" parent="9gCHpsl3mr4HMfl6XtUA-0" />
        <mxCell id="oWFEww-056zEItjJFpzu-0" value="REQUEST NEW MENU BCC" style="swimlane;" parent="9gCHpsl3mr4HMfl6XtUA-1" vertex="1">
          <mxGeometry x="30" y="410" width="924" height="408" as="geometry" />
        </mxCell>
        <mxCell id="oWFEww-056zEItjJFpzu-11" value="Product Dev" style="swimlane;html=1;startSize=20;" parent="oWFEww-056zEItjJFpzu-0" vertex="1">
          <mxGeometry y="22" width="231" height="386" as="geometry" />
        </mxCell>
        <mxCell id="oWFEww-056zEItjJFpzu-12" style="edgeStyle=orthogonalEdgeStyle;rounded=0;orthogonalLoop=1;jettySize=auto;html=1;exitX=0.5;exitY=1;exitDx=0;exitDy=0;exitPerimeter=0;" parent="oWFEww-056zEItjJFpzu-11" source="oWFEww-056zEItjJFpzu-13" target="oWFEww-056zEItjJFpzu-15" edge="1">
          <mxGeometry relative="1" as="geometry" />
        </mxCell>
        <mxCell id="oWFEww-056zEItjJFpzu-13" value="Start" style="strokeWidth=1;html=1;shape=mxgraph.flowchart.start_1;whiteSpace=wrap;" parent="oWFEww-056zEItjJFpzu-11" vertex="1">
          <mxGeometry x="80.5" y="29" width="70" height="30" as="geometry" />
        </mxCell>
        <mxCell id="oWFEww-056zEItjJFpzu-14" style="edgeStyle=orthogonalEdgeStyle;rounded=0;orthogonalLoop=1;jettySize=auto;html=1;exitX=0.5;exitY=1;exitDx=0;exitDy=0;" parent="oWFEww-056zEItjJFpzu-11" source="oWFEww-056zEItjJFpzu-15" target="oWFEww-056zEItjJFpzu-17" edge="1">
          <mxGeometry relative="1" as="geometry" />
        </mxCell>
        <mxCell id="oWFEww-056zEItjJFpzu-15" value="Login" style="rounded=0;whiteSpace=wrap;html=1;strokeWidth=1;" parent="oWFEww-056zEItjJFpzu-11" vertex="1">
          <mxGeometry x="70.5" y="87" width="90" height="30" as="geometry" />
        </mxCell>
        <mxCell id="6-lgk8uKGULZld2QnyKx-24" style="edgeStyle=orthogonalEdgeStyle;rounded=0;orthogonalLoop=1;jettySize=auto;html=1;exitX=0.5;exitY=1;exitDx=0;exitDy=0;startArrow=none;startFill=0;strokeWidth=1;" parent="oWFEww-056zEItjJFpzu-11" source="oWFEww-056zEItjJFpzu-17" edge="1">
          <mxGeometry relative="1" as="geometry">
            <mxPoint x="116" y="278" as="targetPoint" />
          </mxGeometry>
        </mxCell>
        <mxCell id="oWFEww-056zEItjJFpzu-17" value="Create Request Menu&lt;br&gt;( Input nama menu, resep dll )" style="rounded=0;whiteSpace=wrap;html=1;strokeWidth=1;" parent="oWFEww-056zEItjJFpzu-11" vertex="1">
          <mxGeometry x="53" y="163" width="125" height="80" as="geometry" />
        </mxCell>
        <mxCell id="6-lgk8uKGULZld2QnyKx-37" value="Simpan dan kirim request" style="rounded=0;whiteSpace=wrap;html=1;strokeWidth=1;" parent="oWFEww-056zEItjJFpzu-11" vertex="1">
          <mxGeometry x="58.25" y="279" width="114.5" height="47" as="geometry" />
        </mxCell>
        <mxCell id="oWFEww-056zEItjJFpzu-42" style="edgeStyle=orthogonalEdgeStyle;rounded=0;orthogonalLoop=1;jettySize=auto;html=1;exitX=1;exitY=0.5;exitDx=0;exitDy=0;entryX=0;entryY=0.5;entryDx=0;entryDy=0;" parent="oWFEww-056zEItjJFpzu-0" edge="1">
          <mxGeometry relative="1" as="geometry">
            <Array as="points">
              <mxPoint x="460" y="250" />
              <mxPoint x="460" y="80" />
            </Array>
            <mxPoint x="377.5" y="250" as="sourcePoint" />
          </mxGeometry>
        </mxCell>
        <mxCell id="oWFEww-056zEItjJFpzu-45" style="edgeStyle=orthogonalEdgeStyle;rounded=0;orthogonalLoop=1;jettySize=auto;html=1;exitX=1;exitY=0.5;exitDx=0;exitDy=0;entryX=0;entryY=0.5;entryDx=0;entryDy=0;" parent="oWFEww-056zEItjJFpzu-0" edge="1">
          <mxGeometry relative="1" as="geometry">
            <Array as="points">
              <mxPoint x="670" y="250" />
              <mxPoint x="670" y="80" />
            </Array>
            <mxPoint x="587.5" y="250" as="sourcePoint" />
          </mxGeometry>
        </mxCell>
        <mxCell id="oWFEww-056zEItjJFpzu-47" style="edgeStyle=orthogonalEdgeStyle;rounded=0;orthogonalLoop=1;jettySize=auto;html=1;exitX=1;exitY=0.5;exitDx=0;exitDy=0;entryX=0;entryY=0.5;entryDx=0;entryDy=0;" parent="oWFEww-056zEItjJFpzu-0" edge="1">
          <mxGeometry relative="1" as="geometry">
            <Array as="points">
              <mxPoint x="870" y="360" />
              <mxPoint x="870" y="80" />
            </Array>
            <mxPoint x="795" y="360" as="sourcePoint" />
          </mxGeometry>
        </mxCell>
        <mxCell id="6-lgk8uKGULZld2QnyKx-8" value="Cost Control" style="swimlane;html=1;startSize=20;" parent="oWFEww-056zEItjJFpzu-0" vertex="1">
          <mxGeometry x="231" y="22" width="231" height="386" as="geometry" />
        </mxCell>
        <mxCell id="6-lgk8uKGULZld2QnyKx-28" style="edgeStyle=orthogonalEdgeStyle;rounded=0;orthogonalLoop=1;jettySize=auto;html=1;exitX=0.5;exitY=1;exitDx=0;exitDy=0;entryX=0.5;entryY=0;entryDx=0;entryDy=0;startArrow=none;startFill=0;strokeWidth=1;" parent="6-lgk8uKGULZld2QnyKx-8" target="6-lgk8uKGULZld2QnyKx-27" edge="1">
          <mxGeometry relative="1" as="geometry">
            <mxPoint x="115.5" y="72" as="sourcePoint" />
          </mxGeometry>
        </mxCell>
        <mxCell id="6-lgk8uKGULZld2QnyKx-12" value="Menerima Request New Menu" style="rounded=0;whiteSpace=wrap;html=1;strokeWidth=1;" parent="6-lgk8uKGULZld2QnyKx-8" vertex="1">
          <mxGeometry x="58.25" y="35" width="114.5" height="47" as="geometry" />
        </mxCell>
        <mxCell id="6-lgk8uKGULZld2QnyKx-27" value="Approve new menu" style="rhombus;whiteSpace=wrap;html=1;" parent="6-lgk8uKGULZld2QnyKx-8" vertex="1">
          <mxGeometry x="64" y="111" width="103" height="80" as="geometry" />
        </mxCell>
        <mxCell id="6-lgk8uKGULZld2QnyKx-42" value="Ya" style="text;html=1;strokeColor=none;fillColor=none;align=center;verticalAlign=middle;whiteSpace=wrap;rounded=0;" parent="6-lgk8uKGULZld2QnyKx-8" vertex="1">
          <mxGeometry x="164" y="131" width="40" height="20" as="geometry" />
        </mxCell>
        <mxCell id="6-lgk8uKGULZld2QnyKx-41" value="Tidak" style="text;html=1;strokeColor=none;fillColor=none;align=center;verticalAlign=middle;whiteSpace=wrap;rounded=0;" parent="6-lgk8uKGULZld2QnyKx-8" vertex="1">
          <mxGeometry x="28" y="124" width="40" height="20" as="geometry" />
        </mxCell>
        <mxCell id="6-lgk8uKGULZld2QnyKx-16" value="Finance Control" style="swimlane;html=1;startSize=20;" parent="oWFEww-056zEItjJFpzu-0" vertex="1">
          <mxGeometry x="462" y="22" width="231" height="386" as="geometry" />
        </mxCell>
        <mxCell id="6-lgk8uKGULZld2QnyKx-17" style="edgeStyle=orthogonalEdgeStyle;rounded=0;orthogonalLoop=1;jettySize=auto;html=1;exitX=0.5;exitY=1;exitDx=0;exitDy=0;exitPerimeter=0;" parent="6-lgk8uKGULZld2QnyKx-16" edge="1">
          <mxGeometry relative="1" as="geometry">
            <mxPoint x="114.5" y="100" as="targetPoint" />
          </mxGeometry>
        </mxCell>
        <mxCell id="6-lgk8uKGULZld2QnyKx-34" style="edgeStyle=orthogonalEdgeStyle;rounded=0;orthogonalLoop=1;jettySize=auto;html=1;exitX=0.5;exitY=1;exitDx=0;exitDy=0;startArrow=none;startFill=0;strokeWidth=1;" parent="6-lgk8uKGULZld2QnyKx-16" target="6-lgk8uKGULZld2QnyKx-32" edge="1">
          <mxGeometry relative="1" as="geometry">
            <mxPoint x="115.5" y="72" as="sourcePoint" />
          </mxGeometry>
        </mxCell>
        <mxCell id="6-lgk8uKGULZld2QnyKx-30" value="Menerima Request New Menu" style="rounded=0;whiteSpace=wrap;html=1;strokeWidth=1;" parent="6-lgk8uKGULZld2QnyKx-16" vertex="1">
          <mxGeometry x="58.25" y="35" width="114.5" height="47" as="geometry" />
        </mxCell>
        <mxCell id="6-lgk8uKGULZld2QnyKx-32" value="Approve new menu" style="rhombus;whiteSpace=wrap;html=1;" parent="6-lgk8uKGULZld2QnyKx-16" vertex="1">
          <mxGeometry x="64" y="111" width="103" height="80" as="geometry" />
        </mxCell>
        <mxCell id="6-lgk8uKGULZld2QnyKx-36" style="edgeStyle=orthogonalEdgeStyle;rounded=0;orthogonalLoop=1;jettySize=auto;html=1;startArrow=none;startFill=0;strokeWidth=1;entryX=0;entryY=0.5;entryDx=0;entryDy=0;" parent="6-lgk8uKGULZld2QnyKx-16" target="YB-c6LK9gJlwtqUglZOY-3" edge="1">
          <mxGeometry relative="1" as="geometry">
            <mxPoint x="286" y="62" as="targetPoint" />
            <mxPoint x="168" y="151" as="sourcePoint" />
            <Array as="points">
              <mxPoint x="209" y="151" />
              <mxPoint x="209" y="59" />
            </Array>
          </mxGeometry>
        </mxCell>
        <mxCell id="6-lgk8uKGULZld2QnyKx-43" value="Ya" style="text;html=1;strokeColor=none;fillColor=none;align=center;verticalAlign=middle;whiteSpace=wrap;rounded=0;" parent="6-lgk8uKGULZld2QnyKx-16" vertex="1">
          <mxGeometry x="165" y="121" width="40" height="20" as="geometry" />
        </mxCell>
        <mxCell id="6-lgk8uKGULZld2QnyKx-45" value="Tidak" style="text;html=1;strokeColor=none;fillColor=none;align=center;verticalAlign=middle;whiteSpace=wrap;rounded=0;" parent="6-lgk8uKGULZld2QnyKx-16" vertex="1">
          <mxGeometry x="23" y="126" width="40" height="20" as="geometry" />
        </mxCell>
        <mxCell id="6-lgk8uKGULZld2QnyKx-9" style="edgeStyle=orthogonalEdgeStyle;rounded=0;orthogonalLoop=1;jettySize=auto;html=1;exitX=1;exitY=0.5;exitDx=0;exitDy=0;entryX=0;entryY=0.5;entryDx=0;entryDy=0;" parent="oWFEww-056zEItjJFpzu-0" source="6-lgk8uKGULZld2QnyKx-37" target="6-lgk8uKGULZld2QnyKx-12" edge="1">
          <mxGeometry relative="1" as="geometry">
            <mxPoint x="145.5" y="340" as="sourcePoint" />
            <Array as="points">
              <mxPoint x="214" y="325" />
              <mxPoint x="214" y="81" />
            </Array>
          </mxGeometry>
        </mxCell>
        <mxCell id="6-lgk8uKGULZld2QnyKx-29" style="edgeStyle=orthogonalEdgeStyle;rounded=0;orthogonalLoop=1;jettySize=auto;html=1;exitX=0;exitY=0.5;exitDx=0;exitDy=0;entryX=0;entryY=0.5;entryDx=0;entryDy=0;startArrow=none;startFill=0;strokeWidth=1;" parent="oWFEww-056zEItjJFpzu-0" source="6-lgk8uKGULZld2QnyKx-27" target="oWFEww-056zEItjJFpzu-17" edge="1">
          <mxGeometry relative="1" as="geometry">
            <Array as="points">
              <mxPoint x="244" y="173" />
              <mxPoint x="244" y="359" />
              <mxPoint x="33" y="359" />
              <mxPoint x="33" y="225" />
            </Array>
          </mxGeometry>
        </mxCell>
        <mxCell id="6-lgk8uKGULZld2QnyKx-33" style="edgeStyle=orthogonalEdgeStyle;rounded=0;orthogonalLoop=1;jettySize=auto;html=1;exitX=1;exitY=0.5;exitDx=0;exitDy=0;entryX=0;entryY=0.5;entryDx=0;entryDy=0;startArrow=none;startFill=0;strokeWidth=1;" parent="oWFEww-056zEItjJFpzu-0" source="6-lgk8uKGULZld2QnyKx-27" target="6-lgk8uKGULZld2QnyKx-30" edge="1">
          <mxGeometry relative="1" as="geometry">
            <mxPoint x="376.5" y="304" as="sourcePoint" />
            <Array as="points">
              <mxPoint x="436" y="173" />
              <mxPoint x="436" y="81" />
            </Array>
          </mxGeometry>
        </mxCell>
        <mxCell id="6-lgk8uKGULZld2QnyKx-35" style="edgeStyle=orthogonalEdgeStyle;rounded=0;orthogonalLoop=1;jettySize=auto;html=1;exitX=0;exitY=0.5;exitDx=0;exitDy=0;startArrow=none;startFill=0;strokeWidth=1;" parent="oWFEww-056zEItjJFpzu-0" source="6-lgk8uKGULZld2QnyKx-32" edge="1">
          <mxGeometry relative="1" as="geometry">
            <Array as="points">
              <mxPoint x="478" y="173" />
              <mxPoint x="478" y="373" />
              <mxPoint x="24" y="373" />
              <mxPoint x="24" y="212" />
            </Array>
            <mxPoint x="53" y="212" as="targetPoint" />
          </mxGeometry>
        </mxCell>
        <mxCell id="YB-c6LK9gJlwtqUglZOY-7" value="Ya" style="text;html=1;strokeColor=none;fillColor=none;align=center;verticalAlign=middle;whiteSpace=wrap;rounded=0;" vertex="1" parent="oWFEww-056zEItjJFpzu-0">
          <mxGeometry x="811" y="239" width="40" height="20" as="geometry" />
        </mxCell>
        <mxCell id="YB-c6LK9gJlwtqUglZOY-8" value="Tidak" style="text;html=1;strokeColor=none;fillColor=none;align=center;verticalAlign=middle;whiteSpace=wrap;rounded=0;" vertex="1" parent="oWFEww-056zEItjJFpzu-0">
          <mxGeometry x="709" y="148" width="40" height="20" as="geometry" />
        </mxCell>
        <mxCell id="YB-c6LK9gJlwtqUglZOY-0" value="General Manager" style="swimlane;html=1;startSize=20;" vertex="1" parent="9gCHpsl3mr4HMfl6XtUA-1">
          <mxGeometry x="723" y="432" width="231" height="386" as="geometry" />
        </mxCell>
        <mxCell id="YB-c6LK9gJlwtqUglZOY-1" style="edgeStyle=orthogonalEdgeStyle;rounded=0;orthogonalLoop=1;jettySize=auto;html=1;exitX=0.5;exitY=1;exitDx=0;exitDy=0;exitPerimeter=0;" edge="1" parent="YB-c6LK9gJlwtqUglZOY-0">
          <mxGeometry relative="1" as="geometry">
            <mxPoint x="114.5" y="100" as="targetPoint" />
          </mxGeometry>
        </mxCell>
        <mxCell id="YB-c6LK9gJlwtqUglZOY-2" style="edgeStyle=orthogonalEdgeStyle;rounded=0;orthogonalLoop=1;jettySize=auto;html=1;exitX=0.5;exitY=1;exitDx=0;exitDy=0;startArrow=none;startFill=0;strokeWidth=1;" edge="1" parent="YB-c6LK9gJlwtqUglZOY-0" target="YB-c6LK9gJlwtqUglZOY-4">
          <mxGeometry relative="1" as="geometry">
            <mxPoint x="115.5" y="72" as="sourcePoint" />
          </mxGeometry>
        </mxCell>
        <mxCell id="YB-c6LK9gJlwtqUglZOY-3" value="Menerima Request New Menu" style="rounded=0;whiteSpace=wrap;html=1;strokeWidth=1;" vertex="1" parent="YB-c6LK9gJlwtqUglZOY-0">
          <mxGeometry x="58.25" y="35" width="114.5" height="47" as="geometry" />
        </mxCell>
        <mxCell id="YB-c6LK9gJlwtqUglZOY-4" value="Approve new menu" style="rhombus;whiteSpace=wrap;html=1;" vertex="1" parent="YB-c6LK9gJlwtqUglZOY-0">
          <mxGeometry x="64" y="111" width="103" height="80" as="geometry" />
        </mxCell>
        <mxCell id="YB-c6LK9gJlwtqUglZOY-5" value="End" style="strokeWidth=1;html=1;shape=mxgraph.flowchart.start_1;whiteSpace=wrap;" vertex="1" parent="YB-c6LK9gJlwtqUglZOY-0">
          <mxGeometry x="80.5" y="280" width="70" height="30" as="geometry" />
        </mxCell>
        <mxCell id="YB-c6LK9gJlwtqUglZOY-6" style="edgeStyle=orthogonalEdgeStyle;rounded=0;orthogonalLoop=1;jettySize=auto;html=1;exitX=0.5;exitY=1;exitDx=0;exitDy=0;startArrow=none;startFill=0;strokeWidth=1;" edge="1" parent="YB-c6LK9gJlwtqUglZOY-0" source="YB-c6LK9gJlwtqUglZOY-4" target="YB-c6LK9gJlwtqUglZOY-5">
          <mxGeometry relative="1" as="geometry">
            <mxPoint x="153" y="246" as="targetPoint" />
          </mxGeometry>
        </mxCell>
        <mxCell id="pzxGJoOWdYGC0BxVXVuM-0" style="edgeStyle=orthogonalEdgeStyle;rounded=0;orthogonalLoop=1;jettySize=auto;html=1;entryX=-0.016;entryY=0.15;entryDx=0;entryDy=0;entryPerimeter=0;" edge="1" parent="9gCHpsl3mr4HMfl6XtUA-1" source="YB-c6LK9gJlwtqUglZOY-4" target="oWFEww-056zEItjJFpzu-17">
          <mxGeometry relative="1" as="geometry">
            <mxPoint x="72" y="607" as="targetPoint" />
            <Array as="points">
              <mxPoint x="735" y="583" />
              <mxPoint x="735" y="796" />
              <mxPoint x="46" y="796" />
              <mxPoint x="46" y="607" />
            </Array>
          </mxGeometry>
        </mxCell>
      </root>
    </mxGraphModel>
  </diagram>
  <diagram id="RNOO0lvPXPQOHlN1-DYp" name="Page-4">
    <mxGraphModel dx="1102" dy="557" grid="1" gridSize="10" guides="1" tooltips="1" connect="1" arrows="1" fold="1" page="1" pageScale="1" pageWidth="850" pageHeight="1100" math="0" shadow="0">
      <root>
        <mxCell id="z-bBVBrZcgJ4eBNFWtVk-0" />
        <mxCell id="z-bBVBrZcgJ4eBNFWtVk-1" parent="z-bBVBrZcgJ4eBNFWtVk-0" />
        <mxCell id="64h2R2dLhwYQ-BaH5amo-0" value="" style="shape=image;verticalLabelPosition=bottom;labelBackgroundColor=#ffffff;verticalAlign=top;aspect=fixed;imageAspect=0;image=data:image/jpeg,/9j/4AAQSkZJRgABAQAAAQABAAD/2wBDAAMCAgICAgMCAgIDAwMDBAYEBAQEBAgGBgUGCQgKCgkICQkKDA8MCgsOCwkJDRENDg8QEBEQCgwSExIQEw8QEBD/2wBDAQMDAwQDBAgEBAgQCwkLEBAQEBAQEBAQEBAQEBAQEBAQEBAQEBAQEBAQEBAQEBAQEBAQEBAQEBAQEBAQEBAQEBD/wAARCAIJAUEDASIAAhEBAxEB/8QAHQABAQACAwEBAQAAAAAAAAAAAAcGCgQFCAMCAf/EAFcQAAAGAQICBAsDCAYGBA8AAAABAgMEBQYHEQgSEyFYdxQWFxgiMTiWtdPVFUGVIzI3UVdxgZczR2GEtMMkNEJSgrZUYpKUJUVTVnN2g4WRoaKxs8HR/8QAFgEBAQEAAAAAAAAAAAAAAAAAAAEC/8QAFREBAQAAAAAAAAAAAAAAAAAAAAH/2gAMAwEAAhEDEQA/APW3DVw1cOWTcOWleSZJoBpvbW9thNHOnz52KwH5MuS7AZW6866to1OOLWpSlKUZmZmZmZmYpHmncLHZp0q9za75IcJ3ssaN93+PfDmBVQEq807hY7NOlXubXfJDzTuFjs06Ve5td8kVUAEq807hY7NOlXubXfJDzTuFjs06Ve5td8kVUAEq807hY7NOlXubXfJDzTuFjs06Ve5td8kY5xwxvDeGvJIf2fEn9PLqmvBZatmJHNYRy6Nw+VeyFb7K9FXUZ+ifqHnSRXVtTD4lcfRphiWktlQafLhyMRxZxLsC2ZcbddauUuIjRkqLrWwW7JLLlUSjLqSA9XeadwsdmnSr3Nrvkh5p3Cx2adKvc2u+SIU5hOT6V8NGaZvhGgOmOnOQJwlKod5gUjwq2fSbaFOrWn7MimlaUczpbOO+mkuo9iM/5ZeRHTnVDR6j4f41RWZdkc1tu7YpYaUP39G/XvOrlzHCTvLbJxLbpSVKWZOkZc5KUslBdvNO4WOzTpV7m13yQ807hY7NOlXubXfJHnzCX46tD+GCsRJZXLbz9qOplDiVLJxkp5vI2I/WgkqNRf7JJMz22HM4Z9L2bjK8hzSRw8aSW6GNRL9fjjYyy8YY5tznNlNtHWr3NBkRI/0tPV1+j6gF3807hY7NOlXubXfJDzTuFjs06Ve5td8keb8wr5+D8YR6l5JiGLakYdkWU11PEySrtENX+C2vgyI6a54kL6R6K4ajWqPvyflVrWkupK8r0x0W0cquObUo6zSbDIZ0uK41Z1nQUMVvwKY69P6WQzyoLonV8ieZadlK5S3M9iAWXzTuFjs06Ve5td8kPNO4WOzTpV7m13yRCuJ883x7irxLVbAnX35eBYLMtrKqbIjO2qTsGkTY5dRnzk0ZuoLq3W0gty33Er0/qoWquN8O663TPDNQIlqnNbCPUZk94PAW2qVzpdUfgkvZxJKIyLoT6zP0kgPZPmncLHZp0q9za75IeadwsdmnSr3NrvkjzVxLHO4fvEe4xrEMdweZmmOW2m0elxpspFVGtZrjbkHozKPHMyJfTKNXRtl6St/uMcThexyRjmu1DwvvS51hC4fk3lgiRPSZOONTiYTWrJRIShezUiWk+XYi5NtjPrAeoPNO4WOzTpV7m13yQ807hY7NOlXubXfJHkPiGzNWjHGtmPEGht9xGI4lQVUptptbilsWRWDSEkhB7qPwpqF9x/w9YxDDdLXaLHanTSVh+P5hL8tbRzajJXjbr58t2hJ98n1eDv8AKk3VuKIuhXsZEWxesg91+adwsdmnSr3Nrvkh5p3Cx2adKvc2u+SPPXEXpJkTOAaUYPgeG4TpFksnUNMytYw53pq5ia1CkusOrUUSJz86mkJcT0Rbp3LmMYFimpKdSmssz+0r3KN9jWzDWLqNN2a8AmMsR4z6DNR7cpP+ilW/WSk/rAewvNO4WOzTpV7m13yQ807hY7NOlXubXfJHTaZ/leKHWd9r020QMaYUtPWlLhR31Ggz+5REpJ7evZRH948palYMt6p4h9R06OabSSoM1lzV5xMmpRk1SiOiK6pcFtULlU42RGprecyRrPYzSXrD2N5p3Cx2adKvc2u+SHmncLHZp0q9za75Ik+H4vpbrFnOqt7r9S1drJxx+EqpVkaUIcoqNdey83KjKUf+hqW5061yGlJVzt/nkbZbdijEtNtWeITIsS1UrqvMcZpsNpp2HV99y2cByK6b5SrBo3+dLzxqS0hT5qUtKeTrInN1hR/NO4WOzTpV7m13yQ807hY7NOlXubXfJHSaxZNUYJwjZZkmkuQeGVtVjEk6izYtlWJIaJJo6VMp1bhuE2RqPmNatiRsXqIhPsc0903y/XOfpdqpjdPfYziuA0T2G0V9EalQEsGTyJk1lp0jQt4lIabW4SeZCSQW6SX6QVzzTuFjs06Ve5td8kPNO4WOzTpV7m13yR4zkI1KyaVpHdaaZLOmTsOvM6n4i5JdNwreohPpSzDNatzWy4xzstr3Vukmlcx+sZFpBmtXqPS6aZ5SsyWYN7r5czmWpLZtvNpXFlnyLSfqUR7kZfrIB6q807hY7NOlXubXfJDzTuFjs06Ve5td8kTniS/TRjXdzm3/AOCMPPHD3c5ViWZ8PGhWayJNgdZUzsixm0Wj0ZFLJpz2YUZERE5HeNxrbr3b6I9+syIPZvmncLHZp0q9za75IeadwsdmnSr3NrvkiHcE2lELxFxHMZ3DnpFEbkQ5avHCLKJzIZBrcdTzONHWI2NZGaVf6Wr0fvV6hW+D+1sZ+i7dZPbkJaxy/vMdgG+e61QYVi/HjdexbkTTaEkZl/s/f6zDtvNO4WOzTpV7m13yQ807hY7NOlXubXfJFVABKvNO4WOzTpV7m13yQ807hY7NOlXubXfJFVABKvNO4WOzTpV7m13yQ807hY7NOlXubXfJFVABq2eNmVf+c1r/AN9c/wD6A6oAGwVwz33Eexw4aUs49pTptNq28IokwZMzUCfFkPxygMk246yimdS0tSdjUhLjhJMzIlqIuY6T4x8U/wCxvSr+Zdj9CDhO9ljRvu/x74cwKqAlXjHxT/sb0q/mXY/Qg8Y+Kf8AY3pV/Mux+hCqgAlXjHxT/sb0q/mXY/Qg8Y+Kf9jelX8y7H6EKqACOXL/ABGZHXrqch0D0ctILikLXGm6hzn2lKQoloM0LoTIzSpKVEe3UZEZdZDr7mk1syOxcuMh4ZtDLSe7Xu1K5U3OZb7yoLpkbkY1rx81GysyI1N78pmRbkYuYAPOuF6aZ/ptZOXOnfB9w64tYPNGw5LpcsfgvLaMyM0GtnHkqNO5Eexnt1EOHW6O5jR5IzmWO8HfD3SZAxJOWm2qMzlQJqnVGZrNT7GPocWle586VGaV7nzEY9LAA8/1eFaqUeYS9QqXhQ0Ar8pnkspd5FzKS1YSCXtz9JITj5OL5ti33Ue+xb+odX5H8r8ZvHXzLOGvxi8L8P8Atfxmc8N8J5ubpun8XefpObr5999+vcelAAQN3E9XH80b1If4V9BHMtaQTbd+rNJJ2KEEk08pSTx/pSLlMy25vUew7aP5w0S9mZRF4fdGWbmwYaiy7FvUGcmVIZaNRtNuOlQc60INazSkzMi5lbbbmLMACNuO8RTtwnIndAdHF2qIqoSZytQpxyCjqUSlMk59g83RmoiM077GZEewxW60tzjJKavxzIuDfhytKmoU6uvgTcqefjw1OHzOG02vHjS2aj61Gki3P1j0cJZr3nOUYvExHFcKns1lznWRx8fZtHYyZBV7Sm3HnnkNqPlU6TTKyb5iUglqSakqSRpMMSrcK1Tpqaqxyo4UNAINTRTPtGrgRsyktR4EvmNXTsNpx8ktObqUfOkiVuoz36x28NniAr7+flUDh40WjXdq00xPsmc/molS22t+iQ66VBzuJRzK5SUZknc9ttx97/Icw0DxiVZZPnNlqSq1soNTj0Wygw4M9U+U4TSWnpMNppg2OYyVzJikttJLM+lPlSWHZxxhvaaYLktznmCV1XkeJZDAx+2jFePPU8bw0kqjy12CIZupjmhZcx+Cc6V+iadtlmHfWlBrTdy7CfdcMehVhJtmo7Fg9KziW65LaYWa2EOqVj5m4ltalKQStySZmZbGY4OQ4FqZl0KVW5ZwlcPl1EnTSspUexzCRJbflkgkFIWlzHjJTvIRJ5z3VykRb7DiUXEFqZmWpukVVR45iTON5rSWtpbqjZMix2XFU22ZxZMdlbL7RG4SkGSm1L5vT6E0GhWTZhkGc5xrgvRvFM7n4VW0mONZBZ2VXChv2Ep199bTDLSpjL7DbSSadUvdk1qM2ySpJErmDpMdwPU3EIcSuxLhK4fKSJAmnZxWK7MJEZuPMNBo8IbS3jxEh3kM085bK2My32HNkY9rPLiX0CXww6EvRcqX0l8y5nEtTdqrkJHNKSeP7PnyJSndzm6kkXqIc+/1K1JwSdR6U1NZV6jZ7IqZly/KmSTx6GqBHWlBLcU21K2kLU4hJJS2ltSicV+SSRJGI3HGLKfq2LnAdMPtqKvBnM7fOwufADZjMvm1Ijeiw8RvJ5VcvXyLNJlzJLZQDJMPqNcNPKcsewDhp0OxmqJxT3gNPncyFH6RX5y+jaoEp5j2Lc9tz2GO2OkOW3GTrza34LeGydkTklM1dvJyZ12aqQkyNLpvqx01msjIjJW+5bF19Q6m/wCKvUbG8r1Kv1YPTWuEYlh1JkNXFZt1sWMpc5SjSSyXGNCVK9IjLpOVHRI/PNxRt5vkOvWo9RZOYrW6UUdlktZRu5RdQ05W41GiVfSrQwTUhULd6W4Taj6FTbbaTSounMtlGHCy/C9VNQrCvts+4UdAMlnVO5wJNxmUmY7E3USj6JbuPqNv0kpP0TLrIj+4fTN8U1d1MiRa/UjhZ0FyuLCcN2Kxd5rKnNsLMtjUhL2PqJJmXVuWx7Dn6KaxTtVdTcyVAtXZGJposct6OM7GQ0thM2O644ajJPOZnyp3JSlEW3VsXrtgCJ3EfiFvcVmYTY6C6QrpJ0Fda7CTqPYJa8GUjkNsklQ7JIknsRF6urYY9Zac6tZPiVHhuofDRohnMLHmG2IasnzZ+wWk0Nk30my8d5CcNJERqSlO49GgAi6W+IJEusnp4etFyk0rK41a8WoE3pITK0klTbKvsDdtJpSkjSnYjJJF9w6C2061FvqNzGLzhD4eLGmdnu2q66Xlz70Zc1wzNySbSseNBvKNSjU5tzGZnufWPQ4APPlFgepuLw2K7GeErh8qIkVqSwwxBzCRHbabkbeEISlGPESUu8qeci6l8pc2+w7RNZrmh2nfRw26IJcx5lUenWWeTCVXNKQSFIjn9gfkUmgiSZI2IyIi9Qt4APNFPo3lmNXiMqxXgx4bqK+YU45Ht63Jlx5rDi0qSpxDycd5kqMlK3Pfr3PfcjMZDgFVxFab4hW4XjujGl/gNY0aEuPamTzdeWpRqcdcNNAkjWtalLUZERGaj2IvULsACVeMfFP+xvSr+Zdj9CDxj4p/2N6VfzLsfoQqoAJV4x8U/wCxvSr+Zdj9CDxj4p/2N6VfzLsfoQqoAJV4x8U/7G9Kv5l2P0IPGPin/Y3pV/Mux+hCqgA1Yejqv+my/wDuyfmAOKADZT4TvZY0b7v8e+HMCqjzBwzcM3DfkPDdpRf3/D7prZWdlhFFMmzZmKQHn5L7kBlbjrji2jUtalGalKUZmZmZme4pXmncLHZp0q9za75ICqgJV5p3Cx2adKvc2u+SHmncLHZp0q9za75ICqgJV5p3Cx2adKvc2u+SHmncLHZp0q9za75ICqgJV5p3Cx2adKvc2u+SHmncLHZp0q9za75ICqgJV5p3Cx2adKvc2u+SHmncLHZp0q9za75ICqgJV5p3Cx2adKvc2u+SHmncLHZp0q9za75ICqgJV5p3Cx2adKvc2u+SHmncLHZp0q9za75ICqjFtRtOcf1Ox9FBfOzoyo0tmwgT4Eg2JcCYyrmZkMr2MiWlX3KJSFEZpWlSVKSeJ+adwsdmnSr3Nrvkh5p3Cx2adKvc2u+SA/kjh8rbvHrSlzjUrOcsl2MmJNZtLOdGbern4qiXGdiMRWGYjS0OES+boDNZ9TnSJ9EfqLw/10Gjso0HUnN42R3Fm1bWGWMzIqLOXIbQTaCdbKOUJbRNESCYOMbO3Xyc/pD+eadwsdmnSr3Nrvkh5p3Cx2adKvc2u+SA6rB+FDANOXcMlYbf5DXSsNfs3yebOH/4T+0HSdlokt+D9GlK3EpMijoY5CIko5U9QyzPNIIOZZHAzanzHI8OyeuiOV6LihXFN12G4olqjusy2H47qOdKVJNTRrQe/IpPMoldR5p3Cx2adKvc2u+SHmncLHZp0q9za75ID8WnDtTzotE/B1HzqtyGiiSa9OTN2TMqzlxZKiXIZeVLZeaNK1pSouRtBtmkiaNsuofhfDFpo3Efras7WtgvYY7gyY0aQg0NQHFmtTiTcQpRv8yjPnUpRGZmZpMzMx9vNO4WOzTpV7m13yQ807hY7NOlXubXfJAdTkHCjhOQfarK8uyuHDvcar8XsocZ6H0cliEreM8anI6nEvJ3UW6FJQZKPdBnsZZDqDoVR55cNZBHy3JcYslVaqKfKo3o6F2VYpXMcR7p2XSSnmNRk40TbyeZXK4nccTzTuFjs06Ve5td8kPNO4WOzTpV7m13yQHeYJo5hmm+RW2QYkzJiJtq6sq/ASWk4sWPBaU2wlpPLzF6Kz5jUpW+xerr3zkSrzTuFjs06Ve5td8kPNO4WOzTpV7m13yQFVASrzTuFjs06Ve5td8kPNO4WOzTpV7m13yQFVASrzTuFjs06Ve5td8kPNO4WOzTpV7m13yQFVASrzTuFjs06Ve5td8kPNO4WOzTpV7m13yQFVASrzTuFjs06Ve5td8kPNO4WOzTpV7m13yQFVASrzTuFjs06Ve5td8kPNO4WOzTpV7m13yQFVASrzTuFjs06Ve5td8kPNO4WOzTpV7m13yQFVASrzTuFjs06Ve5td8kPNO4WOzTpV7m13yQGtYA+vhcr/pLv/bMAGydwneyxo33f498OYFVEq4TvZY0b7v8e+HMCqgAAAAAAAAAAAAAAAAAAAAAAAAAks/We9zC0lY3oJi8bKnYTzkWwyOfKONQV77auVxnpkpU5LfSZKI22EKSlSTS460YJ0Vy3KPy+rGteU23SFs5V426rHKxH6yR4Mrw0y69j6SWsjIi6i69wplte0lBG8MvbiDWx/8AysuQhlH/AGlGRDBbDiV4cqlZtWuv+m8NZdRpkZVAbMv4KdIfyp4bdAqWSU+NpBikieX/AIwn1rc2Yr98h8luq/ioxntdT1FQ2TNTVQ4TZFsSI7CWyIv3JIgE/h8T3DVYuE1X8Q2mcpZ9RJZy2Asz/gTozeiyrF8oaORjWSVds0RbmuDMbfSRfr3QZjmzK+BYtGxYQo8ls+o0PNJWk/4GQwW84edB8kf8LutHMNkSy60TCpY7cls/1oeQknEH/alRGAoQCTK0ElY8RPaVauZvii29zRClWSr2tWf+6tiwN1xCP+qw6yf6jItyPjO6uZ1pavk1/wAbrmaFJHvm2PG4qqZLqIjnRnDU/AIz39PmfYSRbreRvsAsQD5sPsSmG5UV5t5l5BONuNqJSVpMtyURl1GRl17j6AAAAAAAAAAAAAAAAAAAAAAAADVXAAAbKfCd7LGjfd/j3w5gVUSrhO9ljRvu/wAe+HMCqgAAAAAAAAAAAAAAAAAAAAAmGvabS5pcc04rLRysbz6/boLCaxLKNJZgFFky5SWFkolE64zDcZI0brR0prLbk5ip4wvVvAZmoWJeAUls3UZDVS2Legs3GjdRDsWFczS1oIyNbSiNTbiNyNTbjiSMjMjIMloKCkxakg43jdVFrKqsYRFhw4rRNssMoLZKEJLqIiIvUOeJrp3rRCySyawTPKzxO1CaaWt/HprxH4WhvqXJr3epMyN95LR6SCMidQ2r0RSgEn18udQqiNQqxaRlddj7spwsht8SqI1pcQGyQXQqaiPtP9K0pZmTnRR33SLblQRcy04XhuqGrEvJNO6mLdVGV0Vk7fs2VhIJyrtH2oiUdAUmC5CR0E1O+zrW8dHOZnyoTskq/nenqMzcg2Ndlt7it3WE63EuKU4xyG2XeXpWTRKZfYcQvkQZktpRkaEmk0mW4xuLw/Y3GbpzXlOSyJddJsJdhNfejKeu1zmujleFfkeVJKIkGRR0scnRpJHKndJhOKrjIVZJySNFxrDLizpo0SUxBxvPGbdaOnnIiFHnqajkmJJSpxJmhBvoPZRE4e250LSrMNWL/UbPKHUKlx+vg0pVRQmqu4cndC89ES483zLhxzUjmMzJajMz/wB1JDg1XDFjcGNGjWefZldeBQYtXFVOfhJ6CHGlsyWGUpZjNo2QthKec0m4pKlEtSjJBpz+oweLS5vf5vFurJS8jZityq9zoTiocYQaEvN7Nk6S1IMkqI3DRskjJJHuZhko/DzTUhpbD7SHG3EmhaFpI0qSZbGRkfrIyH7GC6jawYtp24xSrRJvcrsmlu1OL1JJes7Hl6jUhszIm2iPYlPuGhpG/pLLqAY9o1SJ05zPNNHKhbfixTtV1/j8bwglqrY1gqUhcFKOY1IYbehPLaIyJKUPE2j0Wtk1sTvR7CMnoWbrNNRXoTuZ5jKRMtEQlKXGgMNo5IsBlStjWhlvfdwyLpHHHnNkkskpogAAAAAAAAAAAAAAAAAAAAAAAA1VwAAGynwneyxo33f498OYFVEq4TvZY0b7v8e+HMCqgAAAAAAAAAAAAAAAAAAAAAAADH81wDCtR6f7BzrGK+7gk4l5tqYySzadSe6XG1fnNuJPYyWgyUR9ZGQwVOkOo+Jfot1xuI8RBfkqjL4hZBDb/sS+pbU/9RenKWRbFsXr3rQAJR4xcTNLsix0wwTJWy9cmpyiRBeV+6NIiKQn/vB//sfvytaoxkmU3hczx5Res665x51J/uN6xaP/AOQqgAItiXENl+oGKU2aYbwzaiyKjIK+PaVsqbY4/HQ9FfbS405ylZLcTzIUk9lIJRb7GRH1Ds/GziRtzNup0axKkbUX9Pe5gtbiP/YRIjiV/u6ZP7x/eE72WNG+7/HvhzAqoCTK011mywiLUDXNythr36SuwioRVktP+4uXJXJkf8bKmFdX3FuR5dgeleAaZsym8LxqPBfsFk7PnLWuRNnOEWxLkynVKefXsRFzOLUf9oysAAAAAAAAAAAAAAAAAAAAAAAAAAAAaq4AADZT4TvZY0b7v8e+HMCqiVcJ3ssaN93+PfDmBVQAAAAAAAAAAAAAAAAAAAAAAAAAAAAAAEq4TvZY0b7v8e+HMCqiVcJ3ssaN93+PfDmBVQAAAAAAAAAAAAAAAAAAAAAAAAAAAAAAGquAAA2U+E72WNG+7/HvhzAqolXCd7LGjfd/j3w5gVUAAAAAAAAAAAAAAAAAAAAAATTLdZ51Bn8zTnGtH81zSyrqeDdznaR6oZYjMTHpbLCVKnzoylLNUGQZkhKiIiTufXsOL5ZNReydqr+JYr9ZAVUBKvLJqL2TtVfxLFfrIeWTUXsnaq/iWK/WQFVEx144hcC4cKKny3U1i4Yx60s0VT9tCheEsVri21rQ5JSlXSk2rozSSkIWfMaSMi3IfDyyai9k7VX8SxX6yMI1smZHrlpTk+k+VcJeqn2fkkBcQ3fD8VUqO91KZfSR3OxqbdShxO/VugtwHUcAnELgWrmjWKaeYKxcTXdO8Kxytu7RyF0MBM/wJLbkRpa1Etx1tTK+YyRyEXKZLPmLf1GPIXCFiuYcLOh1NpbE4V9TZtkhbk+7sGZ+LJTNnu7c6y3uSPlSlLbSTMiM0NJMy33Fo8smovZO1V/EsV+sgKqAlXlk1F7J2qv4liv1kPLJqL2TtVfxLFfrICqgJV5ZNReydqr+JYr9ZCv10tvG/GMSy3QnUDEvG2weq66xtJFG9F8KbhSZptrKFYvup3Zhv7H0Zp5iIjMtwFVAAAAAAAAAAAAAAAAAAAAAAAaq4AADZT4TvZY0b7v8e+HMCqiVcJ3ssaN93+PfDmBVQAAAAAAAAAAAAAAAAAAAAEqxz2p9Q+7/AA34jkYqolWOe1PqH3f4b8RyMVUAAAAAEr09/Tpq3/7h/wAGsTiBq3qRDu4OYLy5dyze5BkdF4mlDipbgt1yJSmnGXG2/CDd3it9J0rq0H4SXKlv0QHpsB5EkZ9n6INazcapsZhHvsdocmVFl1FapuE/JuYiDS0ltkt2SQtaWuk53Emg1G4tREpOXafZbqrIzbGLy/1Kl2VVkuSZLQuUK62E3EjsRHJRxnW3G2UyOmSUYkK5nVIUSvzCUXMYejQAAASrWT9IuhPeBM/5VvhVRKtZP0i6E94Ez/lW+AVUAAAAAAAAAAAAAAAAAAAAAABqrgAANlPhO9ljRvu/x74cwKqJVwneyxo33f498OYFVAAAAAAAAAAAAAAAAAAAAASrHPan1D7v8N+I5GKqJVlGmmqflTtNTNM9RsUpPtvH6uimwr3E5Nr/AKjJnvNutOM2MXk5vtFaVJUlX9GkyMtzIPFzin/bJpV/LSx+ugKqAlXi5xT/ALZNKv5aWP10PFzin/bJpV/LSx+ugMgyTRHRfMskbzLL9IsKvL9noujtbKgiSZiOjPdvZ5xs1lyn1p2Pq+4drH0/weBktjm9XiFJAye1YKNMvI1awiwfbIi5UuP8nOsi5U7EozL0S6uoYV4ucU/7ZNKv5aWP10PFzin/AGyaVfy0sfroD56Z8NeCacSrWe7JeyWXbrJx52zqqqMhKumJ81ExXw4zCnFPJS4p1banTUhJ8/okRUZjGMbiqiqi49WMnCkPS4ptxG0mw+9zdK6jYvRWvpF8yi2NXOrffcxEtJ7fin1Q0sw3UzyoaVVnjbj9de+BeTuxe8F8KjNvdF0n24nn5ek5eblTvtvsW+wyvxc4p/2yaVfy0sfroCqgJV4ucU/7ZNKv5aWP10PFzin/AGyaVfy0sfroCqiVayfpF0J7wJn/ACrfB4ucU/7ZNKv5aWP10cRGl+tF/m+E5LqNqnhVjW4XcSLtqDSYTLrn5L7lZNgJSp960kpSgkzlrMiaMzNCS3LrAWAAAAAAAAAAAAAAAAAAAAAAABqrgAANlPhO9ljRvu/x74cwKqJVwneyxo33f498OYFVAAAAAAAAAAAAAAAAAAAAAAAAAAAAAAASrhO9ljRvu/x74cwKqJVwneyxo33f498OYFVAAAAAAAAAAAAAAAAAAAAAAAAAAAAAAAaq4AADZT4TvZY0b7v8e+HMCqiVcJ3ssaN93+PfDmBVQAAAAAAAAAAAAAAAAAAAAAAAAAAAAAAEq4TvZY0b7v8AHvhzAqolXCd7LGjfd/j3w5gVUAAAAAAAAAAAAAAAAAAAAAAAAAAAAAABqrgAANlPhO9ljRvu/wAe+HMCqiVcJ3ssaN93+PfDmBVQAAAAAAAAAAAAAAAAAAEk8vV3Pub2rxHh+1FyeNQWj1RIsa+VQMx3JDXLzk2mXZsumRcxdam07/cPt5ZNReydqr+JYr9ZAVUBKvLJqL2TtVfxLFfrIeWTUXsnaq/iWK/WQFVASryyai9k7VX8SxX6yHlk1F7J2qv4liv1kBVRMdeOIXAuHCip8t1NYuGMetLNFU/bQoXhLFa4tta0OSUpV0pNq6M0kpCFnzGkjItyHw8smovZO1V/EsV+sjCNbJmR65aU5PpPlXCXqp9n5JAXEN3w/FVKjvdSmX0kdzsam3UocTv1boLcB1HAJxC4Fq5o1imnmCsXE13TvCscrbu0chdDATP8CS25EaWtRLcdbUyvmMkchFymSz5i39RjyFwhYrmHCzodTaWxOFfU2bZIW5Pu7BmfiyUzZ7u3Ost7kj5UpS20kzIjNDSTMt9xaPLJqL2TtVfxLFfrICqgJV5ZNReydqr+JYr9ZDyyai9k7VX8SxX6yAqoCVeWTUXsnaq/iWK/WQ8smovZO1V/EsV+sgKqAlXlk1F7J2qv4liv1kdffcQ+R4pWLvcs4aNUKmpYcaRJnPTMbdRHJxxLZLUhm2W4ZEpZb8iFHt9xgLKAAAAAAAAAAAAAAAAAAADVXAAAbKfCd7LGjfd/j3w5gVUSrhO9ljRvu/x74cwKqAAAAAAAAAAAAAAAAACVaBf1jd4Fx/lCqiVaBf1jd4Fx/lCqgAAAAAAAAAAAAAAAAAAAAAlXFH+grJv7l/jGRVRKuKP9BWTf3L/GMgKqAAAAAAAAAAAAAAAAAAADVXAAAbKfCd7LGjfd/j3w5gVUSrhO9ljRvu/x74cwKqAAAAAAAAAAAAAAAAACF4DmETT/AAjWPNp0R6UxSZjfTVR2f6R7kS2ZNp/tUexEf9o76ryLW/EmHcl1RZxe4oVVsixktY7Xuw5NIbTSneiWuRLcTPJREbZOIRHMlpSZt8qz6LqtMMXp83xfVzD8gYU7W3OaXsGUhKuVRtuJbSfKf3GW+5H9xkRjnsaTaqWsCVSZ5rNGtKtuql1lezW4+uvccN5lTJP2CzlOplrQhW5JbRHbNZqUaPzCQHHl8TNVEo4F0eludPKlVy72TCYZr3JNfTErZNi+kpextLLdSWmjckGRK/IkZGRd3kmuFfjlvXxzwLLrCjmvQY7mSRYsdFbGcmKSmOR9M+2+6SlONkamGXUpNZEo0mSiLDNVOFCl1Idx+eo8Kk2FTSN4+8/lOEx8gQUZGxk9EbfdSmLII+YyWrpWzIyJba+Uhwsr4Qq/JtREZsq5xjkjP08qC9Nw9iTcVyq9TPLHiT+lSmNEcS0rmYaYSZLecUSyIzQYdpivEnbzsSYsLrSjJpeSzri6hwMeqfs85UmJAkrbXJI3JpMJShPRpXzvJUpwzJCDI075BqfrKik4fLHWnBZ1chr7Nj2EGVdRnCjNNuuNp6SQ1ztLIkJWZqSa0GXKe5kMNy/hLYyumiQ7Gywm5mVFxcT6osowlNzXtRrF83nG3ojkpPSPIWfoPoca2ItjQZGojoFro1Dm6JsaMwLZiBHjwokNEtiqjsNp6FxtZmmLHJplslGgy5EElKd+ourrCf4BxGpcsL1+/wBXtONRsapqRy2mXuB17jbNY4hxKUxX0lOmpW46SjU2kloV+TV6JkZGWWt8RVSiomOWmnWY1eSRZsOA1ikpuCdnLdlEpUfoVtylRFJWlDh8xyCJHRL5zQadhyNQdB6nPbHIlO3CoVVmNGumyGuKMTyJq07eDSiJaujS42XMhXM2snEGlKupCRhuLcKjuJ44+ihuMExzJm7aHcV0vFNP49NVsPx0KbST8Jt9T0knEOvJc5pRdS/yfRbdYZ/ieuGN5bZxaZmhv66bIetY6mJ8ZptTLteppEhK+VxX+08nlNPMSiIz322M+hc4n8O8FrbSDiWVz6uRWQ7i2sI0eMbVBElHswuYlT5OK5tlmZR0PmlKDUskpMjPoMZ0O1RbIrt/O4VTksPI715yY9TIlRrCvsFoNw22G5CDjr/JoNo1OLNHLs4l3c9+ml8EtA/IxqQudhdo/V01bS2U/IsCh3E9aIR+g7AefcNMJxZKWSyW3IR+aaUpURmoKLb66SCYylWM6ZZZZs0EaxTFtkNwjr5s6GhRuRk7ykvNmS0KTzvoZbUaTJLh7p34uS6sZ3H4c67VKkxyHAyq0g1bjVdbIJxhqRLeZb2WmO8rdP5UzIkume22577kPkXD9Mk6i3eb2mRY8abKLKiMyK/F24Ny4y8ybSWJ09t7lmsNEozabNhsyNDRqUtSTUrIV6WWthpDSaZ3eURHptUirQ7ZRaxTLT/gT7LhGmOp5Zo5iZJJ7uq2MzPr/NAYfaa/3c240qZxCFVqr8uVHfyFUxtxTkNh9C0tttcq0kh3pm3SM1kotmVly7mRlyn+KzCIVXbZDZYjl8Slh00u/q7JUOO4zfwYyiJ9yElp9ThGnnbMkPoZWslpNBKLcy/VLw2xqe9sLpWYyJfheXNZFHaehJIocNtLxprmzSoj5CdlSXCWfWRumXLsRbYdj/BPj+ON38Gpl4TWxp9RKqIEuswKHFt+R9aVG5PsCcN2YtJJJJdH4OStzNwnFbGQUqi18pbWaqotsKynHrNN1DpTg2bMU3N5TK3Y8jmYkONmypLa/UrpEmWykJMY9rtl1bmXD9mk2sYktIr7Mqp0n0pSZvRrJppak8qj9E1JMyM9j29ZF6h3OZ6J219cWmUY7mrFTcvz6izrnJNUcuPGfgodRs80Tzanm3EvLIyStpRdRkoYfqbgE7TnhmzGms8mXfS51w5cPzFRSj+nLtUPm2lBKVslBr5U9ZnypLczPczD0OAAAAAAAAAAAAAAAAAAADVXAAAbKfCd7LGjfd/j3w5gVUSrhO9ljRvu/wAe+HMCqgAAAAAAAAAAAAAAAAAlWgX9Y3eBcf5Q77Va0nR62kx6umyYTuT3caoXKjqUh1lhRLdeNC09aFKbZWhKyMjSayMjIyIdDoF/WN3gXH+UM3zXFiy6lKvanHBmxZLM+BMJvpPBpTKyW2s0blzp3LlUncuZKlFuW+5BjGpVpZVmaaZRIFjKjsTb6UzKabeUlMhtNZLWSHCI/TSS0JVsrfrSR+shGV8RWudLhZ5vdwcGmt3WFWeTU0GPDlRVRJENbCSbkvKkOE826T/NulDRt7bflNuYelrTGaW8m1NnbwykS6OQuXBcJxaCaeWytlStkq2Vu26stlbl6W/rIjGD5tw/4JlmAO4HDgN17SKGXjkF1w3ZKY0OT0fSoNtbhE6SuiRvzmZ9XUZbnuGMRNXtSKPMGcAzA8XsLNy5p0KlVcJ+OymBYNyjJvo3H3FdM2uIouk5uRaVEro0H6JcCvzzUfMdXMJXBySpr6Nm6y2rsK9qE+54c1CcS00ZrKSlBLIi33U2siVzGRFvsWfFw/aWHjczF3aazejz5jM96W7fWC7FMhn+hW3OU+cpnoy6mybdSTaTNKSSRmQ5dNolppjv2KdFQyIB4/YzbaCbFpLQZSpZqOSt0yd/Lk6palKQ7zpNWytuYiMgwDVHVnV3GsxyprFWsSRjmF19LZS0WEKS9MsClvvIfZbcbfQiOaUNJUlxSHSM1GRo/wBocSdr/lcXXCuwqNNqZ9DPvXqBUaJiVyvwdaIrrvSqvFctep0ltcqoiUGpO5l0hmkyFfuNOcNv3Lp22punVkUaNEsj8IdT07UdSlNJ9FRcvKa1HunYz369+odGjQTSxGXKzj7AmLtftP7aaJy4mrixp5tqbXIYiqeOOw4tDiyWpptJuc6ufm3MBGo2t/EXY09dcxnNOozVzh8/LWUO085xURMFbRLYVtLInunS6RpWRt9AZdaZH3dnmHEnllTmVHGpX6hytfkUcewq2sUubFwjsFNErpbhnkgV7iCeSpLLqXVLSSD3R0qSKyMaS6fRoMOtYx/ljQKaTj8dHhb58lfI5OmZ3Ne583Ro9I91Ft1GW5jFsi0d0DhXzd1kqG4EtbDEtMaRksuNFcKuJpTcs4nTpYW6wltreQbZuJQkiUvl6gHI1YzLUaoyfH8P06ex2JIua61nPTbmA/Mbj+CJZUjZlp9k1ko3DSZc5bcxK39E0ql7PEtqhRYXIy3L6THpbtti1PkNPCpa+a8uE5OkpjdA8RLW7O5VLS4RstNLURG2lBqMlHfHoeC5PZIyc5UGfKomZUA5LM3dMVD6G1vNrJCuUjNCWlekW5FsZbEfX1cXSjSyxoI8OJRRplS9QMUUc0y3XW11iD52UoXznvsZkpLpHz77GSuojAR2g1x12yY6XFa2tp4drZ5JJpyyC8wa6posiGmtclpktVc11qRzJcSTCk+EKSrZSyWnfkLuabiAzWRh9ndW1fQtTarA5mRPG026TCp8aTIYVtzObkwo45KJJnzFzbc5+sUnFtFdOMOchyKWmmLmQp7toidYW8yfMdlOMGwp16TJdcdfPoT6MulUokpJJJIiSW3W5Bw46OZRAi1dzijzkSLEl1/Qs201hEiJKWpb8eQTTyfCWVLWpXRvc6EqPdJEYDPaWY7Y08GwfSlLkqM08skEZJJSkEZ7b/d1ib8Uf6Csm/uX+MZGe0uPFS2E+SzYSXIspEduPEW64tqKhpvk2QSlGRGr1nykkj2IzIz3UeBcUf6Csm/uX+MZAVUAAAAAAAAAAAAAAAAAAAGquAAA2U+E72WNG+7/AB74cwKqJVwneyxo33f498OYFVAAAAAAAAAAAAAAAAABKtAv6xu8C4/yhVRKtAv6xu8C4/yhVQAAABiGsM6bWaTZnZVsx+JLi0Fg8w+w4bbjTiY6zStKk7GlRGRGRl1kZDyhrdZ5ngB0GPxNQV1VeeLs2FJaZDqVc1ciVkDry1Om2TMeYu3cI+h5a5e7fKvlQ0pKtke3gAeVYGY27Ous2uZzNV9lLkaUaKqFl81uRCNMLmS3Kxt9pMdMMnEkabBBpdW44ynblWohKsU1G1Bc08zKyTqg2iSxj8J+++xs6tMjsK64VPZS4tbUmE01UvERyEKr0L5eoiJnlSZn7/HW5FjlNllQ9Q5BD8KgyFNrca6RaOY23EuI9JBkZbKQk/X93X1AJbw+XNZZzs0YwnMrHLMJiz4xU9tMunbdDkhTBHMaZmOrcW62hzl3TzqJtanEFsSeRPne0tKm7U9Nn5zb2+ctY1m7eWVcq1elN1EroCJDPg6vycEuRBE2htLZOoLpNnP6Qe7AASLh2/1fN/8A1kR8Mgjv9FvyeK2EOP8A6hCyC3i1xF+amKia6lCE/wDVTsaUl6iJJEXUQzt1tLzS2VmokrSaTNCzSrYy+4y2Mj/tI9xxaWmrMdqYdFSxExYMBlLEdlJmZIQktiLc9zM/1mZmZn1mZmA5oAAAJVxR/oKyb+5f4xkVUSrij/QVk39y/wAYyAqoAAAAAAAAAAAAAAAAAAANVcAABsp8J3ssaN93+PfDmBVRKuE72WNG+7/HvhzAqoAAAAAAAAAAAAAAAAAJVoF/WN3gXH+UKqILiN5qbplc5vVr4d86yKNa5ZPt4VjT2OPlHfjvcnIZJlWbLqT9E9yU2X8Rkvlk1F7J2qv4liv1kBVQEq8smovZO1V/EsV+sh5ZNReydqr+JYr9ZAVUBKvLJqL2TtVfxLFfrIeWTUXsnaq/iWK/WQFVASryyai9k7VX8SxX6yHlk1F7J2qv4liv1kBVQEUxPiNyjOcVps1xbhc1Vm0uQV8e0rpPhuMN9PFfbS405yLuErTzIWk9lESi32MiPqHbeWTUXsnaq/iWK/WQFVASryyai9k7VX8SxX6yHlk1F7J2qv4liv1kBVQEq8smovZO1V/EsV+sh5ZNReydqr+JYr9ZAVUSrij/AEFZN/cv8YyHlk1F7J2qv4liv1kYfq3lOqupuAWWDVXDDqLXSbVyKhMuws8aKOwSZLa1Lc6K2cc2JKD/ADUKP9RGA9CgAAAAAAAAAAAAAAAAAAA1VwAAGynwneyxo33f498OYFVEq4TvZY0b7v8AHvhzAqoAAAAAAAAAAAAAAAAAAAAAAAAAAAAAACVcJ3ssaN93+PfDmBVRKuE72WNG+7/HvhzAqoAAAAAAAAAAAAAAAAAAAAAAAAAAAAAADVXAAAbKfCd7LGjfd/j3w5gVUSrhO9ljRvu/x74cwKqAAAAAAAAAAAAAAAAAAAAAAAAAAAAACY68cQuBcOFFT5bqaxcMY9aWaKp+2hQvCWK1xba1ockpSrpSbV0ZpJSELPmNJGRbkA+HCd7LGjfd/j3w5gVUeXOATiFwLVzRrFNPMFYuJruneFY5W3do5C6GAmf4EltyI0taiW462plfMZI5CLlMlnzFv6jAAAAAAAAAAAAAAAAAAAAAAAAAAAAAAAaq4AADZT4TvZY0b7v8e+HMCqiVcJ3ssaN93+PfDmBVQAAAAAAAAAAAAAAAAAAAAAAAAABMLvXugO3lYtptjtzqJfQneglxqBDZxILv3plTnloisqL1m30indiPZtR7EYU8YRrZpPjuuWlOT6T5Ugvs/JIC4hu8hKVHe6lMvpI+o1NupQ4nfq3QW4x4o3FDk35R6107wOOvr6BmHLyKUSfuLplLhtIX+v8AJOpLrIjV+cP2Wk+rEr0rDiizSOs/WVVRULKC/cUiC+f/AMVGA6zhC4cKrhZ0OptLYkmPNskLcn3dgyg0pmz3dudZb7HypSltpJmRGaGkmZb7i0CVeSXVSN6UHilzt9ReorGlx51H8SZrmT/+oh+VVfE/jpdJAy7T3NWk9aYtlUyqOQv+w5bLslvr/WUUtv7QFXASdjX+Jj0lqu1nwm407edcSy3ZT1NyqR9xRkSSTYsGbbW5nsRSSYUZkeyT6t6s24h1CXWlpWhZEpKknuRkfqMjAfoAAAAAAAAAAAAAAAAAAAAAAAAAAaq4AADZT4TvZY0b7v8AHvhzAqolXCd7LGjfd/j3w5gVUAAAAAAAAAAAAAAAAAAAAAAAAR/LnLTWDUSy0ih2EysxDGo0Z7LJUJ42ZFnIkJNbVU26gyWy2TJJdfUkyUpLzKEqIlOCn49jtBiVJCxrFqWDUVNc0TESDBYSyww2XqShCSJKS/sIhC9HtQI8Tic1102tYy4ip+SV1nTS3dibsHEY3Tplx2z363GUeDOGn18sjmLckr5fQoAAAAAAAPlKixZ0V6DOjNSI8htTTzLqCWhxCi2UlST6jIyMyMj6jIRqHVp4d8ux+ix0lI0zy2eVQzWKUZt4zZrSo45RjM90w5Ckm10H5rTy2uj5ULUlNqHn/iu1Jbx09PcDqoaLC2vs+xJ2Y2TTb32dWJvoKVzHCXuSEqeUwwhW3Nzvbo60KUkPQAAAAAAAAAAAAAAAAAAAAAAAAAAA1VwAAGynwneyxo33f498OYFVEq4TvZY0b7v8e+HMCqgAAAAAAAAAAAAAAAAAAAAAAACD4tgONajZTrtRZLGeNLWo0GXDlxnlMS4EpGK0XRyYzyDJbTqdz2Uk/UZke6VGR9wzba8aXNph5BQq1WomCJKLaoOPCvm0F98mG4puNJMvWbjDjSj29Fgz9fL0b/SLrt3gQ/8AlWhFVAS2DxOaHuyW669zuNidk4fImvyxh2hlKX96UtzktG4fr60cxGRbkZl1ig1WR49etE/SXtdYNqLclxZSHUn/ABSZjlTIUOxjOQrCIzKjulstp5sloUX6jSfUYwG04ceHm8dN+70G07sHFHua5WLwXVH/ABU0YDObC3qalo37W0iQm0lua5D6W0kX71GQn9txK6EVMtVYjU+lt7NBbnV0Liriw/s/0WETrx7/AHeh1/cP1X8MvDdUuk9V8PumsNxPWS4+KQG1F/FLRDPqqnqKKImvpKqHXxUfmsRWEtNl+5KSIgEuXm+tOom8TTvT9eE1jnoqyLMmy8I5D9ao1W0s3FK6+o5K2NjLrbWXUeLaoaY02nWmEN5qwn3d9b6hYC9c39o4lyfZupyirJJuKSlKUISRmSGm0oabIzJCS3Pf0MJVxLfo6qO8DBP+aqsBVQAAAAAAAAAAAAAAAAAAAAAAAAABqrgAANlPhO9ljRvu/wAe+HMCqiVcJ3ssaN93+PfDmBVQAAAAAAAAAAAAAAAAAAAAAAAB5m8qkjTLO9Vo9ZVV861yjVWDTVqbS0KtgJkKxGkcIn5XRuqbJRNmlBIacUtxSEknrMyz6PrdOqIbR6l423ikyPLmRbBCnpMqOtEeGqUp+C8mKnwtro0+tSGTI0rTsa0khWENY7k+SZNrlAx6qxm+juagMNWeO5IXLXXEZeJ0KTaddJh9TXKeyyPoXCVsaTT6RKT1ieGzMV4edPBjYhjaXpdxKYx6pfeOqpm5VU5DbjxVdAjmSbqumWZMslu44ZIM/wA6pVFj8U2jUqxKqaymxKSb0ZpSXMdsW0oRIPljyVrVHJKIrqvRRKUZMLURpS4ZkZDt67XvTS1yxWEwsleVZolSYCjXVym4pS45GbsY5Smij9MSUqX0XSc5oLnJJp9IYjkWi2S2qciRCm1LabWkx2sjpU44kkOV8px101bIPZJpWRI23MzI9ySXWMbxDTvVe7u5UObEqaPGK7OrfJY05xb32m+90r6GG/BVsE0bJm4TxSOnM1JIkE3t+UFRQYfE1pDMg3tp40zYkHHa5dvMmT6KfDjuQEKNKpUZ15hKJbBGX9LHNxGyknvspJnkmC6q4nqQmy8VLCa45UPpjzWJ1VKr32VKSS0KNqU02s0LSZKS4STQoutJmPPVRwy6sSIF4rKrmvk2dvicvHn3pmZXF0iVKceZWUskTG+SGhzkXzR46CQj0SI3C25L5jWIWNLnmV5RIeiqiXjFa1GQ2pRuIOO24lfORpIiIzWW2xn9++wDrsb13xa1pzsr2Y3TutlZPyGlGt9uLFhyXmTkPupQSGUL6BRpNzl5jJSUmo0mML1R1PxLU7S+JLxabOWqBqJgLUqLY1UqsmRzVlFWpBuRpbTTyEqSZKSo0ESi60mZDqGuGK+YwzJcOjX0OOxmzFsi7MpUlZpkOzXpEOQ0v0VkaUu9EtCVN7J5ejUXRp36Kx0tyHANPZFxlVZDg2NzqDp010TOY3WTOdExk9aRGubaKJe3M4s0toZQSCPrU4Z7lCPXAAAjQAAAAAAAAAAAAAAAAAAAAAAA1VwAAGynwneyxo33f498OYFVEq4TvZY0b7v8e+HMCqgAAAAAAAAAAAAAAAAAAAAAAACT6QqSjP8AXpaz2SnPYhmf6i8VaEYBXa86h3mYY9fIxBmFhNtjl9c17TVvFces24xxfB1yDeQ0mGs0rdUSUvLb5VbuLIyJJUXTRyshapayY8azbtZ1/XZAqM45zG7CepIENqQguUuVtTtdKa23UfMwszMiUSS6B/hTxGamVDssqy6ZVrrbKnr6tycwmLVw5xtm61HJDKVK5VNINCnlOqQW6SPk9EWJU8TxSZrnOLzHdP42nkq3qcmx6DJkY/nBXVW7EnSUIU34WmCXK91KQtHReglZLSsz2IZQriade1Sn6Vrh4axKJuyajtwc0jz7yI9GYNwnJtY2zyxmlklRpV061dbZLQg1mlGUFw5QnodkVpqJmVla2i6p524kuQCkodrnzejLQ2iKmOnYzJKkk1yGRb8vMalKVPDbSVNq1PTmeVyYUKfY2FfVvPxCiQVzkPFJSjkjpcWSlPrWRurcUk9iSpKTUlVRh2EcRGaMYBAt9RsKgQZkvDWcogS5OQx47ctpCWUyXJ6ltts1/Ip5DiuRTySbUZpM1J6McOLxgNTMDlZUxC06U5CyD7CftSz9J4o3/oyX0uquShny8xLJoknHLd70N/8AaGVxOEzEo+NFjUjMMvnIg1kOoo5kuVEck0caM6y80UZXg5JcV00dlxSpKXjUaCSe6C5B28fQCTAh2CqnV/UCBdWs9FlNu2pNeuS+8UZEdXMy5EVENCkNoPl6DZCi3bJsBgmpPGPjemtxBpLyLisKY3TQby3h2uYxoUvoJKlpS3WN8i02TqejcMyJbSTLk5VGpXKVA4jHUP6Y0T7SuZDmeYEtJ/rI8pqzIfiRw70zKq5OLZll2KsRa+LVTmaWcwz9qRI6lKabecW0t1pRGtz8pGWy4ZLMufYkkX34gH4C8cw7FH0OvTrzO8XRAjtvEhxxcK0j2LqtzSrmS2xBfdUW25pbUW6d+YpVirAACKAAAAAAAAAAAAAAAAAAAAAAANVcAABsp8J3ssaN93+PfDmBVRKuE72WNG+7/HvhzAqoAAAAAAAAAAAAAAAAAAAAAAAAwLUbTiwyKwr83we5aoc2om3GoM51o3Y0uMsyU5BmtkZG7HWaUn1GS21kS0GR8xK6Gu4g6igdYo9c6ZzTa6WpLJPWLxOUkx0+ovBbPZLKtzMiS290Lxme3Ritj4y4kSfFdhTorUmO+g23WXUEtDiT6jSpJ9Rkf6jAfph9iUw3JjPIeZdSS23G1EpK0mW5GRl1GRl94+glT3DJo/HeclYnS2eFPuLNxR4hdTKNpSzPc1LYiOtsuGZnufO2ojPr9fWBaI5VG9Gp4ldVYCC9SOemmbf8UuudUf8AEzAVUBKvIpmb/o2PE9qrMR96ejoI2/8AxR6xtRfwMfk+GTS+y682PJc3JX57GUZJOsoa/wB8Jx3wXr+/Zrr+/wC4B97ziEwluykYvp63K1CydhXROVWNcklMVw/UUyVuUeGRbkZ9K4lex7pQs9iP7YHp/lMrI0apauy4ErK/Blxa2sr1qcrsejObG41HUtKVPPOcqelkqSk1EkkoQ2gjSrPKajpccrWKbHqiFV18ZPIxEhR0MMtJ/UlCCJKS/cQ5wAAAAAAAAAAAAAAAAAAAAAAAAAAANVcAABsp8J3ssaN93+PfDmBVRKuE72WNG+7/AB74cwKqAAAAAAAAAAAAAAAAAAAAAAAAAAAAAAAAAAAAAAAAAAAAAAAAAAAAAAAAAAAAAAAANVcAABsp8J3ssaN93+PfDmBVRKuE72WNG+7/AB74cwKqAAAAAAAAAAAAAAAAAAAAAAAAAAAAAAAAAAAAAAAAAAAAAAAAAAAAAAAAAAAAAAAANVcAABsp8J3ssaN93+PfDmBVRKuE72WNG+7/AB74cwKqAAAAAAAAAAAAAAAAAAAAAAAAAAAAAAAAAAAAAAAAAAAAAAAAAAAAAAAAAAAAAAAANVcAABsp8J3ssaN93+PfDmBVRKuE72WNG+7/AB74cwKqAAAAAAAAAAAAAAAAAAAAAAAAAAAAAAAAAAAAAAAAAAAAAAAAAAAAAAAAAAAAAAAANVcAABsp8J3ssaN93+PfDmBVRKuE72WNG+7/AB74cwKqAAAAAAAAAAAAAAAAAAAAAAAAAAAAAAAAAAAAAAAAAAAAAAAAAAAAAAAAAAAAAAAANVcAABsp8J3ssaN93+PfDmBVRKuE72WNG+7/AB74cwKqAAAAAAAAAAAAAAAAAAAAAAAAAAAAAAAAAAAAAAAAAAAAAAAAAAAAAAAAAAAAAAAANVcAABsp8J3ssaN93+PfDmBVRquS/wDW3v8A0iv/ALj5ANqgBqrgA2qAGquADaoAaq4ANqgBqrgA2qAGquADaoAaq4ANqgBqrgA2qAGquADaoAaq4ANqgBqrgA2qAGquADaoAaq4ANqgBqrgA2qAGquADaoAaq4ANqgBqrgA2qAGquADaoAaq4ANqgBqrgAAMqAB/9k=;" parent="z-bBVBrZcgJ4eBNFWtVk-1" vertex="1">
          <mxGeometry width="321" height="521" as="geometry" />
        </mxCell>
        <mxCell id="64h2R2dLhwYQ-BaH5amo-1" value="" style="shape=image;verticalLabelPosition=bottom;labelBackgroundColor=#ffffff;verticalAlign=top;aspect=fixed;imageAspect=0;image=data:image/jpeg,/9j/4AAQSkZJRgABAQAAAQABAAD/2wBDAAMCAgICAgMCAgIDAwMDBAYEBAQEBAgGBgUGCQgKCgkICQkKDA8MCgsOCwkJDRENDg8QEBEQCgwSExIQEw8QEBD/2wBDAQMDAwQDBAgEBAgQCwkLEBAQEBAQEBAQEBAQEBAQEBAQEBAQEBAQEBAQEBAQEBAQEBAQEBAQEBAQEBAQEBAQEBD/wAARCAIJATcDASIAAhEBAxEB/8QAHQABAAMBAQEBAQEAAAAAAAAAAAUGBwgEAwIBCf/EAFUQAAAGAQICAg4FCAcGBQMFAAABAgMEBQYHERITCCEUFyIxNjdWdXaElbO00hVBl7bVFiMyOFFXWLUYJDNCYXeUJVJicYGCNVRykaEJQ7EnU3SDsv/EABoBAQADAQEBAAAAAAAAAAAAAAABAgUDBAb/xAAzEQACAQEDCQcEAgMAAAAAAAAAAQIDBBFxFDEyM1GRodHhBRITIWLB8BUiQVKBsUJh8f/aAAwDAQACEQMRAD8A7XwnCcMnYZQTZuI0siRIq4rrzzsBpa3FqaSalKUadzMzMzMz74mu19gXkRQezWflDT7wCxvzRD9ygYF0z7Gjy5OK6C2yshVEyZ5+2uCoaewsZTUGIgzbPlwWnHUkqUtgt9ttkq6x9JWrTg5O/wDO0xadOMklcb72vsC8iKD2az8odr7AvIig9ms/KOQ77MK3V/Cej5OyrTV/PJMe+n1N1jj9fGJ16dFgSGnSWxZLZbSZLRzNnTSZEZbFvsQ+GS6av4y3phQZjomm5pbLUG7sKrT0irZf0fAcgPG1G2kPJhFwqJTvAl00I4tkGexDhlM/w3vZ08CP5Ow+19gXkRQezWflDtfYF5EUHs1n5Rx1lGlF9UsaZYtaaQ4xNhWmf3djTYHkU1nsCugrgPKbiuONMymUGRktwkNocbSpZJSrYty8GFSK2djGO1dhWwcVwjKdVpNZlmFMkluux9aIi226lZ7NIWzIlNNuKImybdU+SeFRK62VTvud+8nwI5ztTtfYF5EUHs1n5Q7X2BeRFB7NZ+UczZvpXT2eSao6NaR19fUVMbEIF2xWVrCG4FVkjUlb0RxtlvZDTqyabUtKSSaiShR7me4ouXZbD6Q2mOq2ubMdqRCpNPo2LQUvNKSSZz6ESrJO6i6tlKjsqIk9Smlke5lsUu0zX5e8hUIv/h2n2vsC8iKD2az8odr7AvIig9ms/KKFoPpy1hbcmeehGl2AuS4cdCZWHyifemp6zNL/APs+JwkXcmXdObmZ97bc+XNcKyDFyvXTLLXRbC8igs3dXWycusHS+lMWQ/Bjo7OYb7FWpTbBrJ0+CQ2vcuoi/SCVonGN973sKjFu47g7X2BeRFB7NZ+UO19gXkRQezWflHLc/Tn8sekVlDPai0z1V7Aw/G0dnZrM5Jp3KSXNZ/2fM35m3ErrR9X6X1WO6rNKLbVbUSP0h6DHpWP4hUUxUdfbw0Sa6rrnmzQ9KZbUk0tFz+4XIJCeBLaeJSUl1Mont4jwYnQPa+wLyIoPZrPyh2vsC8iKD2az8o5Y0FyK0yLMNFby4nyZUJVdmVXTT5sg3HZ8JqW0mGvmLM1OqXGaSriM1KUSTMzM9zFTlY/+VcXAaxODYxmLU7VzMHGqvI3uXWy0EmZ3S19jyOojIzIyaV1p+rvlGUzuvTe/DmPAjfcdp9r7AvIig9ms/KHa+wLyIoPZrPyjCtYtLrp3o7M4Bh+O6WadXkm6jyImMsvocoLh5D3N+j18UeNzuyEo7pHJLcyMtzIuMsqy/HtNs46Fd9Y2mg9Ri93h1hJqzq5ptWn0JM7Pa7KbgyV8fLYUZ9SGjShJdwRbJITK0VF+XmvzsKjFnZXa+wLyIoPZrPyh2vsC8iKD2az8ooupWI4phHRszagwvGKmgq28ZsnEQquE3FYStUdZqUTbaSSRmfWZ7dZjmbRu6yWi1T0r0VzSTLn2GL4dbz6q0dbPhnU8mEwcfdXeNxpSXGlF/wACT69xMrROLSbe8iNGMlejtPtfYF5EUHs1n5Q7X2BeRFB7NZ+Uct9F7ReDfaOUkuw0E0trmrzGZMX8q4Eol30jntrbNTiDrkcKlko+I+yl7f8AEMVpdSLqLEoelLdWdjyNFI8PTy2ZbimSHHFR3G57vCRGpXC+qIRGR8JESv0vqq7VNJNt+f8AssqEW2kf6Hdr7AvIig9ms/KHa+wLyIoPZrPyjmrUjDXaH/6ebuMXZJXKlUEJ6yU3uknJEmQ26+ovrLdbqz/wGP0y5uTagaY43aplmWheU1+IpW4pZk7KekPEhZqPfjPsKPGPvnsbp98y6jtM00r3vIVCLV53r2vsC8iKD2az8odr7AvIig9ms/KOZOinps1J5eZvaBaVvpRlN66WXuyiPIEKTPkklaWvo4+6I9kF/Wy7nr3/ALow/H7jJsCq6LEbl6VPxnUPVgrOie4CNNbYxr1fZUVRlsZJcbSTyD6+tLpdXVudqmkm795KoRbuP9C+19gXkRQezWflDtfYF5EUHs1n5RyvkTjTGgWqVY6+0UztsKZ5HMI3OY7bxVNI4SPfiWSkmlPfPctho/S/p/ygq9N6b8lKLJey86gt/RN65y4Ez8xI7h9XJe2R9f8AZL7xdQtlE7r73vI8GN9xsPa+wLyIoPZrPyh2vsC8iKD2az8o45nFYYCxqJgblHW4HVu5Tii72rw98zp6umlqS0+bb6WmVoU9wGT59jtElCt9z3NwtY1fxjTbR7TTN06Jw6nELxyriv2cHHJBQlMVqpCUPTyhsqJCFk1zSKSTfHsjbiPhIihWid19/EeDE27tfYF5EUHs1n5Q7X2BeRFB7NZ+UVHBtPNAsCyavXp3W47Q3VrUqeZi1UsoyrWGRt8Up2O2skyzSakf1hxC1p5hkSy5h8WJdIB479rpGLtkrWdDh9bVQGXTSaERn0LfdUlP/G5sRmff5aS+oWlXnFX38SFSi3ddwOm+19gXkRQezWflDtfYF5EUHs1n5Ry1q9h2JaZyl0mlWMVWNxL7TPI5GR11LDbixn0NRm+xpDzLREjmE4taEuGXEZKUncy73vodNmcW6OeVXy9BdLMNclaePpRb4zKJ6fNJUPiMny+jo3CStiUf51zuv2/pCuUVL7r+LJ8GN150t2vsC8iKD2az8odr7AvIig9ms/KOW+jNJyGfqzTudIGjZg5a/h0Obp9GZnHJgRKkmW0Sm2u5SXZxK4FPrLfdDiEoPhI94zSyi/JbpFy63PsJxPN6bUWwvvyf1CppzbjsttZqW/UWjCVH2SlpDZtpNziQ3wJSnczMkFaZu53vePAirzrftfYF5EUHs1n5Q7X2BeRFB7NZ+UceY1glBgdP0pss0m07oKzK8YuZkbHZVZSx25Vc0dRFWpuKaUpNtO6lr4EqSRqMz75i/njOl+D2WimR6JQ6eHcZbasIlTakkc/IatcRxyU9MdRuqWRHwOm64azJwyPiI1bmVoqbeP8Au4OjH4joTtfYF5EUHs1n5Q7X2BeRFB7NZ+UceaAaZvZEjBMjw3Q9OPWVVl1pPuc9UdbH+kYBSJaHI35h5UuTzOJCOB9pCC4eLfdKN+hOjE/Kbwe8xxxT6oeNZZdU1abxpM0wmpSuS2nYi7ltKuWW/Xsgus++JhaJy/L3kSoxievWXE8VpdNrizp8ZqoExnsflyI0JtpxG8htJ7KSRGW5GZHt9RmAldd/FTeerfEtAPoOzG5Um5bfZGVbFdUV2w+mES80RhdAmHQUjrBVcUmlu27ra1I5SeE1JKMokmZbbkSj2/affHtKvyIro8kLAsSK2VGKGc/6Tc7JOOSuImuZ2HxcHEZnw77b9ew92n3gFjfmiH7lAnxjVJLvv7Vn/wB8zQgn3V5lGZxWTHnIs4+lmDNTG5rtkiQiYaXUy3EcDkglFC3J1SO5UvfiMuoz2HtmwckspkGxscExOVKrHFPQX37RxbkVxSTQpbSjh7oUaVGkzTsZkZl3jFsAU70f1XHmWue0qc2DkllMg2NjgmJypVY4p6C+/aOLciuKSaFLaUcPdCjSo0madjMjMu8YjZOGdmN3jUvSTAX0ZPw/TiXJPEVpsgkF2SRwvz+yCJJce/URF3hfgEd6P6rjzFz2lHxPF5eBVX0Dg2l2D47WE4p7sKpmHEY5iv0lctqGlO57Fue25j4M4SmNjk7D4+kWANUNmt5ydVokcMOUp093VOslC4Fms+tRqI+I+/uL+AXx/VceYue0zTDtL6XTuW/Yaf6GaaYxKlNky+/TGiE462R7klSmoKTUW/XsfVuJhVDarTbIXpvhik33/ipHPUZT+4Jv8/8A1P8AO9wRI7vfuS27wuYBfFf4rjzJue0yO50OwXI3Yz+Q9HDSO0chxm4UZc2Oy+pmO2WzbKDXAPhQkjPZJdRfUQk8m00qc1gV9VmWiGm19CqUcuvjWakymoidiTwtIcgmTZbJSWySLqIv2DSQC+H6rjzH3bWZe5pRSyMRYwCforp/YYzEfVIi08+YqXCjLNSj/NMuw1IbSRqVwpQRJSR7JIi6h9brTCmyTHq3Esi0N00tKOmJJVtZNND8SESU8KSZZXBNDeye5LhIurqGlgF8f1XHmPu2szSPphSxMSfwCJobpozjElzmv0jZoTAdXuR8So5QeWo9yI9zTvuRfsHvZxB2PiyMGY0owNvG20E0inRL2gpQSuIkkwULlkRK69uHv9Yxuk1GyXIdYc5x671a1UrGaXLG6qsrsdwZqfVlHNiOskvzCqZHButxfEpchBpSe5mkusXpPSCty1tk6IvabSWpsBLlrLs1TVdhIoya3RNSsme6dU8fK7HPbY0rVzDJPXRVaf6rZ+eZZ057S/zmsstK9+ps8MxiXBlNKYfjP2zrjTrSi2UhSFRDJSTIzIyMtjIeBWO2C59faq0ywk5tTFcg18k5yubEjLJJLZaX2Hu22okJI0pMiMkluXUQxTFunlgOQfSc1yLSOwG6OXf1iKfJWLCwWzHdS2bM2KSEdhPr5jRoRxukZKVupJp2PRJusWoOK1VZL1C0pg1cm1yOro4/0fkhTorjcw9uclxUdpzibPclNqaSRntwrMusirU5eaS4jw5r8/0ffHtGMPxK7aybFOjzpTS3DJqU3YV7TUaSg1EZKNLrcAlFuRmR7H17mJY8HaOkn4yekGn509pJXNnV5yP6tKkLWS1vOtdhcK1qWRKNSiMzMtzPcZvlXSD1Cl3+O1OC4pStNP6jyMNsVWFo4lTzLDKnTW2aY6yRxklW+5GZcJER93xo/OJdJwoNQxbZfXyU00m0y+Iq1nWLCnGXqqU7y45IZisoNLjLLykGfdpJokqN1Rm4IVWnm7q48yfDm/O8122rshvqpyivcBxKxrXkpS5Dl2a3mFpSZGkjbVDNJkRkRluX1EPD+STxS3rAtKcE7KkzmrN5/ss+Y7MaQSG5CldhbqdSgiSlZ90SSIiMiGN3nTfp8ZsqysyPGqGolFU1VrdQbDLWY89ns9XcMQI6mt57jaNlukZskklESTWe5Fp+sOX5RDu8G09wy1KnmZxZPxnrlLLbzsCIxGW+4thDqVtqeVwoQnmIUgiUpRpVsSTnxab81FceZHhzXlf/AEeeFophdbkKMurujrpPFvW5JzEWjDLSJaZBmZm6TxQOMlmZmZq333M+sTp4i8qvj1J6U4IcGHN+ko8Y5Z8pmZxm52QhHYWyXeNSlcZFxcRme+5ig6pXOrmjuI0i4eoMnL5VjmlRWx3ZtZDjTHIkh3hdjyHGW0sKIz7zjUdtaEF3lqLc4y+6X0bGccgqyHHsapcnl5NPxh2Nb5YmFTRnoiDcdeXZORyVyzRwEj+r8aluJSaSLdRR4tOPk4pb+Y8ObzM0eVp5BnZezqDN0X06kZTG4eTeOukuwb2SaS4ZBwuYWyTMi2V3jMh68txSRn9WmkzvSvBckrkupeTDt5hzGCcIjIlkh2EpPEW57Htv1mMTo9ftQtWtbNJ4OCzYtTg+R41Y5BZNMz47r0lyLJbYcaNaojxKbStZEnlONm4SzUa2+AkL6mFo1ITvuiuPMiUJRuvZn+NYO3hlJJxrD9INP6KomGtUmvrZHYsZ41p4VGtpuESVbp6j3LrLqH8w7BWdPIkmBp/o9p9jMWasnJLNO+UJt9ZFsSlpahJJR7dW5/UNBAWvj+q48yLntM6xHT2DgEqdNwPRjTrG5Fnw9mvVDpQ1yuEzNPNU1CSa9jUoy4t/0j/aPhZadSrnJLfI7fBcanflBUt01vAlWhvQ58dtalN85pcI+M08xxPf2NKtjI9k7aYAXxzd1ceY+7azNMc0wpcOrbKmxHQ3TSjr7hHLsYlaaIzMxGxp4XkNwSS4WylFsoj6jMvrHhodFMLxZ6VJxjo66TVD02K5BkuQGGo6n4zm3MZWaIBGptWxbpPqPYtyGsgF8f1XHmPu2spMjHbGXJp5krTPCXpGPGZ1Drk5Sl1xmjln2Oo4e7O6O57jbuervDyVWCMUWTTs0o9HtPa7IbMlFOtoj5MzZRKMjPmvphEte5kRnxGfeIaCAXx/VceYue0qNbWX9NJsJtPgGIwZFtI7LsHo1ktpct/gSjmuqTDI3F8KEp4lbnski7xEIjGtPIOGXE/IcP0X06orW0NRzp1a6UWRKNSuJXNcbhEpe6j4j4jPr6++NFAL4/quPMXPaVOqg5LQV6aqgwbFKyGhS1oYh2i2W0KWo1KUSEwySRmpRqPq6zMzPviLwPE8h07xpnGKDGaU2G3n5Trz125zZMh51TrzzhohJSa1uLUozJJFufURF1DQADvR/VceZFz2mV6zScsd01uEW1LUxoh9j8x2PaOvuJ/rDe2yFR0EfXsX6RbEZn17bGEtrv4qbz1b4loBu9mO+k7vLz9kZltV1RYE/p94BY35oh+5QJ8UXB8HwqZhWPy5eIUj779XEcddcr2lLWtTSTNSjNO5mZmZmZib7X2BeRFB7NZ+UY1RQ7783n2dTRg5d1eRPgIDtfYF5EUHs1n5Q7X2BeRFB7NZ+UUuhte7qWvls+bifAQHa+wLyIoPZrPyh2vsC8iKD2az8oXQ2vd1F8tnzcT4CA7X2BeRFB7NZ+UO19gXkRQezWflC6G17uovls+bifAQHa+wLyIoPZrPyh2vsC8iKD2az8oXQ2vd1F8tnzcT4CA7X2BeRFB7NZ+UO19gXkRQezWflC6G17uovls+bifAQHa+wLyIoPZrPyh2vsC8iKD2az8oXQ2vd1F8tnzcUyNoXLqMsv8AKcV1mzmgRktoVvYVkRmndirf5bbZ8JyIDryUmlpJGROft2Mh8GOjTgTGo56tlZXq8tds3pz9muS0bj8VxkmTrV/m9uwiSlJpaIiMlFxcXEajO9dr7AvIig9ms/KHa+wLyIoPZrPyivh09r3dS3fn8/4Ueo6OGI1tLa4lNyfKrbFbCueqYuOzJ6E19ZEdWa1IYSy22tRkZkSXH1urQSSJCkkZkf8AJHR6hWWKu47kGqWeXEwpsGwhXEyZE7KrnoZkbCo7SIyYidjI+I1MKNziPjNfVtee19gXkRQezWflDtfYF5EUHs1n5Q8Ol/vd1Hfn8/4UFro14xHroseNmeVt2ETK15i1am9EclFPcQaHCMlxzZNtSVKI08vq4u5NOxbfG46K2mt9psrS60mXj1UrJpGU87shopBSX5jkp1riJvh5KjecaNPDubazLi37oaJ2vsC8iKD2az8odr7AvIig9ms/KHh0vi6jvz+f8KzfaI01vmys4rMuyrHH5bESLbRKWc3HYtWoq1KYS8Ztqdb4eJSTUw40pSD4VmpJERTeoOnNJqLBgM2MudXWNNMTY1FtXrQiZWy0pUgnmjcStszNC1oNLiFoUlaiUkyMevtfYF5EUHs1n5Q7X2BeRFB7NZ+UT3Ke17upHen8/wCFTVoZXz62LDynUDMsklxcgh5EU+ymscw34p7tNJZaZbjss/7yWWmzV3zUauseSx6OmLSicmVWUZLS3Cckl5RDuID0Y5UKVJb5T6G0usLZU0pszSaHW3PqMj4kpUV37X2BeRFB7NZ+UO19gXkRQezWflEeHT/3u6k9+fz/AIV+r0Xx2szXGs+O9yGdbYvQysfjuT5/ZJyWZDrTjjr61pNxbvEynYyUSSIzLh222v4gO19gXkRQezWflDtfYF5EUHs1n5RKjTWZvd1Ibm8/zgT4CA7X2BeRFB7NZ+UO19gXkRQezWflE3Q2vd1Ivls+bifAQHa+wLyIoPZrPyh2vsC8iKD2az8oXQ2vd1F8tnzcT4CA7X2BeRFB7NZ+UO19gXkRQezWflC6G17uovls+bifAQHa+wLyIoPZrPyh2vsC8iKD2az8oXQ2vd1F8tnzcT4CA7X2BeRFB7NZ+UO19gXkRQezWflC6G17uovls+bifAQHa+wLyIoPZrPyh2vsC8iKD2az8oXQ2vd1F8tnzcQGu/ipvPVviWgERrPiGJVOmtxYVWL1EOU12Py348JptxG8hsj2UlJGW5GZf8jMBudmXeE7tvsjMtt/iK/YXbT7wCxvzRD9ygT4gNPvALG/NEP3KBPjDqabxNOGigAAKFgAAAAAAAAAAAAAAM4y6FlmW60YhpzSal5Bh1bOxfIbuY7SRa51+Q/El1DLCVKnRZCUoJM58zJCUmZmnc+rYWT+j3l38U2qv+hxj8HEdF/Wnwf/AC/y7+Y46N3GVaak41Wk38RoUIRdNNoxn+j3l38U2qv+hxj8HD+j3l38U2qv+hxj8HGzAOHjVP2e86+HDYjGf6PeXfxTaq/6HGPwcP6PeXfxTaq/6HGPwcbMAeNU/Z7x4cNiMZ/o95d/FNqr/ocY/Bw/o95d/FNqr/ocY/BxswB41T9nvHhw2Ixn+j3l38U2qv8AocY/Bw/o95d/FNqr/ocY/BxswB41T9nvHhw2Ixn+j3l38U2qv+hxj8HD+j3l38U2qv8AocY/BxswB41T9nvHhw2Ixn+j3l38U2qv+hxj8HD+j3l38U2qv+hxj8HGzAHjVP2e8eHDYjnrSpzJoWR6mYZkmbWuVIxPK2K2vsLSPCaldjOUlXMNC+w2GGlbPTHtj5ZHwmRGZ7bjQhQ8F8auuXp1C+69GL4Neg26abM6qkptIAADqcwAAAAAAAAAAAAAAKDrv4qbz1b4loA138VN56t8S0A3uy9S8fZGXbdYsOZP6feAWN+aIfuUCfEBp94BY35oh+5QJ8YlTTeJpQ0UAABQsAAAAAAAAAAAAAABS4v60+D/AOX+XfzHHR+ce6QWRyC1Ni31ZV9nYzNkN44zGbdR2cz2U7DYQ7xLPicOS0SVGjhLZ1HUR9Z/qL+tPg/+X+XfzHHRIPdG9iRlGPZE7mUgmabJLO+lwm4SSbsm5MjslmM4ZqMyJmQll0lF+kbe2xEoyGPatc/n4NKz6tEXj3Sbeg6fY9c5liVleXy6QrvJvyVitdi08MnVtLmLbkySdNriacMm2jfeMm17IVsLE70jccTmh4nHwvLJMJm6i0ErIGmIv0bFmSWG3o6V8T5SFJcJ5tJKQyokqURLNJGRnQ8r6F1HkcOhQuZhVhOrav6FkzMnwWNemUbnuPE5CbkO8MSQRurLjWTzau54mlcJDRD0PaS3YsR8iJtqbllZk6ElASkmkw24qCjkSVEnuii/pESSTx7Eg+Hr852PGvpL4izJsnJOKZQzTRWbJyuvFR4xwrlcBC1SmovC+bqVp5bpFz22Ur5ajQpSdjPyO9JKtr0fS17iGTV0V+DVyI1W5AiuTl9nTlxY7nGzMcbNKzJCuWZJWhJ7qPiM20VWv6GOPVV3kc2rewiDFt4tuzElxcDiIvUOWCVks5dobhuSUIN1zhJtDCzTwpccc2M1X7I9Dfp+7i3P5UcjsaNQx+X2FxcX0bOOVvvzC25m/Btt3Pf7rvADz4z0janIcgg47O02zehdl2Mmlefso0NTMSzZaU8qGs48l03FqZQa0uMk4z3km4S+5E1hGsLeY5U/iU/TrL8VknBVZ1zt9HitJsoiXSbU60hmQ46zsamzNuS2y4ROJ3RuSiT4ndFDdsm7AsqdaNGXS8q/NReFZc+C5F5KVcfUaeZxk5t9W3CXfFW0L6LkTRjKkZY3Z4s9MKodp5LlNibdU9ZJN1txEqa8T7q5MrdC+Y6o9lmvdKGz4uMCp6h9JXIsc1GznFka2aOYmrFXo7dXjmR1zr1vd8cNp/ZlSbJlW63HDaRwRnD4i7yz7kade9IOpxmTFh2uEZO8bFdDssjkwmWFsY23J6m+yycdQ6vrJe5MNuqSlBqWSCMjP1T9EKq4TqGzb27rrWdz41i0plo2nqt9iKwy0604SjM3EOR0upWRJMj2L6tzo2b9E2NnmW1ubZDOwO0uV18CDeWF1p9FtJTioqjMnq5ch1SYCl8SyUlaZKP0TJKVJM1AXB3pEY03lCKBGI5S9Xv3T2PRr9mPHXXP2DLLrr7RGT3OQTfIcQa1tJQay4UKWe+3sVr7gkekrsint2cOBY4svLkOOsJUbcNJslwKShSjN4zfQRJSSiM9y3729MutC85gZhj/AOT+Vol4U1mMjIZFT9Htty4ZyY0snzVLW6ZOM858lIaQylxJr61rQXCXyr+ivYTaB3FM/wBRmL6obxKRhkJiPRJim3BU40tpx7jedQ88RMpSs+BLbmxfm0FuSgLGnpGwShLjSNK84jZUU6PAaxJ5NamyfU+04824h3szsLlm0y+vc5JGXKUky49kH7cd1cyLINXI+Cq06u62nkYq1eqmz247TsaSqQttUd1BSDc3Lh27lpSTURmSzSaTOi0/ROepcGt8ZgOaRRn7qZHemwIuk0JjHZbDKDSTcmuTI5zy+JXMJZyy4VpRwpJPEhV/wnSGxwjJaO5h5YzJh1uNnQTIr1evjeMnzebcYc52zDaDWtBNGhzuOWklJ4O6ApmC+NXXL06hfdejF8FDwXxq65enUL7r0Yvg2rPqomZW1jAAA7HIAAAAAAAAAAAAAACg67+Km89W+JaANd/FTeerfEtAN7svUvH2Rl23WLDmT+n3gFjfmiH7lAnxAafeAWN+aIfuUCfGJU03iaUNFAAAULAAAAAAAAAAAAAAAUuL+tPg/wDl/l38xx0buMIi/rT4P/l/l38xx0buMe1a5/PwaVn1aArWpkuVA04yudBkuxpMaknOsvNLNC21pYWaVJUXWRkZEZGXWRkLKPJbVcG8q5lLaMc+FYR3IslriUnjacSaVp3SZGW5GZbkZGPOdjmPENRsvx5emOn2aZRZz7qokdlSJbkjhdyCoXTS3WJDxErZxZONmhziLbmskvYuJI/mCdKDVPKaaZkrmHvO1zlIzkra3cFvKlqtYJ9o34S5M3hZnunGccW2+wbaTU0Z8o0mW/QEvTLBJ9tjN9Mxxh2xw5t1mkkqWvmRG3GeStBHxd2lSNiMl8RbkR98iMRWNaF6X4lLsZlLjr5KsoblctuXZy5bMaGs91xYrT7q0RGDPbdphLaO5T3PclsBV8W1nyLJs4axFiJVEUi8lqZWlpw1KommXCS+e6+p1UhskcW3BwqLud+sVjLM/tdPuklc5Nc5DZ/kfHoIcGfBcmrOFEcW1NktyUsmfAlxRxTaNSSJSuYgj32LbZMZ0zwbDn66TjdA3CdqqduhhrJ1xZtQW1cSWu7Ue/ddZqPdR/WZjy5do9ptnqbNGYYqxaIuFV65qHnXeF1UF43op7EoiSaHDNXc7b95W5dQA5roNZdTdP6GdVTbe0n5HkuZLSUubQWuUIpm11Uac6y3XQFFIW0lTimkJQptDfFxKM9uFVksNf8AXexx2Ve0VBjmPu4/h55TbQ8hobFD8pTcmS0phppx2O7FS8iOTiFutrU2RkSkOb7p2zIdGtPMnjz2LKomMuWNmi5dl19tMgTG5qWUMk8zJjuoejmbSEtmTS0EpJqIyMlK3/kPRbTKvp5VBCxdDMCdS/k9JaRJfLmweJxRtqVx8RqNTzqlO78xSlmZqM+sAVF3WnIkptVog1aCiZzUYzHStCzNUWW1DW4oz4y4nS7Jc2MiJOyU7pPY99lGfytBtLJuV/lo/jsj6T7IiTTJFrMRGVKikkmJJxUukwb6UoSjnGjmGguBSjT3I0AAAAABgGC+NXXL06hfdejF8FDwXxq65enUL7r0Yvg2rPqomZW1jAAA7HIAAAAAAAAAAAAAACg67+Km89W+JaANd/FTeerfEtAN7svUvH2Rl23WLDmT+n3gFjfmiH7lAnxAafeAWN+aIfuUCfGJU03iaUNFAAAULAAAAAAAAAAAAAAAUuL+tPg/+X+XfzHHRu4w/M9LsTzy1rL27cyCJZU8eVEhzKTJLGnfQxJUyp9pTkF9lS0KVGYUaVmZbtpMthEdonEfK7VX7Vcn/EB4K1lnUm5Jo9dK0RhBRZ0OA547ROI+V2qv2q5P+IB2icR8rtVftVyf8QHLIqm1fP4OmVQ2M6HAc8donEfK7VX7Vcn/ABAO0TiPldqr9quT/iAZFU2r5/AyqGxnQ4DnjtE4j5Xaq/ark/4gKLT6XVkrXHLcPfzvVVVRWYpjtlFj9tDJS5cmVMuG318ZTuI+JESOWxmZFy9yIjUreHYqi/KJVpg/wzsEBzx2icR8rtVftVyf8QDtE4j5Xaq/ark/4gJyKptXz+CMqhsZ0OA547ROI+V2qv2q5P8AiAdonEfK7VX7Vcn/ABAMiqbV8/gZVDYzocBzx2icR8rtVftVyf8AEA7ROI+V2qv2q5P+IBkVTavn8DKobGejBfGrrl6dQvuvRi+Ct4Rp7jOnkezYxsrVa7md9JWEm0uptpKkyeQ0wS1yJjrrp7Mx2UEXFsSWyIiIWQaFKDhBRZ46klOTkgAAOhQAAAAAAAAAAAAAACg67+Km89W+JaANd/FTeerfEtAN7svUvH2Rl23WLDmT+n3gFjfmiH7lAnxAafeAWN+aIfuUCfGJU03iaUNFAAAULAAAAAAAAAAAAAAAAAAAAAAAAAABmWP/AKy2eeguJfzDIBpozLH/ANZbPPQXEv5hkArLOiyzM00AAWKgAAAAAAAAAAAAAAAAAAAAAAAAAAAABQdd/FTeerfEtAGu/ipvPVviWgG92XqXj7Iy7brFhzJ/T7wCxvzRD9ygT4gNPvALG/NEP3KBPjEqabxNKGigAAKFgAAAAAAAAAAAAAAAAAAAAAAAAAPlKVJRGeXDZbekJbUbTbjhtpWvbuUmoiM0kZ7EZ7Ht+w+8OCtOenpGy3pLzMZqdF8hbznJ4VDiEqjlTGkM1kqvnWzlg45JSSlKbZamJWWzJGrlOkZI2I1d2Xl7S4xTzMhyO2iVlZXsqflTJbyWmWG0lualrUZEki/aY5fx3DMFwfX7IumHbaaX9FjOWVzVezkk5CERoqy2J2weibc+GxIShpJPuJLbhcU4TaXiUfCtLuuPncdqSvT8rzq4B+GH2JTDcmM8h5l5BONuNqJSVpMtyMjLqMjL6x+x3OIAAAAAAAAAAAAAAAAAAAAAAAAAAAAAUHXfxU3nq3xLQBrv4qbz1b4loBvdl6l4+yMu26xYcyf0+8Asb80Q/coE+IDT7wCxvzRD9ygT4xKmm8TShooAAChYAAAAAAAAAAAAAAAAAAAAAACr53qJSYFHiNy482zt7Vw49TSVjPPn2TxFuaGW9y6iIyNbijS22nulqSXWIi71Avb+/lae6MVkLIMmhOIatZkpxSarHyVsfFMcR1re4T4kxWz5iuo1G0g+YWhaY6NUOnMibkMifLyHLrhCU22RWOxyZBF1ky0ku5jRkn1pYbIkl3z4lmpavJXtSp/bHzZ6KVBz85Ziq4hote5Vbxs712ciTpMZ1EqnxKOrm1dK4XWh10zIuzZaf/3VETbZ/wBkgjLmK2d1pp9pbD7SHG3EmhaFpI0qSZbGRkffIyH7AZkpObvke+MVFXIwS90oyrSCQ9kWikJVrivdOzsC40o7H3MzU7UOLMksq6zM4izJlX/2zZPfjmsLzjG9QKVN7jM5TzJOKYkMvNKZkw5Cf02JDKyJbLqT6lIWRKL9nWQ2EZfqRomxkd4eouA2pYvnjLCWSsEtmuJaNJ/Rj2McjIpDZd5KyNLrW/5tZFxJV6aFqdP7ZeaOFWgp+cc57QFIxDUd6dc/kDqBSlimdsMG+7TuSOazMZTsSpMB/ZJSmNzLcyIloMyJxDZmRHdxpxkpq+J4JRcXcwAALEAAAAAAAAAAAAAAAAAAAAAAFB138VN56t8S0Aa7+Km89W+JaAb3ZepePsjLtusWHMn9PvALG/NEP3KBPiA0+8Asb80Q/coE+MSppvE0oaKAAAoWAAAAAAAAAAAAAAAAArmbagY1gEKNIvZLq5Vi92LWVsRo35tlJMjMmIzKe6dWZEZ9XUkiNSjSkjUUNpK9kpNu5E5OnQqyE/ZWUxiJEitqefkPuE2202kt1LUpWxJSREZmZ9REM9qSzjpAEk8Qm2eG6emvZ3IOUbNpfN/WmuSst40dX/m1lxqI92UkRpeEvjWjWSalTImW6/wo7MSHIKTU4RGkk/CjKSe7b1itPczZBdRk2W8dpRdyTqkk6N1GdXtbl9tPNtPbSs93nMhcPwzFsAx+Ni2G0cWpq4hHyo8dGxcRnupajPulrUZmpS1GalKMzUZmZmJoV7ULMIWAYPeZnYbmzTwXZRISRqU6sk9w2ki61KUvhSRF1maiIusxzvh2t2VYvpvlUSHLurnIqiVVzIS81pbSoXIRYSGmn08E1tp42m5CnyQtCTbQhTSS34TSPCeo6pAc7TNXNbo2Ww9JmZmBvZM7kSqmRdnWSkQW4q6tyc06mF2WbinUGgm1N9kESy7slI34UqTXrUe5loldj42zXY7jllcZGluC++5OkQZkmItqGsn08hDi4/MSpaHjSRGkyUZkogOiQHOaNb9X8WhyHM4i4jZLOlrcuQ5UQ5EdMWrdloamR3EuyFm44y2vjTII0JXsrdlHD1+fOekfnMHsOHjMJiKq+tLlFRYIwy3yQkQa5TbJqdhVqyfWp59S+F0lIbQjh3JSjIlAbZqDptiOp1MimyuuU6cd0pMGbHcNmZXSSLuZEZ9Oy2XU/UpJ9ZGZHukzI8bfyPMNFZcbH9Zph2uPyHCYrs6ajpaZ3M9kM2jaO5ivGexE+kiYcPb+xUZNntGm+T2maYFQZXeY7KobG1gMyZVZKZdZdiOqT3bakPIQ4nY9+paEq223IhPTIcSxiP19hFZkxZLamX2HkEtt1tRbKQpJ9SkmRmRkfUZGOtKtKk74nOpTjUVzKERkZEZGRkfWRkAoFrprmOhu07SWsl5NghLU5MxNT5rn1COszXVLWf51ov8AyS1dRf2Ki2SyqzYjmOMZ5SNZHiNyxZV7q1t81rcjbcQfCtpxCiJTbiVEaVIWRKSZGSiIy2GrSrRrLyzmfUpSpvzK/n2tGDaZzotflqMmQ5NU22w5X4na2TLjjijShonokZxvmKMtib4uI+rq6yFkx7Ja7J4hTa2Nastm225w2FTKgObLTxEXBJbQrfbvp23SfUoiPqFS1oq7O1rcWbrK6TMVHy6okvEwypw22UPka3FcJHslJdZqPqIu+Mz1OxV2ZnN3Z5bhlne4R+UNXIua9qmfsUWEVNY42k+xWkKVLbbkqZNSEoc2NJGae56ruTTISTRvWOZNSZbWHcY9N7LhlIkReZy1t/nWHVNOp2WRH1LQot9tj23LctjH0g39RZWtlSQpfMm06mkzWuWouUbqONHWZbK3SZH3Jnt9exjjrKcFuJ+n9DiR6SEptR5K/WIyDC7DISjyHZ7io7RR2pDTUF9TaiUia+rZJbkSiI1b33GcTy5WURcjynHbSzoE/k4U6rlV7xrck/R7aCmqSot3zjvkjdBpPgM1uH3baOGqqPYS4LadMAADqcwAAAAAAAAAACg67+Km89W+JaANd/FTeerfEtAN7svUvH2Rl23WLDmT+n3gFjfmiH7lAnxAafeAWN+aIfuUCfGJU03iaUNFAAAULAAAAAAAAAAAAAAAReUyMiiYzaysRros+8ZhvLrost42mX5JIM20LWRdyk1bEZ//ACXfFa6Mlfg963Nzawtp97qawXYWQuXsNMSxpjUfF2EzEJSkxIpmW6OUpaXiIlm68fdi8in5rpvByqxg5VU2svHcup0KTV39fsT7KT6zZeQfcSY6j61MOEaT75cKySsvPaKMqsftZ2o1FTfmjcx+VrQ0hTji0oQgjUpSj2IiLvmZjJNP9bpp3UTTrWaug41mExamqx+O4o6rICTufFCcX1oe4S4lRXD5qes0m6guYNQu/wDwWf8A/wAV3/8AwYyJRcXczRTUleiAul6b6g45Uu2lvVWtHZT4cqseasi7HmyWnSej8tbayJ7u2iUSCNRK4D3Iy3ERqxopi2q8YlWaTjWKWmofZZKdUSoZS2JLrC2kuJQslnHSRKVuaNzNPfMj5wwSJP06xzQzE40GS7jWXWdNcVTjbaltV9j2C6uXGWe/5tDpnz2+8XGb5bl3JH4dNL/VjNcrvaPtgwouUyqS5O9rYud21lNhzkLI4anas4aGKQ0KIkElp9JPIUe3P24xBJ0Bb9F/Tuwax2BEXcRYlJbSbl99V3YvWsyS7EcjE4doqT2YhxKHCJLnNNRISTZcKeorRTYtpHjOQRsUqm6aNclQHCaqlTeN9yqS6ZqUcdazNxBuuK4nTSZqUs+JRmYx7As4y/Pc2pFsWl03UZtNTk7KFSXWyiwYBOsOsoLcuW046iApTe2yue5vvuY+Out01gWtErWJ1EhbWC45VzpqI0dTzrsB6VNYkIJKSNR7E4lzYu+bRd8Aafp9pfoTToyvGsGRDsVuJTSZBGcvn7R6G1yzNEBXOecXEZS26ZojJ4EJJzdKC4txJWGhWmFhhlDgKaKXXU+MR0RKcqi3m1smCwlvl8tuVFdbkJSpBElRczZZF3XEOW7VWaYDj2TLbeh1irXIKGZmkuVkcmhYYRKr1vyDdtIzTj0JHZCm0G8hG5FsniQRmovdireXZ/RVEa71XyFysiYfk9jXvY1mFobckmJzBQHjsVNRX53Kb3Sl9SVIfSZqUbxK4jA7FoaGmxelg45jtaxX1lbHRFiRWEcLbLSC2SlJfsIiHvHIlrrVMqa2fTXueT2MlvCwabUwkynESZEd9UNEt+O0kyM2eYpwnlNlwJ3Pj23HXYADmnpDxqbDcuiXmkMh6PqzeGhxVBXR0vRr+Mk+E3bVviSlhpBbpKcakuJMiQnndTCrPlWtN/m9lIw3QBcGWUV9cO6zGQnnV1UtO6VtRUd6dLSZbGkj5LR/2ijUXJV9cF07x7T+LMTVHLmWNq/2Va29i+cifZSO9zH3j61GRdSUkRIQnZKEpSRJL12ezzm+/mR561aMV3c7K0eQdJXc9tJdMzL6v/1Dn/go/n5QdJb90umX2iWH4INNAafde08F62GZflB0lv3S6ZfaJYfggflB0lv3S6ZfaJYfgg00A7r2i9bDMvyg6S37pdMvtEsPwQS2mGd5DmS8pq8sxmupLnErtNLMZrrVdjFdUuBEmocbecjsLMuXNQkyNotlJVsZlsYu4zLSXw+1q9Oon3ZpBHmmvMnyafkaaAALlQAAAAAAAoOu/ipvPVviWgDXfxU3nq3xLQDe7L1Lx9kZdt1iw5k/p94BY35oh+5QJ8QGn3gFjfmiH7lAnxiVNN4mlDRQAAFCwAAAAAAAAAAAAAAAAAAROU4njmbUj+O5XTx7Ouk7Gtl5O+yknulaTLukLSZEpK0mSkmRGRkZEYqtTqDmmhJJgakz7LL8D4+GPk3KN6zpG/qTZJQW8hhP/m0FxpIt3kmRKeGgAOVWjGsvM6U6sqb8i919hAtoMe0q5seZDltJfjyI7iXGnm1FulaFJMyUkyMjIyPYyMegc5tYrl+jk2RkWh8NmbUzJBybXCJMnkxHjUe7j9c4ruYcg+szbPaO6oz4iaUo3RsGnWp+H6o1L9nitgtT0F7sWzrpTZsTqyTsRnHksK7ppwiMj2PqURkpJqSZKPJq0ZUndI0KdSNRXotgAA5HQAAompmsGN6bHEqFsyLrKbdKzpscr+FU6eaTIlLIlGSWmUmZcb7hpbQR9atzSk5SbdyDd2cs2UZTjmFUE3KcsuYlVU17fNky5ThIbbTvsXWffMzMiJJbmZmRERmZEMKs7POekASTmot8J04c3/2arii3OQtn9cky2XBiqL/7KTJ9wv7Q2iNTSvrU4LkeYX1fqNrZKiWF9AVzqmjhOLXT0CjL9JlKyI5Eki3I5TiSV1mTaWUmaT0IaFCyXfdU3Hiq2i/7YHkqaiqoayNS0dbFr6+E0lmNFispaZZbSWxJQhJESSIvqIh6wAe88gAAAAAAABmWkvh9rV6dRPuzSDTRmWkvh9rV6dRPuzSCss6LLMzTQABYqAAAAAAAFB138VN56t8S0Aa7+Km89W+JaAb3ZepePsjLtusWHMn9PvALG/NEP3KBPiA0+8Asb80Q/coE+MSppvE0oaKAAAoWAAAAAAAAAAAAAAAAAAAAAAApWY6cKt7VrNsKvXcUzaG2TUe7isk4Uhkj37FmsmZJlRzP+4oyUkzNTa21d0LqAiUVNXSJUnF3oj9ONbCvb1OnOo1MnF84Q2pbUbmGuBctpLun658yLmpIutTKiJ5v+8k07LVqYx/NMIxnUGicx3K60pcRa0vNqS4pp6M+g90PsuoMlsuoPrS4gyUk+8ZDNW3tWsqyu46PuR6mPrxyhqK+2lXMJpUW+tYM12YyxDdktqJLSknAf5r7KEOOJU1wm2rjUebVsclL7MzPdTtKa+40XN9are4vJ2m+iMaNZ3sNRsW2QymzcqKBf1oWaTI5UovqjNqLhPbmrbLYlebB9OqrCzlWjs6XeZJa8KrfIbNSXJ1gtP6JLURElDadzJDLZJbQXUlJbnvNY9jtFidJDxvGamLWVde0TMaJGbJttpBfURF/iZmZ98zMzPrMSI9dGzxpef5PNVrOp5fgAAD0HEAAAAAAAAAAADMtJfD7Wr06ifdmkGmjMtJfD7Wr06ifdmkFZZ0WWZmmgACxUAAAAAAAKDrv4qbz1b4loA138VN56t8S0A3uy9S8fZGXbdYsOZP6feAWN+aIfuUCfEBp94BY35oh+5QJ8YlTTeJpQ0UAABQsAAAAAAAAAAAAAAAAAAAAAAAAAAGZY/8ArLZ56C4l/MMgGmjMsf8A1ls89BcS/mGQCss6LLMz76qZlf6ZSYOeq7Ns8UbScG3rIsRLrzDjh/1eUzwp5ijNzhZUgzNOzqV9zwKNVGzzXfJ9D6Guf1AkYfKtLFh+3ksXOVxaZZI4iM4FYwTLjk11pJpT3ZIJSjT+d3Vwp2fLsWr80x+Rjlo9IajSVsrWuOpKXCNt1LidjURl+kgt+rvb/wDMVHUDRGn1BuZlvIy7JKZNtTqoraLVuxkNWMTdw0JcU6yt1s0KecMjZW3vvsvjLqFZKX+JMXH8mhRn0SozUpsjJDyEuJJXfIjLctx9B8okdMSKzEQtSkstpbJSttzIi23PbYt+ofUdCgAAAAAAAAAAAGZaS+H2tXp1E+7NINNGZaS+H2tXp1E+7NIKyzosszNNAAFioAAAAAAAUHXfxU3nq3xLQBrv4qbz1b4loBvdl6l4+yMu26xYcyf0+8Asb80Q/coE+IDT7wCxvzRD9ygT4xKmm8TShooAAChYAAAAAAAAAAAAAAAAAAAAAAAAAAMyx/8AWWzz0FxL+YZANIlKkojPLhstvSEtqNptxw20rXt3KTURGaSM9iM9j2/YfeHBWnPT0jZb0l5mM1Oi+Qt5zk8KhxCVRypjSGayVXzrZywcckpJSlNstTErLZkjVynSMkbEauc5xi1eXhFyTuO+gAB0KAAAAAAAAAAAAAAABmWkvh9rV6dRPuzSDTRmWkvh9rV6dRPuzSCss6LLMzTQABYqAAAAAAAFB138VN56t8S0Aa7+Km89W+JaAb3ZepePsjLtusWHMn9PvALG/NEP3KBPiA0+8Asb80Q/coE+MSppvE0oaKAAAoWAAAAAAAAAAAAAAAAAAAADOkT881iyK0xTTSz/ACbxmkkuV13lxsJekrmIMidiVrThG2pbZ7pckOpW2he6EtuKSvl0qVI0l3pF4QdR3Is+X57hOn8BFnm+WVVFGdXy2nJ8tDPOX1ESGyUZGtZmZESU7mZmREXWK2xq7Nvi3wDR/UXKW1foSG6ZNVHX/wASXbRyKlaf+JHER/VuNHwLQzTLTqcq8o8dKVkDyeGTkFq8ufayN99yVKeNThJ3M9m0mltO+yUpLYhfhnztsnoo9cbLFaTMFRO6RU4uKv0Mo4ZH3k3OaIYUX/Mo0WQX/sZjJMb6LOr+LdIjJOklA0i0zO9yOtagrjJ1BncuO6WxPSEEdKRE46lDRH1lts4e58xW3aoDi7TUlnZ1VCCzIwRy41/ru6stAGZ6S75UWWxJCj/5FLRFI/8AqZDxSNbKuh37YWB51haU/pv21C49Eb/9cyGb8ZBf4qdIv8R0QAvG2VFn8yjs0HmMoxvKcZzGpavsRyKsu6x/+ymV0tuSwv6+pbZmk++X1/WJQeTNujvpzltk9lFVEk4jljpblkeNuJhTlK69jfIiNqWktz7iS26jr34d9jFLpMnzTEs1Z0r1ZjxXbCey4/j2RQGVNQ71ppJG62tszPsaYhPdqZ4lJWjdbZmSXEN+yjao1H3X5M89SzuCvXmi/gAD1HnAAAAAAAAMy0l8PtavTqJ92aQaaMy0l8PtavTqJ92aQVlnRZZmaaAALFQAAAAAAAoOu/ipvPVviWgDXfxU3nq3xLQDe7L1Lx9kZdt1iw5k/p94BY35oh+5QJ8QGn3gFjfmiH7lAnxiVNN4mlDRQAAFCwAAAAAAAAAAAAAAAAAABU+hLk1FlvRT0zuqKSh43aCOmxUky4jsiL+uqX+xSpHNWe/f4t/rFsGL9HfTHLMd0D0q1N0Ts4MO3tNP8ccvMcs1KRVX7iayMhLynEJUuJKJCUo7IQlZKSlJONucKDRn27/H+fY9lk/J1WAyeH0jsNq32qrVqtstMrVayZJOTISzXvub7EUeyQaob3Ee3Cnmk7spPE2kz4RqUSXEnxmpsGU1JjvJJbbrSyWhaT7xpUXUZf4kM89h9gAAAAB4ri6pser3re/toVZBjlxOypj6GWmy/apazIi/6mAPaMM6WuT4xjeMYKi6Wr6VsdRcZhUaW3UtulJcsWm3VEZpV3PYy5KV9XWlZp3SaiMpV/pCw8rI4WhGJWGo0pzdLdnGM4mPNn9SnLRxJtuI/aUVMhZbl3Gx7jN9adK7WuxCPqbqZkLWSZpIzHCYkdxhg2a+kiLymqUuLAaMzUlKlJSbjyzNx00p3NKUobRaGkiJZmbGAAN4yAAAAAAAADMtJfD7Wr06ifdmkGmjMtJfD7Wr06ifdmkFZZ0WWZmmgACxUAAAAAAAKDrv4qbz1b4loA138VN56t8S0A3uy9S8fZGXbdYsOZP6feAWN+aIfuUCfEBp94BY35oh+5QJ8YlTTeJpQ0UAABQsAAAAAAAAAAAAAAAAAAARvRO/VY0b/wAv8e/lzAkhG9E79VjRv/L/AB7+XMDPt/8Aj/Pseyyfk0+XHiy4rsWbHbkR3UGh1pxBLQtJl1kZH1GR/sMYNXYD0QcnyS5qNP7THanIag1u3EbBcqXTzIakq2WuS3WyGlJMldSuYXWe5HuNzuSQqnnJcjPyEnGdJTLBkTrhcJ9yjcyLiPvF1l1/WQ44wm8xyBZYjg+J6jY7ncPGIs5FXWMQlQ8owxooDpcVkuNI5eyTIo6m3YrB8a2zM1uI3V4Ees3GDpA5IhMWGI9InVGPBktpejOs28GybcbUW6VJcmRXzWkyMjI9z3IfftSZ6fUrpV6rmn/d7Axcv/kqff8A+Rz5VqyzJsaayaZqbm8abEtcJr45xMglNIS1NiwUzONvj5bpupfXubiVGhR8xBocPjHqt8hosdsqfFdSdY8oxzCYF1llc/Pk5fMhuKZYcj9ityLJTxP7pU5shxTvGajS3xGSzSoRezeD0OXM7nINcNWLZB/pJ+nmq7f/AK17MdRf9DIeyn6O+h1XZM27un8W6tGFbs2ORPvXcxpX+8mROcedSf8AiStxyjqVqfmLdJjqLS/uYGV1mJwbdhNjnc3H33jN9ZnIYq4kdRWzpNspVIRKUTTZGRbNpW4Y1NLV+Wo03N1Z7la34+qMCkiwSu5BVzdc9DjE7HOGS+Q4lSlrcJS0GtKldypJdQeRJ1UlKUkSUkRERbERfUQyLpT+KqD6dYP96Kwa8Mh6U/iqg+nWD/eisEw0kJZmTYAA3jIAAAAAAAAMy0l8PtavTqJ92aQaaMy0l8PtavTqJ92aQVlnRZZmaaAALFQAAAAAAAoOu/ipvPVviWgDXfxU3nq3xLQDe7L1Lx9kZdt1iw5k/p94BY35oh+5QJ8QGn3gFjfmiH7lAnxiVNN4mlDRQAAFCwAAAAAAAAAAAAAAAAAABG9E79VjRv8Ay/x7+XMCSEb0Tv1WNG/8v8e/lzAz7f8A4/z7Hssn5JzVDVnH9Kzx1OQQrF5vJrZFOy7EaQtMZa0KVzXuJaTS0kkHxKSSjL9m25l43NWMaa1VLSI4tgdqVO5cuS+WgoTTSFpSbanDXxE5stKtuEy4TIzMtyI4vXvTefqYeK1DUHn17U2eVi4TqEHHZerJTCXC3PczJx1vbhIzIz322IzGMyNDNZs2xmVIyqFHq8oynGckh2rrM5pbcKVITCYiMkvujUk2Ym5q4FkkzVxEe/CfgR6mdCV+rWlVtjr+X1WpmKTaGNIOG/aR7mM5EafIyI2lPJWaEr3Mu5M9+suofKqvNK85saHOKDKaG8f7Fmppp1fbNvtvMGpspRtctZodIjQ0SlbK4T26y368Ex/RXPbxiZZ5TjuXyn5eQ4s661ls7H1PuR62WTqnUs1LLbCUNkfcKU4t1ZJIjQjhSR2NzBtR8PzpzMqPTx66jvX+QEUWFOhsuIZntROVMMnnUJNonI6+YRK5pErdLaz6jkGyZBn2O0GKM5oUg7OqkOxGmHq5bbyXikvNstrQriJKkcTiTMyPvbmW/eP8X+qmmWIQZttlWo2L00KqmIgTpNhbx47UWUpJLSw6tayJDhpUlRIUZKMlEe2xjNl6a5tJ6L+M6cO1642Rw4lGzLZjymuKOtiTHW+pDijNBmhKFqI9z34S2I99jpmZaS6r10TGVY/FypaMJeuK1pWKvUf0haxZhNqalmm3SuMazIltyDXwOqWa1oNSVGlQHV0WQ3KjtyWnEONupJaFoPdKkn3jI/rLYZN0p/FVB9OsH+9FYLVoxicnBdKMUw6Y060/T1bERbTspuSts0p24DdaZZbXw97dDSE9XUkiFV6U/iqg+nWD/eisCGkg9EmwABvGSAAAAAAAAZlpL4fa1enUT7s0g00ZlpL4fa1enUT7s0grLOiyzM00AAWKgAAAAAABQdd/FTeerfEtAGu/ipvPVviWgG92XqXj7Iy7brFhzJ/T7wCxvzRD9ygT4gNPvALG/NEP3KBPjEqabxNKGigAAKFgAAAAAAAAAAAAAAAAAADy9GCEqt6NOktcp5DxxcGoWTcQlaUrNNeyXERLSlREe2+ykkf7SI+oeoW6rlU1ZTRIzcmFEjxIrbZNktDaGkJQRbEXUSSIi22+rYeG2xbUWj1WWSTaZkN1lWumQanZpjuAZBg8CrxBqAtuHb49LlyJ7j7KnVI7KbnNIYI+EkkrkOcO+5krbhP9SOkdEiYnRZkrS3NJtVY1ca1tJ0FmKcSladUST5zj77Rv8J8ZqTGQ8sko3NCeJBK8DGM5Pm+ZZbnuh+vODOUWUHGhWJM0J3L8Z2K2plfIls2DbSHNjPqcZc4VF1kot0iAzroWUWVOwIcCxok1VZj0SigFeYui3n1aoylqbkQJS3kFFUtSkm9s2al8CeFTZkSizz2Fsqtc8qetM4gP6P5Xarx7JG6Spj07UJTk9tUVp43FOOS0stEklqWa31sJNKm0kSnDNAjpPSZcVcY4dHp1k1vDu8fsrZ+riRGDtIb0OUyw+lxS5CYxE0a3CUlLi1LUkuVzO8f8z7oyWebS7VT+SY5MrbDImMhKnyDFFWle64mCURxqUwcptMhOyEOtH3HLcTufM6tvlT9GPKMPgUMTAdS4dOdHUWtGlDmMpcjLiTZqJBmllp9omnGko4G+E+WRnubZpIkAC2WevVLAl078TCcsssct1V6PynjRY6K2OqapCY5K5zyJDpKNxsjUwy6lBr2UaTJRF/YevNA6zf3NliWTVeM0LE2QWSSY8dcCamI4bb5NEy84+hRKSoiS+00a+E+AlbDO7HoWVMjLK+7h3FEuJUfQiq2RZ4sifeQPo7kkliPZLeI2YziWVGtpDRK43nFEvZRpOfkdFxi9uc1m5da0UiNmNZLqpLtRizVbYzWn9iJVnIS6tqwW0lJJaM2GySRq3JXEYA0XTXU9jPJlnUSsUyDGLapQy8/V3SI/O7HfIzZfSqM880pC+BZbEviSaFEpKT6hB9J1tmRppXRHJjMdbubYcprmEo+YpvIq900ESSM+I0tq26ti76jSkjUVf0jwHAOjdOkRcmyXS7HrHLHWYsCJR41AxVmUbSVcKUtc1x6S+e6jUZuqT1dw233XFouoFHjuUt0cmebcp2htU2kNCXSNKXyjvsktSS6lESX1mW/eVwqLrSRi9KDnNXFZyUYtngAAG2ZYAAAAAAABmWkvh9rV6dRPuzSDTRmWkvh9rV6dRPuzSCss6LLMzTQABYqAAAAAAAFB138VN56t8S0Aa7+Km89W+JaAb3ZepePsjLtusWHMn9PvALG/NEP3KBPiA0+8Asb80Q/coE+MSppvE0oaKAAAoWAAAAAAAAAAAAAAAAAAAAAAKVkujuAZPbnkzlU/UZCaST9O0cx6rsjIu8lcmMpDjiS/3HDUjrMjSZGZH8mKLXfHS4MV14KzZT+gxmGNsWHCX+6TsJcNw/8A1LNav28QvQDlOjTnpI6RqzhmZUUZr0nIJcLmMaX3Rl/fTbWFZxf9vY8nb/3MQsPXvpBzs4t9PmtE9PEWFNU11w++rUOcbKmZr0xpok/7G4jWSoDxqIyIiJSNjPcyTpAzLH/1ls89BcS/mGQDjKyUr0dFaJ3MnnMv6T1gXC1V6XUO/wDfVJsLbh/7eCLv/wC5DxSMT1iyTdOa6+WjLCv7SHiVRHpmV/4cx05MpBf+h9J/4i+ALxstKP4KuvUf5Knh+lWAYLLetMex5sraUnhlW815ybZSi/Y9MkKW+6X+ClmXWf7RbAAd0klcjk235sAACSAAAAAAAADMtJfD7Wr06ifdmkGmjMtJfD7Wr06ifdmkFZZ0WWZmmgACxUAAAAAAAKDrv4qbz1b4loA138VN56t8S0A3uy9S8fZGXbdYsOZP6feAWN+aIfuUCfEBp94BY35oh+5QJ8YlTTeJpQ0UAABQsAAAAAAAAAAAAAAAAAAAAAAAAAAGZY/+stnnoLiX8wyAaaMyx/8AWWzz0FxL+YZAKyzosszNNAAFioAAAAAAAAAAAAAAAZlpL4fa1enUT7s0g00ZlpL4fa1enUT7s0grLOiyzM00AAWKgAAAAAABQdd/FTeerfEtAGu/ipvPVviWgG92XqXj7Iy7brFhzJ/T7wCxvzRD9ygT4gNPvALG/NEP3KBPjEqabxNKGigAAKFgAAAAAAAAAAAAAAAAMyxTLdfdQYVhf4Vpbp+5Sxr25pYztpnU2LKe+j7GRBW6tluoeQ3xrjKUSScXslRbnvuKVKsafnJl4QlPyiaaApfYvSn/AHV6VfaNY/gYdi9Kf91elX2jWP4GOWVUdv8AZfJ6mwugCl9i9Kf91elX2jWP4GHYvSn/AHV6VfaNY/gYZVR2/wBjJ6mwt8pUlEZ5cNlt6QltRtNuOG2la9u5SaiIzSRnsRnse37D7w4K056ekbLekvMxmp0XyFvOcnhUOISqOVMaQzWSq+dbOWDjklJKUptlqYlZbMkauU6RkjYjV2N2L0p/3V6VfaNY/gYyHG+ivrFi/SIyTpIV+kulv0/kda1BXHPUOw5Md0tiekI/2H1LdShojPYjLZw9z5ituVS0wbXdlwOkKMkn3onSQCl9i9Kf91elX2jWP4GHYvSn/dXpV9o1j+BjrlVHb/ZzyepsLoApfYvSn/dXpV9o1j+Bh2L0p/3V6VfaNY/gYZVR2/2MnqbC6AKX2L0p/wB1elX2jWP4GIybl2tGJZZhtJqNpxhUGtzG4epGplJmUuwfjvorpk5KlMPVkdKkGmCtBmThGRrSex9YlWmlJ3J/2Q6FRK9o0cAAdzkAAAAGZaS+H2tXp1E+7NINNGZaS+H2tXp1E+7NIKyzosszNNAAFioAAAAAAAUHXfxU3nq3xLQBrv4qbz1b4loBvdl6l4+yMu26xYcyf0+8Asb80Q/coE+IDT7wCxvzRD9ygT4xKmm8TShooAAChYAAAAAAAAAAAAAAAKl0fsjpsP0IyDKshl9i1lRl+eTZj3ApfLZbya0UpXCkjUrqI+oiMz+oW0U3QiFZ2PR/ySBTQamdOk5bnrTEW2QpcKQtWTWhE2+SSM+Wr9FWxH1GfUfePw27RR6rLpMsVbr9XOrlRsp0+ynEJaKp+6gMXrtY0VnDZ4ea4081McZa4eY1umQ4yoiWRmWxKMrWeqWmicnZwhWoONJyWRx8qlO3j9nuGhBLWSWOPjUZJMjPYuojI+8Od0aTZy9juW45pzpVmWDY/MxaxrDx/IMuYnw5M1fD2IisjpnSWYLDZc4jJJxU8K208oySXLuJ6PZE3PtbJnFY5SZ2ptbkpvE6xxuQ2YcZhT5nxb7pJtaOH9PYuojI+vNPcaVU6x6dWGMVWVWOUVtDGuK/6Ujs3E1iK8UbjQg3FJNe3CS3G0mZGZEpaS33Mh6Y+relUuxoaeJqbib0/Ko3ZlFFbuoynrWPwmrmxUEvifRwkZ8SCUWxGe/UMAotC9R6PTQsKk44q1O+jUciep+ZGN6A9DnMm7ENfGRKj8jdbaUcRJUl/c+JwuKwajab5/aZplFLVYAdrCze6obVnJzmxG2KRuAbJrQ8hTiZJrSbC1M8lt1Jqf7pTRcRgDZKvVDTO8yh3CKXUTGLDI2GnH3aeLbx3ZrbSF8C1qYSs3CSlfcmZlsSuo+seItV8d7bS9HFwrJu4TUIuEylNI7DcbUtaeUlfHxc3ZClcJoIuEjMjPYyLOsL0lySin4TNdxlmO5V5jlFvYOJeZNTceaqZynNyUZq5nMj7pTuZdXERcJ7ePWLTbVGfm9/qHpzQx5V3ChUpUK35rbKHXUnPYlpUZq3IkMTCX3RESjSkiMzIyAF8x3pB6aXlPlWSWNwjGqTELddPOtL99iFEWsiQZOtuqc4eUrmJJKl8Jmf1dZbzt9q5pRi1dAuMn1OxOogWjKJEGVPuo0dmU0s0klbS1rJK0ma0kRpMyPiL9pDnvI9AdR6NCJeHHkjDWN5VCsoRY8/UfSc6K3QtwDdYTZpXD4yd4zNL5NmZEs0qI+HilsM0GyOthVS7PFJLrjGEZLWf7VnQJMliVYzGnyjrOM0wwRrJJ8RNN8lHDwEtRESlAdDOZVi7KZCnckq0JiPsRpBqmNkTLz3DyW19fcqXzG+FJ9auNO2+5Dy2uZ1FNlNVic5L6ZNvEmzWn9kkw23G5XM5ijURl/bJ22Iy6lbmX1869rnWCrhKw2Jpu/LYtpmH2jtqmzhJjQ0wCgty47iFPE6byexlLTwIW2pO/dkrZKtE1z0qybUnJscfpHOTGrKy1JxxxxHYzklSoq48eS2fdOx3FMqJxKS60kZGex7GBe0aq6XuW1HQt6kYsqzyeP2XSQiuI5v2jHCaubGb4+J9HCRnxIIy2IzFC6Qnhdoj/mBJ+7F6M1yzSHVjJ9SX7iTUZu1VZdZ0F1JhwLPHW6yrXCSwam5rkmO/O421sqU2UI1IXxkRmyZrWNK6Qnhdoj/AJgSfuxejpR1kcUUqaDwLGAANwygAAAAzLSXw+1q9Oon3ZpBpozLSXw+1q9Oon3ZpBWWdFlmZpoAAsVAAAAAAACg67+Km89W+JaANd/FTeerfEtAN7svUvH2Rl23WLDmT+n3gFjfmiH7lAnxAafeAWN+aIfuUCfGJU03iaUNFAAAULAAAAAAAAAAAAAAABCdFjxVTvTrOPvRZibEJ0WPFVO9Os4+9FmPDbtFHqsukzXgABmnuAoOoOV5e1kVNp5p4umi311GlWCrG4iuyosGJHNtK1nHacaXIWpbzSCQTzRERqWaj4SQu/ClZ9gl1kNjV5XheTR8fyilQ+xFlzK458N6O/w81iRHS6ytxBm22suB5tSVtpPiNPEhQEBjerllW3SsA1Gix38lj3Mal7Mpoy2YUzsiK5JZkk084pbCTSy6hTfMeNKkfpKI9yqmbdJW8r7hcTDcHlyq5qjyqW9PmJjk2zNqXUtESklKS4bRr4t+FBqMnG9jTsvhnrDQ7KZtai8TqJCLUD6bjXy7p2iNdcbzLKmER0wSkJcTGJpxwiR2SbhKWajcMzMRH9Ge5Koaru2S0887FyiJPkyKU1G+i5d5yjbSmQkm1NLJGxnxkpJGWyTMlEBYmekFRJvIlG/jN9Ij9kwqqxvorLB1kG0ktNuNRHOJ4pHErmtFxpaW0k3UJU4k9yKV0R1EyHU3DpWQ5LikiglMXVnWoYdNg+Y1HluMoWXKfeLfhQRK3UW60qMi4TSZ5+rojY2jVJjUWO3hLhrmw7ObIn4NDm3ZyY7LbSUxrJ5RnHZUTLZmnkrcSZr5bre5cOqaa4TPwGmsKSVdx7Jh+4sLKIpuEqOtlqVIW+bThm4snFJW4suMiQRlw9wRkZmBbQAAAGM9ITwu0R/zAk/di9GzDGekJ4XaI/5gSfuxejpR1kcUUqaDwLGAANwygAAAAzLSXw+1q9Oon3ZpBpozLSXw+1q9Oon3ZpBWWdFlmZpoAAsVAAAAAAACg67+Km89W+JaANd/FTeerfEtAN7svUvH2Rl23WLDmT+n3gFjfmiH7lAnxAafeAWN+aIfuUCfGJU03iaUNFAAAULAAAAAAAAAAAAAAABl+n8rpB6XU9lidLptp5eV68kyC4iTpWczoLzjNhbSpyEuMJqHktrQmUSDInVkZpMyPrGoAOdSlGqrpF4VJU3fEqnbN6S37ldMvtJsPwMO2b0lv3K6ZfaTYfgYtYDjkdI6ZTUKp2zekt+5XTL7SbD8DDtm9Jb9yumX2k2H4GLWAZHSGU1Cqds3pLfuV0y+0mw/AxBQ9fekHNzi3wBrQ7TwrCmqa64fdVqPO5KmZr0xppKD+heI1kqA8aiNJERKRsZ7mSdIGZY/+stnnoLiX8wyAQ7JTTRZWibvLF2zekt+5XTL7SbD8DDtm9Jb9yumX2k2H4GLWAnI6RXKahVO2b0lv3K6ZfaTYfgYds3pLfuV0y+0mw/AxawDI6QymoVTtm9Jb9yumX2k2H4GK/e9vHUbMtP5uYYJguPVGH5A/eyH63MJlnJe4qmwgoaQy5WR0/pzkrNRudRIPqMzGlgJjZacWmg7ROSuYAAHpOAAAAAZlpL4fa1enUT7s0g00ZlpL4fa1enUT7s0grLOiyzM00AAWKgAAAAAABQdd/FTeerfEtAGu/ipvPVviWgG92XqXj7Iy7brFhzJ/T7wCxvzRD9ygT4gNPvALG/NEP3KBPjEqabxNKGigAAKFgAAAAAAAAAAAAAAAAAAAAAAAAAAzLH/ANZbPPQXEv5hkA00Zlj/AOstnnoLiX8wyAVlnRZZmaaAALFQAAAAAAAAAAAAAAAzLSXw+1q9Oon3ZpBpozLSXw+1q9Oon3ZpBWWdFlmZpoAAsVAAAAAAACg67+Km89W+JaANd/FTeerfEtAN7svUvH2Rl23WLDmT+n3gFjfmiH7lAnxAafeAWN+aIfuUCfGJU03iaUNFAAAULAAAAAAAAAAAAAAAAAAAAAAAAAABmWP/AKy2eeguJfzDIBpEqS3DjPS3icNthtTiybbU4rZJbnslJGpR9XUREZn3iIcw4r0q+jzP1yvcrrtVaeZByjFsPqahEbmOy5c1Vjdp7HTFSk3ycI32eJKkEaCdQauElEZ0nJJq9l4ptO46jAAFygAAAAAAAAAAAAAAAZlpL4fa1enUT7s0g00ZlpL4fa1enUT7s0grLOiyzM00AAWKgAAAAAABQdd/FTeerfEtAGu/ipvPVviWgG92XqXj7Iy7brFhzJ/T7wCxvzRD9ygT4gNPvALG/NEP3KBPjEqabxNKGigAAKFgAAAAAAAAAAAAAAAAAAAAo+VajS42Rlp1p5jqsqzZ2MUs4CX+x4dcwozJEifK4VFGaUZK4SJK3XOFXLbXwqNNZSUFfImMXJ3IvAreWal6c4GnizfPsdx8ttyKzs2Ipn+zYnFEZ7/4D5Qej3f5UkpWtOp9xbk53SqPG3naOqa69+A1sL7MkbdRGbj/AAL2/skkZpF9wzSDSrTtRuYNpzjlG8rrckQa1pp90/rUt0k8a1H9alGZn+0eOduS0UeqNlf+TMka6QmlcwuKmtbi7SfeXS43Z2SVf8lRo7hH/wBBx1pv0fdPsI6amRa9Kw7UUsRS2q2oIfavyUuRayeInyNJwOEm2vzq0d4i5zXCe7Zj/U8B552qU2m0vI7Rs6jfc35nOb3SK0fglxXmUSKFJd9d9UTapKf+apTLZF/1FuxnN8LzWMczDcvpL6ORbm7WWDUpG37eJtRkNeFEy/QnRzPJJ2OVaa4/Nses0WSYSGZzZn3zblNkl5B/4pWRjpG3S/KObsq/DPOAqFlojqNhLapmjepMqyjskZpxrNZLk+M4RF1IastlTGD73dunKLq/Q6zMMJ1HhZZYWOL2dRNx3LKNLZ2tDYkkn2Er34Hm1pM0SI6zJRIebM0maVEfCpKkJ9dK0Qq+SznnqUZU/N5i3gADucgAAAAAAADMtJfD7Wr06ifdmkGmjMtJfD7Wr06ifdmkFZZ0WWZmmgACxUAAAAAAAKDrv4qbz1b4loA138VN56t8S0A3uy9S8fZGXbdYsOZP6feAWN+aIfuUCfEBp94BY35oh+5QJ8YlTTeJpQ0UAABQsAAAAAAAAAAAAAAAAAAAQvRYpa2Po5S5m27HmXOdtJye9sGkKJUqdKSSlJPiSlXCyngjoSpKTShlCdi22E0M1prTKej1b2bsamnZHphZyXrNcStYN+xxmS6s1vmxHQXFKhuOKW6bbZG80tS+BLiFElvx2ynKcU4/g9NmnGMmmdGgIHDM8wvUWmTkOC5RW3tepRtm/BkJdJtwv0m1kR7tuJPqUhREpJkZGRGWwnhlnvOUsNhWOUap5fLuME1uvUws5lRY91VajOQqOGw2bRobVA+mWDNtvc+JCYiiURmWy99hba/WTVlGYxJ9s3ii8PmZZcYqiDHr5KbJPYjUpxuV2SchTZ79jcBs8gj/AL5OFvwFdnejzpuvJJuVRpGa182xsDtJTVbnl7ChuyjMjU4cRiYiP3XCXEnl8KvrIxZGdN8LjrhuNUuyoFxJv4/9YdPgnvk6TrvWrr4ifd7k90lxdRFsWwGP6WZnqnmGqOG5JmF1VopcqwmwuoFRVNyWG4qFyIKmkSScdWmQ82hwy55Ja35i0k2ki3V0MKNh+imm2B368nxijkxrFTT8Ztb1pLkojR3VocWww086puOzxtpUTTSUoSfEaUlxK3vIADEuk3XQ6eFimq1bGSeTY5kECuhE0RE/YRLCS1FlV5GfUZOJcS6klmSCcjtLUpCUmstB1B1V0/0sr2p+c5NGr1STNEOGklPTZ7hFvy40VslPSHNv7jSFK757bEMkjs5tq5m1bn+dVDuO4zjq1yMZxp9SFynZK2zR9Iz+EzSh1La1oaYSpXLJxalqNZpS12oU5Tmu6cqs4xi7zid3py9InPOlPi+kEnTG+wCoZs+yJOPx0RE3du2ylbqWVP2DjEdLTxtEWzakGaVKJK3TNJH2f22s+/hf1N9oYz+Li4ZNgmGZlIqpmV4tWW0mimtWVW/LjIcdhSmlpWh1lZlxNqJSU9aTLfbY9y6hOjVhCUb75XnglOLuuRmXbaz7+F/U32hjP4uHbaz7+F/U32hjP4uNNAX7r2lL1sMy7bWffwv6m+0MZ/Fw7bWffwv6m+0MZ/FxpoB3XtF62GZdtrPv4X9TfaGM/i4/ejNdlCbLUTKsnw+xxk8sylq0g19jIiOykR26eth8ThxHnmiM3YbxkROGfDwmexnsWlAHd872xf8A6AAAsQAAAAAAAFB138VN56t8S0Aa7+Km89W+JaAb3ZepePsjLtusWHMn9PvALG/NEP3KBPiA0+8Asb80Q/coE+MSppvE0oaKAAAoWAAAAAAAAAAAAAAAAAAAAAAKVkujmAZPbqyZdVIqMhUkk/TlFNeq7IyLvJXJjKQ44kv9xZqQe5kaTIzI/kxQa6Y7unFdeVWTKS/Nx8vx2PYkgv8Ad5kNUN0/+a1LV+0zF6Acp0ac9JF41ZxzMqLWadJuCXC/jmmF2Zf30WlhVcX/AGmxK2/9zH7LU3pKGo0Hovpqkv8Af7Y08/8A4+hS/wDyLWA5ZHS2HTKahT3st6T9gXDHr9LqAz/vrdsLfh/7SKJv/wC5DxycR1eyQzTmmvtw1HWWzkPFKqNTMr//ALV9kSkf9khJ/wCIvgC0bLSj+CHXqP8AJUsP0pwDBZj1rj+Po+lpSSRKuJrzs6zlEX1PTJClvufWeyln3z/aLaADukkrkcm2/NgAASQAAAAAAAAAAAAAAAAAAAAAAUHXfxU3nq3xLQBrv4qbz1b4loBvdl6l4+yMu26xYcyf0+8Asb80Q/coE+OCXP7RX/qMfkcpdl95t9/h1Lq3XK7u8eh3wA4HAR9J9fDqTl/p49DvgBwOAfSfXw6jL/Tx6HfADgcA+k+vh1GX+nj0O+AHA4B9J9fDqMv9PHod8AOBwD6T6+HUZf6ePQ74AcDgH0n18Ooy/wBPHod8AOBwD6T6+HUZf6ePQ74AcDgH0n18Ooy/08eh3wA4HAPpPr4dRl/p49DvgBwOAfSfXw6jL/Tx6HfADgcA+k+vh1GX+nj0O+AHA4B9J9fDqMv9PHod8AOBwD6T6+HUZf6ePQ74AcDgH0n18Ooy/wBPHod8AOBwD6T6+HUZf6ePQ74AcDgH0n18Ooy/08eh3wA4HAPpPr4dRl/p49DvgBwOAfSfXw6jL/Tx6HXWu/ipvPVviWgHJMf+2T/1/wDwA91loZLBwvv87zzVqvjy711x/9k=;" parent="z-bBVBrZcgJ4eBNFWtVk-1" vertex="1">
          <mxGeometry x="320" width="311" height="521" as="geometry" />
        </mxCell>
        <mxCell id="64h2R2dLhwYQ-BaH5amo-6" style="edgeStyle=orthogonalEdgeStyle;rounded=0;orthogonalLoop=1;jettySize=auto;html=1;exitX=1;exitY=0.5;exitDx=0;exitDy=0;startArrow=none;startFill=0;endArrow=classic;endFill=1;" parent="z-bBVBrZcgJ4eBNFWtVk-1" edge="1">
          <mxGeometry relative="1" as="geometry">
            <mxPoint x="190" y="370" as="sourcePoint" />
            <mxPoint x="420" y="80" as="targetPoint" />
            <Array as="points">
              <mxPoint x="350" y="370" />
              <mxPoint x="350" y="80" />
            </Array>
          </mxGeometry>
        </mxCell>
      </root>
    </mxGraphModel>
  </diagram>
  <diagram id="tT4wI8JXZff4mmcBqyD3" name="Page-5">
    <mxGraphModel dx="2146" dy="655" grid="1" gridSize="10" guides="1" tooltips="1" connect="1" arrows="1" fold="1" page="1" pageScale="1" pageWidth="850" pageHeight="1100" math="0" shadow="0">
      <root>
        <mxCell id="po1uwALv_BaTEuArhyPv-0" />
        <mxCell id="po1uwALv_BaTEuArhyPv-1" parent="po1uwALv_BaTEuArhyPv-0" />
        <mxCell id="po1uwALv_BaTEuArhyPv-2" value="PO ONLINE BCC" style="swimlane;strokeColor=#ABABAB;" vertex="1" parent="po1uwALv_BaTEuArhyPv-1">
          <mxGeometry x="-140" y="390" width="1250" height="620" as="geometry" />
        </mxCell>
        <mxCell id="po1uwALv_BaTEuArhyPv-3" value="Finance Control" style="swimlane;html=1;startSize=20;strokeColor=#ABABAB;" vertex="1" parent="po1uwALv_BaTEuArhyPv-2">
          <mxGeometry x="640" y="20" width="210" height="600" as="geometry" />
        </mxCell>
        <mxCell id="po1uwALv_BaTEuArhyPv-4" style="edgeStyle=orthogonalEdgeStyle;rounded=0;orthogonalLoop=1;jettySize=auto;html=1;exitX=0.5;exitY=1;exitDx=0;exitDy=0;entryX=0.5;entryY=0;entryDx=0;entryDy=0;" edge="1" parent="po1uwALv_BaTEuArhyPv-3" source="po1uwALv_BaTEuArhyPv-5" target="po1uwALv_BaTEuArhyPv-7">
          <mxGeometry relative="1" as="geometry" />
        </mxCell>
        <mxCell id="po1uwALv_BaTEuArhyPv-5" value="Menerima PR" style="rounded=0;whiteSpace=wrap;html=1;strokeWidth=1;" vertex="1" parent="po1uwALv_BaTEuArhyPv-3">
          <mxGeometry x="55" y="40" width="100" height="40" as="geometry" />
        </mxCell>
        <mxCell id="po1uwALv_BaTEuArhyPv-6" style="edgeStyle=orthogonalEdgeStyle;rounded=0;orthogonalLoop=1;jettySize=auto;html=1;exitX=0.5;exitY=1;exitDx=0;exitDy=0;entryX=0.5;entryY=0;entryDx=0;entryDy=0;" edge="1" parent="po1uwALv_BaTEuArhyPv-3" source="po1uwALv_BaTEuArhyPv-7" target="po1uwALv_BaTEuArhyPv-9">
          <mxGeometry relative="1" as="geometry" />
        </mxCell>
        <mxCell id="po1uwALv_BaTEuArhyPv-7" value="Melakukan Approve PR" style="rounded=0;whiteSpace=wrap;html=1;strokeWidth=1;" vertex="1" parent="po1uwALv_BaTEuArhyPv-3">
          <mxGeometry x="55" y="110" width="100" height="40" as="geometry" />
        </mxCell>
        <mxCell id="po1uwALv_BaTEuArhyPv-8" style="edgeStyle=orthogonalEdgeStyle;rounded=0;orthogonalLoop=1;jettySize=auto;html=1;exitX=0.5;exitY=1;exitDx=0;exitDy=0;entryX=0.5;entryY=0;entryDx=0;entryDy=0;" edge="1" parent="po1uwALv_BaTEuArhyPv-3" source="po1uwALv_BaTEuArhyPv-9" target="po1uwALv_BaTEuArhyPv-11">
          <mxGeometry relative="1" as="geometry" />
        </mxCell>
        <mxCell id="po1uwALv_BaTEuArhyPv-9" value="Setuju?" style="rhombus;whiteSpace=wrap;html=1;strokeWidth=1;" vertex="1" parent="po1uwALv_BaTEuArhyPv-3">
          <mxGeometry x="52.5" y="210" width="105" height="80" as="geometry" />
        </mxCell>
        <mxCell id="po1uwALv_BaTEuArhyPv-11" value="Total PR &amp;gt; 5jt" style="rhombus;whiteSpace=wrap;html=1;strokeWidth=1;" vertex="1" parent="po1uwALv_BaTEuArhyPv-3">
          <mxGeometry x="52.5" y="440" width="105" height="80" as="geometry" />
        </mxCell>
        <mxCell id="po1uwALv_BaTEuArhyPv-12" value="Ya" style="text;html=1;strokeColor=none;fillColor=none;align=center;verticalAlign=middle;whiteSpace=wrap;rounded=0;" vertex="1" parent="po1uwALv_BaTEuArhyPv-3">
          <mxGeometry x="100" y="290" width="40" height="20" as="geometry" />
        </mxCell>
        <mxCell id="po1uwALv_BaTEuArhyPv-13" value="Ya" style="text;html=1;strokeColor=none;fillColor=none;align=center;verticalAlign=middle;whiteSpace=wrap;rounded=0;" vertex="1" parent="po1uwALv_BaTEuArhyPv-3">
          <mxGeometry x="157.5" y="460" width="40" height="20" as="geometry" />
        </mxCell>
        <mxCell id="po1uwALv_BaTEuArhyPv-14" value="Tidak" style="text;html=1;strokeColor=none;fillColor=none;align=center;verticalAlign=middle;whiteSpace=wrap;rounded=0;" vertex="1" parent="po1uwALv_BaTEuArhyPv-3">
          <mxGeometry x="20" y="250" width="40" height="20" as="geometry" />
        </mxCell>
        <mxCell id="po1uwALv_BaTEuArhyPv-16" value="Tidak" style="text;html=1;strokeColor=none;fillColor=none;align=center;verticalAlign=middle;whiteSpace=wrap;rounded=0;" vertex="1" parent="po1uwALv_BaTEuArhyPv-3">
          <mxGeometry x="52.5" y="510" width="40" height="20" as="geometry" />
        </mxCell>
        <mxCell id="po1uwALv_BaTEuArhyPv-17" value="Store Keeper" style="swimlane;html=1;startSize=20;strokeColor=#ABABAB;" vertex="1" parent="po1uwALv_BaTEuArhyPv-2">
          <mxGeometry y="20" width="220" height="600" as="geometry" />
        </mxCell>
        <mxCell id="po1uwALv_BaTEuArhyPv-18" style="edgeStyle=orthogonalEdgeStyle;rounded=0;orthogonalLoop=1;jettySize=auto;html=1;exitX=0.5;exitY=1;exitDx=0;exitDy=0;exitPerimeter=0;" edge="1" parent="po1uwALv_BaTEuArhyPv-17" source="po1uwALv_BaTEuArhyPv-19" target="po1uwALv_BaTEuArhyPv-21">
          <mxGeometry relative="1" as="geometry" />
        </mxCell>
        <mxCell id="po1uwALv_BaTEuArhyPv-19" value="Start" style="strokeWidth=1;html=1;shape=mxgraph.flowchart.start_1;whiteSpace=wrap;" vertex="1" parent="po1uwALv_BaTEuArhyPv-17">
          <mxGeometry x="85" y="40" width="70" height="30" as="geometry" />
        </mxCell>
        <mxCell id="po1uwALv_BaTEuArhyPv-20" style="edgeStyle=orthogonalEdgeStyle;rounded=0;orthogonalLoop=1;jettySize=auto;html=1;exitX=0.5;exitY=1;exitDx=0;exitDy=0;" edge="1" parent="po1uwALv_BaTEuArhyPv-17" source="po1uwALv_BaTEuArhyPv-21" target="po1uwALv_BaTEuArhyPv-23">
          <mxGeometry relative="1" as="geometry" />
        </mxCell>
        <mxCell id="po1uwALv_BaTEuArhyPv-21" value="Login" style="rounded=0;whiteSpace=wrap;html=1;strokeWidth=1;" vertex="1" parent="po1uwALv_BaTEuArhyPv-17">
          <mxGeometry x="75" y="110" width="90" height="30" as="geometry" />
        </mxCell>
        <mxCell id="po1uwALv_BaTEuArhyPv-22" style="edgeStyle=orthogonalEdgeStyle;rounded=0;orthogonalLoop=1;jettySize=auto;html=1;exitX=0.5;exitY=1;exitDx=0;exitDy=0;" edge="1" parent="po1uwALv_BaTEuArhyPv-17" source="po1uwALv_BaTEuArhyPv-23" target="po1uwALv_BaTEuArhyPv-24">
          <mxGeometry relative="1" as="geometry" />
        </mxCell>
        <mxCell id="po1uwALv_BaTEuArhyPv-23" value="Create PR&lt;br&gt;(input item, qty dan supplier)" style="rounded=0;whiteSpace=wrap;html=1;strokeWidth=1;" vertex="1" parent="po1uwALv_BaTEuArhyPv-17">
          <mxGeometry x="57.5" y="190" width="125" height="80" as="geometry" />
        </mxCell>
        <mxCell id="po1uwALv_BaTEuArhyPv-24" value="Simpan dan Kirim PR" style="rounded=0;whiteSpace=wrap;html=1;strokeWidth=1;" vertex="1" parent="po1uwALv_BaTEuArhyPv-17">
          <mxGeometry x="70" y="290" width="100" height="40" as="geometry" />
        </mxCell>
        <mxCell id="po1uwALv_BaTEuArhyPv-67" value="Menyiapkan PO" style="rounded=0;whiteSpace=wrap;html=1;strokeWidth=1;" vertex="1" parent="po1uwALv_BaTEuArhyPv-17">
          <mxGeometry x="70" y="530" width="100" height="40" as="geometry" />
        </mxCell>
        <mxCell id="po1uwALv_BaTEuArhyPv-25" value="Outlet Manager" style="swimlane;html=1;startSize=20;strokeColor=#ABABAB;" vertex="1" parent="po1uwALv_BaTEuArhyPv-2">
          <mxGeometry x="220" y="20" width="210" height="600" as="geometry" />
        </mxCell>
        <mxCell id="po1uwALv_BaTEuArhyPv-26" style="edgeStyle=orthogonalEdgeStyle;rounded=0;orthogonalLoop=1;jettySize=auto;html=1;exitX=0.5;exitY=1;exitDx=0;exitDy=0;entryX=0.5;entryY=0;entryDx=0;entryDy=0;" edge="1" parent="po1uwALv_BaTEuArhyPv-25" source="po1uwALv_BaTEuArhyPv-27" target="po1uwALv_BaTEuArhyPv-29">
          <mxGeometry relative="1" as="geometry" />
        </mxCell>
        <mxCell id="po1uwALv_BaTEuArhyPv-27" value="Menerima PR" style="rounded=0;whiteSpace=wrap;html=1;strokeWidth=1;" vertex="1" parent="po1uwALv_BaTEuArhyPv-25">
          <mxGeometry x="55" y="40" width="100" height="40" as="geometry" />
        </mxCell>
        <mxCell id="po1uwALv_BaTEuArhyPv-28" style="edgeStyle=orthogonalEdgeStyle;rounded=0;orthogonalLoop=1;jettySize=auto;html=1;exitX=0.5;exitY=1;exitDx=0;exitDy=0;entryX=0.5;entryY=0;entryDx=0;entryDy=0;" edge="1" parent="po1uwALv_BaTEuArhyPv-25" source="po1uwALv_BaTEuArhyPv-29" target="po1uwALv_BaTEuArhyPv-30">
          <mxGeometry relative="1" as="geometry" />
        </mxCell>
        <mxCell id="po1uwALv_BaTEuArhyPv-29" value="Melakukan Approve PR" style="rounded=0;whiteSpace=wrap;html=1;strokeWidth=1;" vertex="1" parent="po1uwALv_BaTEuArhyPv-25">
          <mxGeometry x="55" y="110" width="100" height="40" as="geometry" />
        </mxCell>
        <mxCell id="po1uwALv_BaTEuArhyPv-30" value="Setuju?" style="rhombus;whiteSpace=wrap;html=1;strokeWidth=1;" vertex="1" parent="po1uwALv_BaTEuArhyPv-25">
          <mxGeometry x="52.5" y="190" width="105" height="80" as="geometry" />
        </mxCell>
        <mxCell id="po1uwALv_BaTEuArhyPv-31" value="Ya" style="text;html=1;strokeColor=none;fillColor=none;align=center;verticalAlign=middle;whiteSpace=wrap;rounded=0;" vertex="1" parent="po1uwALv_BaTEuArhyPv-25">
          <mxGeometry x="155" y="210" width="40" height="20" as="geometry" />
        </mxCell>
        <mxCell id="po1uwALv_BaTEuArhyPv-32" value="Tidak" style="text;html=1;strokeColor=none;fillColor=none;align=center;verticalAlign=middle;whiteSpace=wrap;rounded=0;" vertex="1" parent="po1uwALv_BaTEuArhyPv-25">
          <mxGeometry x="110" y="280" width="40" height="20" as="geometry" />
        </mxCell>
        <mxCell id="po1uwALv_BaTEuArhyPv-33" value="Cost Control" style="swimlane;html=1;startSize=20;strokeColor=#ABABAB;" vertex="1" parent="po1uwALv_BaTEuArhyPv-2">
          <mxGeometry x="430" y="20" width="210" height="600" as="geometry" />
        </mxCell>
        <mxCell id="po1uwALv_BaTEuArhyPv-34" style="edgeStyle=orthogonalEdgeStyle;rounded=0;orthogonalLoop=1;jettySize=auto;html=1;exitX=0.5;exitY=1;exitDx=0;exitDy=0;" edge="1" parent="po1uwALv_BaTEuArhyPv-33" source="po1uwALv_BaTEuArhyPv-35" target="po1uwALv_BaTEuArhyPv-37">
          <mxGeometry relative="1" as="geometry" />
        </mxCell>
        <mxCell id="po1uwALv_BaTEuArhyPv-35" value="Menerima PR" style="rounded=0;whiteSpace=wrap;html=1;strokeWidth=1;" vertex="1" parent="po1uwALv_BaTEuArhyPv-33">
          <mxGeometry x="55" y="40" width="100" height="40" as="geometry" />
        </mxCell>
        <mxCell id="po1uwALv_BaTEuArhyPv-36" style="edgeStyle=orthogonalEdgeStyle;rounded=0;orthogonalLoop=1;jettySize=auto;html=1;exitX=0.5;exitY=1;exitDx=0;exitDy=0;entryX=0.5;entryY=0;entryDx=0;entryDy=0;" edge="1" parent="po1uwALv_BaTEuArhyPv-33" source="po1uwALv_BaTEuArhyPv-37" target="po1uwALv_BaTEuArhyPv-38">
          <mxGeometry relative="1" as="geometry" />
        </mxCell>
        <mxCell id="po1uwALv_BaTEuArhyPv-37" value="Melakukan Approve PR" style="rounded=0;whiteSpace=wrap;html=1;strokeWidth=1;" vertex="1" parent="po1uwALv_BaTEuArhyPv-33">
          <mxGeometry x="55" y="110" width="100" height="40" as="geometry" />
        </mxCell>
        <mxCell id="po1uwALv_BaTEuArhyPv-38" value="Setuju?" style="rhombus;whiteSpace=wrap;html=1;strokeWidth=1;" vertex="1" parent="po1uwALv_BaTEuArhyPv-33">
          <mxGeometry x="52.5" y="190" width="105" height="80" as="geometry" />
        </mxCell>
        <mxCell id="po1uwALv_BaTEuArhyPv-39" value="Ya" style="text;html=1;strokeColor=none;fillColor=none;align=center;verticalAlign=middle;whiteSpace=wrap;rounded=0;" vertex="1" parent="po1uwALv_BaTEuArhyPv-33">
          <mxGeometry x="155" y="210" width="40" height="20" as="geometry" />
        </mxCell>
        <mxCell id="po1uwALv_BaTEuArhyPv-40" value="Tidak" style="text;html=1;strokeColor=none;fillColor=none;align=center;verticalAlign=middle;whiteSpace=wrap;rounded=0;" vertex="1" parent="po1uwALv_BaTEuArhyPv-33">
          <mxGeometry x="110" y="280" width="40" height="20" as="geometry" />
        </mxCell>
        <mxCell id="po1uwALv_BaTEuArhyPv-41" value="General Manager" style="swimlane;html=1;startSize=20;strokeColor=#ABABAB;" vertex="1" parent="po1uwALv_BaTEuArhyPv-2">
          <mxGeometry x="850" y="20" width="200" height="600" as="geometry" />
        </mxCell>
        <mxCell id="po1uwALv_BaTEuArhyPv-42" style="edgeStyle=orthogonalEdgeStyle;rounded=0;orthogonalLoop=1;jettySize=auto;html=1;exitX=0.5;exitY=1;exitDx=0;exitDy=0;entryX=0.5;entryY=0;entryDx=0;entryDy=0;" edge="1" parent="po1uwALv_BaTEuArhyPv-41" source="po1uwALv_BaTEuArhyPv-43" target="po1uwALv_BaTEuArhyPv-45">
          <mxGeometry relative="1" as="geometry" />
        </mxCell>
        <mxCell id="po1uwALv_BaTEuArhyPv-43" value="Menerima PR" style="rounded=0;whiteSpace=wrap;html=1;strokeWidth=1;" vertex="1" parent="po1uwALv_BaTEuArhyPv-41">
          <mxGeometry x="50" y="40" width="100" height="40" as="geometry" />
        </mxCell>
        <mxCell id="po1uwALv_BaTEuArhyPv-44" style="edgeStyle=orthogonalEdgeStyle;rounded=0;orthogonalLoop=1;jettySize=auto;html=1;exitX=0.5;exitY=1;exitDx=0;exitDy=0;entryX=0.5;entryY=0;entryDx=0;entryDy=0;" edge="1" parent="po1uwALv_BaTEuArhyPv-41" source="po1uwALv_BaTEuArhyPv-45" target="po1uwALv_BaTEuArhyPv-47">
          <mxGeometry relative="1" as="geometry" />
        </mxCell>
        <mxCell id="po1uwALv_BaTEuArhyPv-45" value="Melakukan Approve PR" style="rounded=0;whiteSpace=wrap;html=1;strokeWidth=1;" vertex="1" parent="po1uwALv_BaTEuArhyPv-41">
          <mxGeometry x="50" y="110" width="100" height="40" as="geometry" />
        </mxCell>
        <mxCell id="po1uwALv_BaTEuArhyPv-47" value="Setuju?" style="rhombus;whiteSpace=wrap;html=1;strokeWidth=1;" vertex="1" parent="po1uwALv_BaTEuArhyPv-41">
          <mxGeometry x="47.5" y="220" width="105" height="80" as="geometry" />
        </mxCell>
        <mxCell id="po1uwALv_BaTEuArhyPv-49" value="Ya" style="text;html=1;strokeColor=none;fillColor=none;align=center;verticalAlign=middle;whiteSpace=wrap;rounded=0;" vertex="1" parent="po1uwALv_BaTEuArhyPv-41">
          <mxGeometry x="150" y="240" width="40" height="20" as="geometry" />
        </mxCell>
        <mxCell id="po1uwALv_BaTEuArhyPv-50" value="Tidak" style="text;html=1;strokeColor=none;fillColor=none;align=center;verticalAlign=middle;whiteSpace=wrap;rounded=0;" vertex="1" parent="po1uwALv_BaTEuArhyPv-41">
          <mxGeometry x="60" y="300" width="40" height="20" as="geometry" />
        </mxCell>
        <mxCell id="po1uwALv_BaTEuArhyPv-51" value="Supplier" style="swimlane;html=1;startSize=20;strokeColor=#ABABAB;" vertex="1" parent="po1uwALv_BaTEuArhyPv-2">
          <mxGeometry x="1050" y="20" width="200" height="600" as="geometry" />
        </mxCell>
        <mxCell id="po1uwALv_BaTEuArhyPv-52" style="edgeStyle=orthogonalEdgeStyle;rounded=0;orthogonalLoop=1;jettySize=auto;html=1;exitX=0.5;exitY=1;exitDx=0;exitDy=0;entryX=0.5;entryY=0;entryDx=0;entryDy=0;" edge="1" parent="po1uwALv_BaTEuArhyPv-51" source="po1uwALv_BaTEuArhyPv-53" target="po1uwALv_BaTEuArhyPv-55">
          <mxGeometry relative="1" as="geometry" />
        </mxCell>
        <mxCell id="po1uwALv_BaTEuArhyPv-53" value="Menerima PO" style="rounded=0;whiteSpace=wrap;html=1;strokeWidth=1;" vertex="1" parent="po1uwALv_BaTEuArhyPv-51">
          <mxGeometry x="50" y="40" width="100" height="40" as="geometry" />
        </mxCell>
        <mxCell id="po1uwALv_BaTEuArhyPv-54" style="edgeStyle=orthogonalEdgeStyle;rounded=0;orthogonalLoop=1;jettySize=auto;html=1;exitX=0.5;exitY=1;exitDx=0;exitDy=0;entryX=0.5;entryY=0;entryDx=0;entryDy=0;entryPerimeter=0;" edge="1" parent="po1uwALv_BaTEuArhyPv-51" source="po1uwALv_BaTEuArhyPv-55" target="po1uwALv_BaTEuArhyPv-56">
          <mxGeometry relative="1" as="geometry" />
        </mxCell>
        <mxCell id="po1uwALv_BaTEuArhyPv-55" value="Pengiriman Barang ke Outlet" style="rounded=0;whiteSpace=wrap;html=1;strokeWidth=1;" vertex="1" parent="po1uwALv_BaTEuArhyPv-51">
          <mxGeometry x="50" y="110" width="100" height="40" as="geometry" />
        </mxCell>
        <mxCell id="po1uwALv_BaTEuArhyPv-56" value="End" style="strokeWidth=1;html=1;shape=mxgraph.flowchart.start_1;whiteSpace=wrap;" vertex="1" parent="po1uwALv_BaTEuArhyPv-51">
          <mxGeometry x="65" y="200" width="70" height="30" as="geometry" />
        </mxCell>
        <mxCell id="po1uwALv_BaTEuArhyPv-57" style="edgeStyle=orthogonalEdgeStyle;rounded=0;orthogonalLoop=1;jettySize=auto;html=1;exitX=1;exitY=0.5;exitDx=0;exitDy=0;entryX=0;entryY=0.5;entryDx=0;entryDy=0;" edge="1" parent="po1uwALv_BaTEuArhyPv-2" source="po1uwALv_BaTEuArhyPv-24" target="po1uwALv_BaTEuArhyPv-27">
          <mxGeometry relative="1" as="geometry">
            <Array as="points">
              <mxPoint x="240" y="330" />
              <mxPoint x="240" y="80" />
            </Array>
          </mxGeometry>
        </mxCell>
        <mxCell id="po1uwALv_BaTEuArhyPv-58" style="edgeStyle=orthogonalEdgeStyle;rounded=0;orthogonalLoop=1;jettySize=auto;html=1;exitX=1;exitY=0.5;exitDx=0;exitDy=0;entryX=0;entryY=0.5;entryDx=0;entryDy=0;" edge="1" parent="po1uwALv_BaTEuArhyPv-2" source="po1uwALv_BaTEuArhyPv-30" target="po1uwALv_BaTEuArhyPv-35">
          <mxGeometry relative="1" as="geometry">
            <Array as="points">
              <mxPoint x="460" y="250" />
              <mxPoint x="460" y="80" />
            </Array>
          </mxGeometry>
        </mxCell>
        <mxCell id="po1uwALv_BaTEuArhyPv-59" style="edgeStyle=orthogonalEdgeStyle;rounded=0;orthogonalLoop=1;jettySize=auto;html=1;exitX=0.5;exitY=1;exitDx=0;exitDy=0;entryX=0.004;entryY=0.85;entryDx=0;entryDy=0;entryPerimeter=0;" edge="1" parent="po1uwALv_BaTEuArhyPv-2" source="po1uwALv_BaTEuArhyPv-30" target="po1uwALv_BaTEuArhyPv-23">
          <mxGeometry relative="1" as="geometry">
            <mxPoint x="55" y="250" as="targetPoint" />
            <Array as="points">
              <mxPoint x="325" y="390" />
              <mxPoint x="40" y="390" />
              <mxPoint x="40" y="278" />
            </Array>
          </mxGeometry>
        </mxCell>
        <mxCell id="po1uwALv_BaTEuArhyPv-60" style="edgeStyle=orthogonalEdgeStyle;rounded=0;orthogonalLoop=1;jettySize=auto;html=1;exitX=0.5;exitY=1;exitDx=0;exitDy=0;entryX=-0.004;entryY=0.675;entryDx=0;entryDy=0;entryPerimeter=0;" edge="1" parent="po1uwALv_BaTEuArhyPv-2" source="po1uwALv_BaTEuArhyPv-38" target="po1uwALv_BaTEuArhyPv-23">
          <mxGeometry relative="1" as="geometry">
            <Array as="points">
              <mxPoint x="535" y="410" />
              <mxPoint x="30" y="410" />
              <mxPoint x="30" y="264" />
            </Array>
          </mxGeometry>
        </mxCell>
        <mxCell id="po1uwALv_BaTEuArhyPv-61" style="edgeStyle=orthogonalEdgeStyle;rounded=0;orthogonalLoop=1;jettySize=auto;html=1;exitX=1;exitY=0.5;exitDx=0;exitDy=0;entryX=0;entryY=0.5;entryDx=0;entryDy=0;" edge="1" parent="po1uwALv_BaTEuArhyPv-2" source="po1uwALv_BaTEuArhyPv-38" target="po1uwALv_BaTEuArhyPv-5">
          <mxGeometry relative="1" as="geometry">
            <Array as="points">
              <mxPoint x="670" y="250" />
              <mxPoint x="670" y="80" />
            </Array>
          </mxGeometry>
        </mxCell>
        <mxCell id="po1uwALv_BaTEuArhyPv-62" style="edgeStyle=orthogonalEdgeStyle;rounded=0;orthogonalLoop=1;jettySize=auto;html=1;exitX=0;exitY=0.5;exitDx=0;exitDy=0;entryX=0;entryY=0.5;entryDx=0;entryDy=0;" edge="1" parent="po1uwALv_BaTEuArhyPv-2" source="po1uwALv_BaTEuArhyPv-9" target="po1uwALv_BaTEuArhyPv-23">
          <mxGeometry relative="1" as="geometry">
            <Array as="points">
              <mxPoint x="660" y="270" />
              <mxPoint x="660" y="430" />
              <mxPoint x="20" y="430" />
              <mxPoint x="20" y="250" />
            </Array>
          </mxGeometry>
        </mxCell>
        <mxCell id="po1uwALv_BaTEuArhyPv-63" style="edgeStyle=orthogonalEdgeStyle;rounded=0;orthogonalLoop=1;jettySize=auto;html=1;exitX=1;exitY=0.5;exitDx=0;exitDy=0;entryX=0;entryY=0.5;entryDx=0;entryDy=0;" edge="1" parent="po1uwALv_BaTEuArhyPv-2" source="po1uwALv_BaTEuArhyPv-11" target="po1uwALv_BaTEuArhyPv-43">
          <mxGeometry relative="1" as="geometry">
            <Array as="points">
              <mxPoint x="870" y="500" />
              <mxPoint x="870" y="80" />
            </Array>
          </mxGeometry>
        </mxCell>
        <mxCell id="po1uwALv_BaTEuArhyPv-65" style="edgeStyle=orthogonalEdgeStyle;rounded=0;orthogonalLoop=1;jettySize=auto;html=1;exitX=0.5;exitY=1;exitDx=0;exitDy=0;entryX=0;entryY=0.25;entryDx=0;entryDy=0;" edge="1" parent="po1uwALv_BaTEuArhyPv-2" source="po1uwALv_BaTEuArhyPv-47" target="po1uwALv_BaTEuArhyPv-23">
          <mxGeometry relative="1" as="geometry">
            <Array as="points">
              <mxPoint x="950" y="440" />
              <mxPoint x="10" y="440" />
              <mxPoint x="10" y="230" />
            </Array>
          </mxGeometry>
        </mxCell>
        <mxCell id="po1uwALv_BaTEuArhyPv-66" style="edgeStyle=orthogonalEdgeStyle;rounded=0;orthogonalLoop=1;jettySize=auto;html=1;exitX=0.5;exitY=1;exitDx=0;exitDy=0;entryX=1;entryY=0.5;entryDx=0;entryDy=0;" edge="1" parent="po1uwALv_BaTEuArhyPv-2" source="po1uwALv_BaTEuArhyPv-67" target="po1uwALv_BaTEuArhyPv-53">
          <mxGeometry relative="1" as="geometry">
            <mxPoint x="795" y="500" as="sourcePoint" />
            <Array as="points">
              <mxPoint x="120" y="600" />
              <mxPoint x="1220" y="600" />
              <mxPoint x="1220" y="80" />
            </Array>
          </mxGeometry>
        </mxCell>
        <mxCell id="po1uwALv_BaTEuArhyPv-10" style="edgeStyle=orthogonalEdgeStyle;rounded=0;orthogonalLoop=1;jettySize=auto;html=1;exitX=0.5;exitY=1;exitDx=0;exitDy=0;entryX=1;entryY=0.25;entryDx=0;entryDy=0;" edge="1" parent="po1uwALv_BaTEuArhyPv-2" source="po1uwALv_BaTEuArhyPv-11" target="po1uwALv_BaTEuArhyPv-67">
          <mxGeometry relative="1" as="geometry">
            <mxPoint x="745" y="480" as="targetPoint" />
          </mxGeometry>
        </mxCell>
        <mxCell id="po1uwALv_BaTEuArhyPv-46" style="edgeStyle=orthogonalEdgeStyle;rounded=0;orthogonalLoop=1;jettySize=auto;html=1;exitX=1;exitY=0.5;exitDx=0;exitDy=0;entryX=1;entryY=0.75;entryDx=0;entryDy=0;" edge="1" parent="po1uwALv_BaTEuArhyPv-2" source="po1uwALv_BaTEuArhyPv-47" target="po1uwALv_BaTEuArhyPv-67">
          <mxGeometry relative="1" as="geometry">
            <mxPoint x="950" y="360" as="targetPoint" />
          </mxGeometry>
        </mxCell>
      </root>
    </mxGraphModel>
  </diagram>
  <diagram id="YFPciJ501JAflt_AKUqS" name="Page-6">
    <mxGraphModel dx="2146" dy="655" grid="1" gridSize="10" guides="1" tooltips="1" connect="1" arrows="1" fold="1" page="1" pageScale="1" pageWidth="850" pageHeight="1100" math="0" shadow="0">
      <root>
        <mxCell id="5HfkuWrlW6p8XqYlkYu3-0" />
        <mxCell id="5HfkuWrlW6p8XqYlkYu3-1" parent="5HfkuWrlW6p8XqYlkYu3-0" />
        <mxCell id="TJj_cswL2kQzEZaXvmRs-0" value="PO ONLINE MARKET LIST BCC" style="swimlane;" vertex="1" parent="5HfkuWrlW6p8XqYlkYu3-1">
          <mxGeometry x="-140" y="390" width="850" height="600" as="geometry" />
        </mxCell>
        <mxCell id="TJj_cswL2kQzEZaXvmRs-1" value="Finance Control" style="swimlane;html=1;startSize=20;" vertex="1" parent="TJj_cswL2kQzEZaXvmRs-0">
          <mxGeometry x="640" y="20" width="210" height="580" as="geometry" />
        </mxCell>
        <mxCell id="TJj_cswL2kQzEZaXvmRs-2" style="edgeStyle=orthogonalEdgeStyle;rounded=0;orthogonalLoop=1;jettySize=auto;html=1;exitX=0.5;exitY=1;exitDx=0;exitDy=0;entryX=0.5;entryY=0;entryDx=0;entryDy=0;" edge="1" parent="TJj_cswL2kQzEZaXvmRs-1" source="TJj_cswL2kQzEZaXvmRs-3" target="TJj_cswL2kQzEZaXvmRs-5">
          <mxGeometry relative="1" as="geometry" />
        </mxCell>
        <mxCell id="TJj_cswL2kQzEZaXvmRs-3" value="Menerima PR" style="rounded=0;whiteSpace=wrap;html=1;strokeWidth=1;" vertex="1" parent="TJj_cswL2kQzEZaXvmRs-1">
          <mxGeometry x="55" y="40" width="100" height="40" as="geometry" />
        </mxCell>
        <mxCell id="TJj_cswL2kQzEZaXvmRs-4" style="edgeStyle=orthogonalEdgeStyle;rounded=0;orthogonalLoop=1;jettySize=auto;html=1;exitX=0.5;exitY=1;exitDx=0;exitDy=0;entryX=0.5;entryY=0;entryDx=0;entryDy=0;" edge="1" parent="TJj_cswL2kQzEZaXvmRs-1" source="TJj_cswL2kQzEZaXvmRs-5" target="TJj_cswL2kQzEZaXvmRs-7">
          <mxGeometry relative="1" as="geometry" />
        </mxCell>
        <mxCell id="TJj_cswL2kQzEZaXvmRs-5" value="Melakukan Approve PR" style="rounded=0;whiteSpace=wrap;html=1;strokeWidth=1;" vertex="1" parent="TJj_cswL2kQzEZaXvmRs-1">
          <mxGeometry x="55" y="110" width="100" height="40" as="geometry" />
        </mxCell>
        <mxCell id="TJj_cswL2kQzEZaXvmRs-7" value="Setuju?" style="rhombus;whiteSpace=wrap;html=1;strokeWidth=1;" vertex="1" parent="TJj_cswL2kQzEZaXvmRs-1">
          <mxGeometry x="52.5" y="210" width="105" height="80" as="geometry" />
        </mxCell>
        <mxCell id="TJj_cswL2kQzEZaXvmRs-8" value="Ya" style="text;html=1;strokeColor=none;fillColor=none;align=center;verticalAlign=middle;whiteSpace=wrap;rounded=0;" vertex="1" parent="TJj_cswL2kQzEZaXvmRs-1">
          <mxGeometry x="110" y="290" width="40" height="20" as="geometry" />
        </mxCell>
        <mxCell id="TJj_cswL2kQzEZaXvmRs-9" value="Tidak" style="text;html=1;strokeColor=none;fillColor=none;align=center;verticalAlign=middle;whiteSpace=wrap;rounded=0;" vertex="1" parent="TJj_cswL2kQzEZaXvmRs-1">
          <mxGeometry x="20" y="250" width="40" height="20" as="geometry" />
        </mxCell>
        <mxCell id="TJj_cswL2kQzEZaXvmRs-11" value="Store Keeper" style="swimlane;html=1;startSize=20;" vertex="1" parent="TJj_cswL2kQzEZaXvmRs-0">
          <mxGeometry y="20" width="220" height="580" as="geometry" />
        </mxCell>
        <mxCell id="TJj_cswL2kQzEZaXvmRs-12" style="edgeStyle=orthogonalEdgeStyle;rounded=0;orthogonalLoop=1;jettySize=auto;html=1;exitX=0.5;exitY=1;exitDx=0;exitDy=0;exitPerimeter=0;" edge="1" parent="TJj_cswL2kQzEZaXvmRs-11" source="TJj_cswL2kQzEZaXvmRs-13" target="TJj_cswL2kQzEZaXvmRs-15">
          <mxGeometry relative="1" as="geometry" />
        </mxCell>
        <mxCell id="TJj_cswL2kQzEZaXvmRs-13" value="Start" style="strokeWidth=1;html=1;shape=mxgraph.flowchart.start_1;whiteSpace=wrap;" vertex="1" parent="TJj_cswL2kQzEZaXvmRs-11">
          <mxGeometry x="85" y="40" width="70" height="30" as="geometry" />
        </mxCell>
        <mxCell id="TJj_cswL2kQzEZaXvmRs-14" style="edgeStyle=orthogonalEdgeStyle;rounded=0;orthogonalLoop=1;jettySize=auto;html=1;exitX=0.5;exitY=1;exitDx=0;exitDy=0;" edge="1" parent="TJj_cswL2kQzEZaXvmRs-11" source="TJj_cswL2kQzEZaXvmRs-15" target="TJj_cswL2kQzEZaXvmRs-17">
          <mxGeometry relative="1" as="geometry" />
        </mxCell>
        <mxCell id="TJj_cswL2kQzEZaXvmRs-15" value="Login" style="rounded=0;whiteSpace=wrap;html=1;strokeWidth=1;" vertex="1" parent="TJj_cswL2kQzEZaXvmRs-11">
          <mxGeometry x="75" y="110" width="90" height="30" as="geometry" />
        </mxCell>
        <mxCell id="TJj_cswL2kQzEZaXvmRs-16" style="edgeStyle=orthogonalEdgeStyle;rounded=0;orthogonalLoop=1;jettySize=auto;html=1;exitX=0.5;exitY=1;exitDx=0;exitDy=0;" edge="1" parent="TJj_cswL2kQzEZaXvmRs-11" source="TJj_cswL2kQzEZaXvmRs-17" target="TJj_cswL2kQzEZaXvmRs-18">
          <mxGeometry relative="1" as="geometry" />
        </mxCell>
        <mxCell id="TJj_cswL2kQzEZaXvmRs-17" value="Create PR&lt;br&gt;(input item, qty dan supplier)" style="rounded=0;whiteSpace=wrap;html=1;strokeWidth=1;" vertex="1" parent="TJj_cswL2kQzEZaXvmRs-11">
          <mxGeometry x="57.5" y="190" width="125" height="80" as="geometry" />
        </mxCell>
        <mxCell id="TJj_cswL2kQzEZaXvmRs-18" value="Simpan dan Kirim PR" style="rounded=0;whiteSpace=wrap;html=1;strokeWidth=1;" vertex="1" parent="TJj_cswL2kQzEZaXvmRs-11">
          <mxGeometry x="70" y="290" width="100" height="40" as="geometry" />
        </mxCell>
        <mxCell id="TJj_cswL2kQzEZaXvmRs-49" style="edgeStyle=orthogonalEdgeStyle;rounded=0;orthogonalLoop=1;jettySize=auto;html=1;exitX=0.5;exitY=1;exitDx=0;exitDy=0;entryX=0.5;entryY=0;entryDx=0;entryDy=0;entryPerimeter=0;startArrow=none;startFill=0;strokeWidth=1;" edge="1" parent="TJj_cswL2kQzEZaXvmRs-11" source="TJj_cswL2kQzEZaXvmRs-10" target="TJj_cswL2kQzEZaXvmRs-48">
          <mxGeometry relative="1" as="geometry" />
        </mxCell>
        <mxCell id="TJj_cswL2kQzEZaXvmRs-10" value="Menerima PR yang sudah diapprove" style="rounded=0;whiteSpace=wrap;html=1;strokeWidth=1;" vertex="1" parent="TJj_cswL2kQzEZaXvmRs-11">
          <mxGeometry x="70" y="430" width="100" height="50" as="geometry" />
        </mxCell>
        <mxCell id="TJj_cswL2kQzEZaXvmRs-48" value="End" style="strokeWidth=1;html=1;shape=mxgraph.flowchart.start_1;whiteSpace=wrap;" vertex="1" parent="TJj_cswL2kQzEZaXvmRs-11">
          <mxGeometry x="85" y="520" width="70" height="30" as="geometry" />
        </mxCell>
        <mxCell id="TJj_cswL2kQzEZaXvmRs-19" value="Outlet Manager" style="swimlane;html=1;startSize=20;" vertex="1" parent="TJj_cswL2kQzEZaXvmRs-0">
          <mxGeometry x="220" y="20" width="210" height="580" as="geometry" />
        </mxCell>
        <mxCell id="TJj_cswL2kQzEZaXvmRs-20" style="edgeStyle=orthogonalEdgeStyle;rounded=0;orthogonalLoop=1;jettySize=auto;html=1;exitX=0.5;exitY=1;exitDx=0;exitDy=0;entryX=0.5;entryY=0;entryDx=0;entryDy=0;" edge="1" parent="TJj_cswL2kQzEZaXvmRs-19" source="TJj_cswL2kQzEZaXvmRs-21" target="TJj_cswL2kQzEZaXvmRs-23">
          <mxGeometry relative="1" as="geometry" />
        </mxCell>
        <mxCell id="TJj_cswL2kQzEZaXvmRs-21" value="Menerima PR" style="rounded=0;whiteSpace=wrap;html=1;strokeWidth=1;" vertex="1" parent="TJj_cswL2kQzEZaXvmRs-19">
          <mxGeometry x="55" y="40" width="100" height="40" as="geometry" />
        </mxCell>
        <mxCell id="TJj_cswL2kQzEZaXvmRs-22" style="edgeStyle=orthogonalEdgeStyle;rounded=0;orthogonalLoop=1;jettySize=auto;html=1;exitX=0.5;exitY=1;exitDx=0;exitDy=0;entryX=0.5;entryY=0;entryDx=0;entryDy=0;" edge="1" parent="TJj_cswL2kQzEZaXvmRs-19" source="TJj_cswL2kQzEZaXvmRs-23" target="TJj_cswL2kQzEZaXvmRs-24">
          <mxGeometry relative="1" as="geometry" />
        </mxCell>
        <mxCell id="TJj_cswL2kQzEZaXvmRs-23" value="Melakukan Approve PR" style="rounded=0;whiteSpace=wrap;html=1;strokeWidth=1;" vertex="1" parent="TJj_cswL2kQzEZaXvmRs-19">
          <mxGeometry x="55" y="110" width="100" height="40" as="geometry" />
        </mxCell>
        <mxCell id="TJj_cswL2kQzEZaXvmRs-24" value="Setuju?" style="rhombus;whiteSpace=wrap;html=1;strokeWidth=1;" vertex="1" parent="TJj_cswL2kQzEZaXvmRs-19">
          <mxGeometry x="52.5" y="190" width="105" height="80" as="geometry" />
        </mxCell>
        <mxCell id="TJj_cswL2kQzEZaXvmRs-25" value="Ya" style="text;html=1;strokeColor=none;fillColor=none;align=center;verticalAlign=middle;whiteSpace=wrap;rounded=0;" vertex="1" parent="TJj_cswL2kQzEZaXvmRs-19">
          <mxGeometry x="155" y="210" width="40" height="20" as="geometry" />
        </mxCell>
        <mxCell id="TJj_cswL2kQzEZaXvmRs-26" value="Tidak" style="text;html=1;strokeColor=none;fillColor=none;align=center;verticalAlign=middle;whiteSpace=wrap;rounded=0;" vertex="1" parent="TJj_cswL2kQzEZaXvmRs-19">
          <mxGeometry x="110" y="280" width="40" height="20" as="geometry" />
        </mxCell>
        <mxCell id="TJj_cswL2kQzEZaXvmRs-27" value="Cost Control" style="swimlane;html=1;startSize=20;" vertex="1" parent="TJj_cswL2kQzEZaXvmRs-0">
          <mxGeometry x="430" y="20" width="210" height="580" as="geometry" />
        </mxCell>
        <mxCell id="TJj_cswL2kQzEZaXvmRs-28" style="edgeStyle=orthogonalEdgeStyle;rounded=0;orthogonalLoop=1;jettySize=auto;html=1;exitX=0.5;exitY=1;exitDx=0;exitDy=0;" edge="1" parent="TJj_cswL2kQzEZaXvmRs-27" source="TJj_cswL2kQzEZaXvmRs-29" target="TJj_cswL2kQzEZaXvmRs-31">
          <mxGeometry relative="1" as="geometry" />
        </mxCell>
        <mxCell id="TJj_cswL2kQzEZaXvmRs-29" value="Menerima PR" style="rounded=0;whiteSpace=wrap;html=1;strokeWidth=1;" vertex="1" parent="TJj_cswL2kQzEZaXvmRs-27">
          <mxGeometry x="55" y="40" width="100" height="40" as="geometry" />
        </mxCell>
        <mxCell id="TJj_cswL2kQzEZaXvmRs-30" style="edgeStyle=orthogonalEdgeStyle;rounded=0;orthogonalLoop=1;jettySize=auto;html=1;exitX=0.5;exitY=1;exitDx=0;exitDy=0;entryX=0.5;entryY=0;entryDx=0;entryDy=0;" edge="1" parent="TJj_cswL2kQzEZaXvmRs-27" source="TJj_cswL2kQzEZaXvmRs-31" target="TJj_cswL2kQzEZaXvmRs-32">
          <mxGeometry relative="1" as="geometry" />
        </mxCell>
        <mxCell id="TJj_cswL2kQzEZaXvmRs-31" value="Melakukan Approve PR" style="rounded=0;whiteSpace=wrap;html=1;strokeWidth=1;" vertex="1" parent="TJj_cswL2kQzEZaXvmRs-27">
          <mxGeometry x="55" y="110" width="100" height="40" as="geometry" />
        </mxCell>
        <mxCell id="TJj_cswL2kQzEZaXvmRs-32" value="Setuju?" style="rhombus;whiteSpace=wrap;html=1;strokeWidth=1;" vertex="1" parent="TJj_cswL2kQzEZaXvmRs-27">
          <mxGeometry x="52.5" y="190" width="105" height="80" as="geometry" />
        </mxCell>
        <mxCell id="TJj_cswL2kQzEZaXvmRs-33" value="Ya" style="text;html=1;strokeColor=none;fillColor=none;align=center;verticalAlign=middle;whiteSpace=wrap;rounded=0;" vertex="1" parent="TJj_cswL2kQzEZaXvmRs-27">
          <mxGeometry x="155" y="210" width="40" height="20" as="geometry" />
        </mxCell>
        <mxCell id="TJj_cswL2kQzEZaXvmRs-34" value="Tidak" style="text;html=1;strokeColor=none;fillColor=none;align=center;verticalAlign=middle;whiteSpace=wrap;rounded=0;" vertex="1" parent="TJj_cswL2kQzEZaXvmRs-27">
          <mxGeometry x="110" y="280" width="40" height="20" as="geometry" />
        </mxCell>
        <mxCell id="TJj_cswL2kQzEZaXvmRs-41" style="edgeStyle=orthogonalEdgeStyle;rounded=0;orthogonalLoop=1;jettySize=auto;html=1;exitX=1;exitY=0.5;exitDx=0;exitDy=0;entryX=0;entryY=0.5;entryDx=0;entryDy=0;" edge="1" parent="TJj_cswL2kQzEZaXvmRs-0" source="TJj_cswL2kQzEZaXvmRs-18" target="TJj_cswL2kQzEZaXvmRs-21">
          <mxGeometry relative="1" as="geometry">
            <Array as="points">
              <mxPoint x="240" y="330" />
              <mxPoint x="240" y="80" />
            </Array>
          </mxGeometry>
        </mxCell>
        <mxCell id="TJj_cswL2kQzEZaXvmRs-42" style="edgeStyle=orthogonalEdgeStyle;rounded=0;orthogonalLoop=1;jettySize=auto;html=1;exitX=1;exitY=0.5;exitDx=0;exitDy=0;entryX=0;entryY=0.5;entryDx=0;entryDy=0;" edge="1" parent="TJj_cswL2kQzEZaXvmRs-0" source="TJj_cswL2kQzEZaXvmRs-24" target="TJj_cswL2kQzEZaXvmRs-29">
          <mxGeometry relative="1" as="geometry">
            <Array as="points">
              <mxPoint x="460" y="250" />
              <mxPoint x="460" y="80" />
            </Array>
          </mxGeometry>
        </mxCell>
        <mxCell id="TJj_cswL2kQzEZaXvmRs-43" style="edgeStyle=orthogonalEdgeStyle;rounded=0;orthogonalLoop=1;jettySize=auto;html=1;exitX=0.5;exitY=1;exitDx=0;exitDy=0;entryX=0.004;entryY=0.85;entryDx=0;entryDy=0;entryPerimeter=0;" edge="1" parent="TJj_cswL2kQzEZaXvmRs-0" source="TJj_cswL2kQzEZaXvmRs-24" target="TJj_cswL2kQzEZaXvmRs-17">
          <mxGeometry relative="1" as="geometry">
            <mxPoint x="55" y="250" as="targetPoint" />
            <Array as="points">
              <mxPoint x="325" y="390" />
              <mxPoint x="40" y="390" />
              <mxPoint x="40" y="278" />
            </Array>
          </mxGeometry>
        </mxCell>
        <mxCell id="TJj_cswL2kQzEZaXvmRs-44" style="edgeStyle=orthogonalEdgeStyle;rounded=0;orthogonalLoop=1;jettySize=auto;html=1;exitX=0.5;exitY=1;exitDx=0;exitDy=0;entryX=-0.004;entryY=0.675;entryDx=0;entryDy=0;entryPerimeter=0;" edge="1" parent="TJj_cswL2kQzEZaXvmRs-0" source="TJj_cswL2kQzEZaXvmRs-32" target="TJj_cswL2kQzEZaXvmRs-17">
          <mxGeometry relative="1" as="geometry">
            <Array as="points">
              <mxPoint x="535" y="410" />
              <mxPoint x="30" y="410" />
              <mxPoint x="30" y="264" />
            </Array>
          </mxGeometry>
        </mxCell>
        <mxCell id="TJj_cswL2kQzEZaXvmRs-45" style="edgeStyle=orthogonalEdgeStyle;rounded=0;orthogonalLoop=1;jettySize=auto;html=1;exitX=1;exitY=0.5;exitDx=0;exitDy=0;entryX=0;entryY=0.5;entryDx=0;entryDy=0;" edge="1" parent="TJj_cswL2kQzEZaXvmRs-0" source="TJj_cswL2kQzEZaXvmRs-32" target="TJj_cswL2kQzEZaXvmRs-3">
          <mxGeometry relative="1" as="geometry">
            <Array as="points">
              <mxPoint x="670" y="250" />
              <mxPoint x="670" y="80" />
            </Array>
          </mxGeometry>
        </mxCell>
        <mxCell id="TJj_cswL2kQzEZaXvmRs-46" style="edgeStyle=orthogonalEdgeStyle;rounded=0;orthogonalLoop=1;jettySize=auto;html=1;exitX=0;exitY=0.5;exitDx=0;exitDy=0;entryX=0;entryY=0.5;entryDx=0;entryDy=0;" edge="1" parent="TJj_cswL2kQzEZaXvmRs-0" source="TJj_cswL2kQzEZaXvmRs-7" target="TJj_cswL2kQzEZaXvmRs-17">
          <mxGeometry relative="1" as="geometry">
            <Array as="points">
              <mxPoint x="660" y="270" />
              <mxPoint x="660" y="430" />
              <mxPoint x="20" y="430" />
              <mxPoint x="20" y="250" />
            </Array>
          </mxGeometry>
        </mxCell>
        <mxCell id="TJj_cswL2kQzEZaXvmRs-6" style="edgeStyle=orthogonalEdgeStyle;rounded=0;orthogonalLoop=1;jettySize=auto;html=1;exitX=0.5;exitY=1;exitDx=0;exitDy=0;entryX=1;entryY=0.5;entryDx=0;entryDy=0;" edge="1" parent="TJj_cswL2kQzEZaXvmRs-0" source="TJj_cswL2kQzEZaXvmRs-7" target="TJj_cswL2kQzEZaXvmRs-10">
          <mxGeometry relative="1" as="geometry">
            <mxPoint x="745" y="340.0000000000002" as="targetPoint" />
          </mxGeometry>
        </mxCell>
      </root>
    </mxGraphModel>
  </diagram>
</mxfile>
